M48
;FILE_FORMAT=2:4
INCH
;TYPE=PLATED
T01C0.013
T02C0.035
T03C0.038
T04C0.047
T05C0.059
;TYPE=NON_PLATED
T06C0.184
%
T01
X+233500Y+270625
X+233655Y+279465
X+233745Y+281475
X+236220Y+271220
X+236687Y+273562
X+234688Y+273813
X+234375Y+273375
X+236550Y+277290
X+235425Y+279465
X+235695Y+281490
X+238250Y+268500
X+238875
X+239625Y+267375
X+238625Y+272125
X+238250Y+271625
X+238210Y+275120
X+238170Y+274220
X+239000Y+274250
X+238062Y+279625
X+238000Y+281563
X+241625Y+268125
X+240625Y+267375
X+241687Y+280813
X+244625Y+265250
Y+265750
Y+266250
Y+265250
Y+268562
X+247500Y+264750
X+248500
X+247500Y+275500
X+248750Y+274000
X+247000Y+276500
X+248000Y+278500
X+248500Y+277500
X+249500Y+264750
X+250500
X+251500
X+251000Y+265625
Y+264937
Y+269500
X+250000Y+267375
X+251625Y+271000
X+250000Y+275000
Y+278500
X+249500Y+279500
X+250500Y+279937
X+252500Y+264750
X+254500
X+253750Y+264937
X+254688Y+265625
X+253375Y+264688
X+254000Y+268062
X+254312Y+268500
X+254125Y+269750
X+252625Y+272500
X+252688Y+272000
X+253750Y+271500
X+254438Y+275500
X+253313Y+274125
X+254438Y+276750
X+254063Y+277063
X+254438Y+277375
X+254063Y+276438
X+253750Y+278625
X+255500Y+264750
X+256500
X+257500
X+256938Y+266563
X+255500Y+269063
X+256938
X+256313Y+268562
X+257750Y+271500
X+256000Y+270875
X+257688Y+274125
X+258500Y+264750
X+259500
X+260500
X+259500Y+267625
X+259812Y+268250
X+258750Y+268188
X+259937Y+270437
X+258375Y+271000
X+259563Y+275250
X+260437Y+276500
X+258313Y+277000
X+258750Y+276750
X+260750Y+278375
X+259563Y+283000
X+261500Y+264750
X+262500
X+263500
X+263000Y+269187
Y+271938
X+262250Y+272000
X+261812Y+271750
X+261375Y+271938
X+262563Y+271625
X+261625Y+272750
Y+274875
X+261250Y+274500
X+262000Y+275250
X+261375Y+276250
X+261313Y+284625
X+266313Y+265313
X+266062Y+269688
X+264375Y+270688
X+266563Y+274937
X+264250Y+277688
X+266062Y+277625
X+264688Y+276687
X+268000Y+268750
X+268500
X+269000
X+269500
X+267500Y+271875
X+268687Y+273500
X+267312Y+274937
X+268062
X+268750
X+267563Y+276938
X+267750Y+276500
X+268625Y+277813
X+268500Y+277375
X+268313Y+276938
X+267375Y+277375
X+268813Y+276250
X+270500Y+266750
X+233340Y+281775
X+239250Y+282125
X+254063Y+275813
X+254438Y+276125
X+253500Y+273000
X+257437
X+256500Y+275875
X+258813Y+269812
X+260688Y+272875
X+263375Y+272813
X+265313Y+273125
X+237250Y+267750
X+240125Y+267375
X+234000Y+274250
X+237045Y+279600
X+233938Y+279875
X+249000Y+280195
X+261000Y+266563
X+258000Y+268375
Y+269187
X+255188Y+268000
X+257813Y+272625
X+264187Y+271125
X+264000Y+271563
X+264125Y+270250
X+261125Y+272625
X+258062Y+273750
X+264187
Y+274937
Y+275688
X+257875Y+277250
X+260875Y+283813
X+270188Y+268750
X+266875
X+266812Y+271563
X+267188Y+277813
X+237250Y+267250
Y+266750
X+234063Y+275813
X+237105Y+279120
X+236850Y+281775
X+234135
X+267125Y+273188
T02
X+258000Y+281125
X+257000
Y+278125
X+258000
X+256000Y+281125
X+255000
Y+278125
X+256000
X+252000Y+269500
Y+270500
Y+271500
X+246000
Y+270500
Y+269500
X+252000Y+272500
Y+273500
Y+274500
X+246000
Y+273500
Y+272500
X+252000Y+275500
Y+276500
Y+277500
X+246000
Y+276500
Y+275500
X+252000Y+278500
Y+279500
Y+280500
X+246000
Y+279500
Y+278500
T03
X+245000Y+281500
Y+279500
X+262625Y+284500
Y+283500
X+268000Y+270750
X+270000
X+270125Y+279875
Y+280875
X+269375Y+284500
Y+283500
X+268375
Y+284500
X+267375Y+283500
Y+284500
X+266375Y+283500
Y+284500
X+265375
Y+283500
X+244000Y+280500
Y+277500
Y+278500
Y+274500
Y+275500
X+241000Y+280500
Y+277500
Y+278500
Y+274500
Y+275500
X+244000Y+276500
Y+279500
Y+273500
X+241000Y+276500
Y+279500
Y+273500
X+260000Y+283500
X+259000
X+258000
X+257000
X+256000
X+255000
X+254000
X+253000
X+252000
X+251000
X+250000
X+249000
X+248000
X+247000
X+246000
X+245000
X+244000
X+243000
X+242000
X+241000
Y+284500
X+242000
X+243000
X+244000
X+245000
X+246000
X+247000
X+248000
X+249000
X+250000
X+251000
X+252000
X+253000
X+254000
X+255000
X+256000
X+257000
X+258000
X+259000
X+260000
T04
X+233656Y+284500
X+237594
X+233656Y+285484
X+237594
X+235625Y+282531
T05
X+234641Y+282531
X+237594
X+236609
X+233656
X+235625Y+284500
T06
X+243000Y+269221
X+265000Y+267174
T00
M30
