G75*
%MOIN*%
%OFA0B0*%
%FSLAX25Y25*%
%IPPOS*%
%LPD*%
%AMOC8*
5,1,8,0,0,1.08239X$1,22.5*
%
%ADD10C,0.01000*%
%ADD11C,0.00400*%
%ADD12C,0.00600*%
%ADD13C,0.00300*%
%ADD14C,0.00354*%
%ADD15C,0.00800*%
%ADD16C,0.00000*%
%ADD17C,0.00500*%
%ADD18C,0.01600*%
D10*
X0107799Y0001500D02*
X0107799Y0080240D01*
X0001500Y0080240D01*
X0001500Y0162917D01*
X0458193Y0162917D01*
X0458193Y0080240D01*
X0351894Y0080240D01*
X0351894Y0001500D01*
X0107799Y0001500D01*
X0300175Y0131463D02*
X0302978Y0131463D01*
X0303912Y0132397D01*
X0303912Y0136134D01*
X0302978Y0137068D01*
X0300175Y0137068D01*
X0300175Y0131463D01*
X0306252Y0131463D02*
X0308121Y0131463D01*
X0307187Y0131463D02*
X0307187Y0137068D01*
X0308121Y0137068D02*
X0306252Y0137068D01*
X0310304Y0137068D02*
X0314040Y0131463D01*
X0314040Y0137068D01*
X0316381Y0134265D02*
X0320118Y0134265D01*
X0322458Y0134265D02*
X0322458Y0137068D01*
X0326195Y0137068D01*
X0325261Y0135200D02*
X0326195Y0134265D01*
X0326195Y0132397D01*
X0325261Y0131463D01*
X0323392Y0131463D01*
X0322458Y0132397D01*
X0322458Y0134265D02*
X0324326Y0135200D01*
X0325261Y0135200D01*
X0310304Y0137068D02*
X0310304Y0131463D01*
X0394663Y0131463D02*
X0397466Y0131463D01*
X0398400Y0132397D01*
X0398400Y0136134D01*
X0397466Y0137068D01*
X0394663Y0137068D01*
X0394663Y0131463D01*
X0400741Y0131463D02*
X0402609Y0131463D01*
X0401675Y0131463D02*
X0401675Y0137068D01*
X0400741Y0137068D02*
X0402609Y0137068D01*
X0404792Y0137068D02*
X0408529Y0131463D01*
X0408529Y0137068D01*
X0410869Y0134265D02*
X0414606Y0134265D01*
X0416946Y0134265D02*
X0418815Y0135200D01*
X0419749Y0135200D01*
X0420683Y0134265D01*
X0420683Y0132397D01*
X0419749Y0131463D01*
X0417881Y0131463D01*
X0416946Y0132397D01*
X0416946Y0134265D02*
X0416946Y0137068D01*
X0420683Y0137068D01*
X0404792Y0137068D02*
X0404792Y0131463D01*
D11*
X0406385Y0150519D02*
X0409271Y0154847D01*
X0410736Y0154847D02*
X0413621Y0154847D01*
X0413621Y0154126D01*
X0410736Y0151240D01*
X0410736Y0150519D01*
X0409271Y0150519D02*
X0406385Y0154847D01*
X0319133Y0154847D02*
X0317690Y0154126D01*
X0316247Y0152683D01*
X0318412Y0152683D01*
X0319133Y0151962D01*
X0319133Y0151240D01*
X0318412Y0150519D01*
X0316969Y0150519D01*
X0316247Y0151240D01*
X0316247Y0152683D01*
X0314783Y0154847D02*
X0311897Y0150519D01*
X0314783Y0150519D02*
X0311897Y0154847D01*
X0199093Y0139690D02*
X0196208Y0139690D01*
X0196208Y0137525D01*
X0197651Y0138247D01*
X0198372Y0138247D01*
X0199093Y0137525D01*
X0199093Y0136083D01*
X0198372Y0135361D01*
X0196929Y0135361D01*
X0196208Y0136083D01*
X0194743Y0135361D02*
X0191858Y0139690D01*
X0194743Y0139690D02*
X0191858Y0135361D01*
X0095668Y0133726D02*
X0092782Y0133726D01*
X0094947Y0135890D01*
X0094947Y0131562D01*
X0091318Y0131562D02*
X0088432Y0135890D01*
X0091318Y0135890D02*
X0088432Y0131562D01*
X0036613Y0132284D02*
X0035891Y0131562D01*
X0034449Y0131562D01*
X0033727Y0132284D01*
X0032263Y0131562D02*
X0029377Y0135890D01*
X0032263Y0135890D02*
X0029377Y0131562D01*
X0035891Y0133726D02*
X0036613Y0133005D01*
X0036613Y0132284D01*
X0035891Y0133726D02*
X0035170Y0133726D01*
X0035891Y0133726D02*
X0036613Y0134448D01*
X0036613Y0135169D01*
X0035891Y0135890D01*
X0034449Y0135890D01*
X0033727Y0135169D01*
X0029474Y0089886D02*
X0027310Y0089886D01*
X0027310Y0085558D01*
X0029474Y0085558D01*
X0030196Y0086280D01*
X0030196Y0087001D01*
X0029474Y0087722D01*
X0027310Y0087722D01*
X0029474Y0087722D02*
X0030196Y0088444D01*
X0030196Y0089165D01*
X0029474Y0089886D01*
X0031661Y0087722D02*
X0031661Y0086280D01*
X0032382Y0085558D01*
X0033825Y0085558D01*
X0034546Y0086280D01*
X0034546Y0087722D01*
X0033825Y0088444D01*
X0032382Y0088444D01*
X0031661Y0087722D01*
X0036011Y0086280D02*
X0036732Y0087001D01*
X0038896Y0087001D01*
X0038896Y0087722D02*
X0038896Y0085558D01*
X0036732Y0085558D01*
X0036011Y0086280D01*
X0036732Y0088444D02*
X0038175Y0088444D01*
X0038896Y0087722D01*
X0040361Y0087001D02*
X0041804Y0088444D01*
X0042525Y0088444D01*
X0043986Y0087722D02*
X0044707Y0088444D01*
X0046871Y0088444D01*
X0046871Y0089886D02*
X0046871Y0085558D01*
X0044707Y0085558D01*
X0043986Y0086280D01*
X0043986Y0087722D01*
X0040361Y0088444D02*
X0040361Y0085558D01*
X0052686Y0087001D02*
X0052686Y0089886D01*
X0055572Y0089886D02*
X0055572Y0087001D01*
X0054129Y0085558D01*
X0052686Y0087001D01*
X0057037Y0087001D02*
X0059922Y0087001D01*
X0059922Y0087722D01*
X0059201Y0088444D01*
X0057758Y0088444D01*
X0057037Y0087722D01*
X0057037Y0086280D01*
X0057758Y0085558D01*
X0059201Y0085558D01*
X0061387Y0085558D02*
X0061387Y0088444D01*
X0062829Y0088444D02*
X0063551Y0088444D01*
X0062829Y0088444D02*
X0061387Y0087001D01*
X0065012Y0087722D02*
X0065733Y0088444D01*
X0067897Y0088444D01*
X0069362Y0088444D02*
X0070083Y0088444D01*
X0070083Y0085558D01*
X0069362Y0085558D02*
X0070805Y0085558D01*
X0072262Y0086280D02*
X0072984Y0085558D01*
X0074426Y0085558D01*
X0075148Y0086280D01*
X0075148Y0087722D01*
X0074426Y0088444D01*
X0072984Y0088444D01*
X0072262Y0087722D01*
X0072262Y0086280D01*
X0067897Y0086280D02*
X0067176Y0085558D01*
X0065012Y0085558D01*
X0065733Y0087001D02*
X0065012Y0087722D01*
X0065733Y0087001D02*
X0067176Y0087001D01*
X0067897Y0086280D01*
X0070083Y0089886D02*
X0070083Y0090608D01*
X0076612Y0088444D02*
X0078776Y0088444D01*
X0079498Y0087722D01*
X0079498Y0085558D01*
X0076612Y0085558D02*
X0076612Y0088444D01*
X0085313Y0088444D02*
X0086755Y0089886D01*
X0086755Y0085558D01*
X0085313Y0085558D02*
X0088198Y0085558D01*
X0089663Y0085558D02*
X0090384Y0085558D01*
X0090384Y0086280D01*
X0089663Y0086280D01*
X0089663Y0085558D01*
X0091838Y0086280D02*
X0094723Y0089165D01*
X0094723Y0086280D01*
X0094002Y0085558D01*
X0092559Y0085558D01*
X0091838Y0086280D01*
X0091838Y0089165D01*
X0092559Y0089886D01*
X0094002Y0089886D01*
X0094723Y0089165D01*
X0115873Y0088705D02*
X0115873Y0084377D01*
X0117316Y0085820D01*
X0118759Y0084377D01*
X0118759Y0088705D01*
X0120223Y0087263D02*
X0121666Y0088705D01*
X0123109Y0087263D01*
X0123109Y0084377D01*
X0124574Y0084377D02*
X0124574Y0088705D01*
X0126738Y0088705D01*
X0127459Y0087984D01*
X0127459Y0086541D01*
X0126738Y0085820D01*
X0124574Y0085820D01*
X0126016Y0085820D02*
X0127459Y0084377D01*
X0128924Y0084377D02*
X0128924Y0088705D01*
X0131809Y0084377D01*
X0131809Y0088705D01*
X0133274Y0088705D02*
X0134717Y0088705D01*
X0133995Y0088705D02*
X0133995Y0084377D01*
X0133274Y0084377D02*
X0134717Y0084377D01*
X0136174Y0084377D02*
X0136174Y0088705D01*
X0139059Y0084377D01*
X0139059Y0088705D01*
X0140524Y0087984D02*
X0140524Y0085099D01*
X0141246Y0084377D01*
X0142688Y0084377D01*
X0143410Y0085099D01*
X0143410Y0086541D01*
X0141967Y0086541D01*
X0143410Y0087984D02*
X0142688Y0088705D01*
X0141246Y0088705D01*
X0140524Y0087984D01*
X0144874Y0089427D02*
X0144874Y0086541D01*
X0144874Y0085099D02*
X0144874Y0084377D01*
X0150675Y0085099D02*
X0151396Y0084377D01*
X0152839Y0084377D01*
X0153560Y0085099D01*
X0153560Y0087984D01*
X0152839Y0088705D01*
X0151396Y0088705D01*
X0150675Y0087984D01*
X0150675Y0085099D01*
X0155025Y0084377D02*
X0155025Y0087263D01*
X0157189Y0087263D01*
X0157910Y0086541D01*
X0157910Y0084377D01*
X0159375Y0084377D02*
X0160818Y0084377D01*
X0160096Y0084377D02*
X0160096Y0088705D01*
X0159375Y0088705D01*
X0162275Y0087263D02*
X0162275Y0085099D01*
X0162996Y0084377D01*
X0165160Y0084377D01*
X0165160Y0083656D02*
X0164439Y0082934D01*
X0163718Y0082934D01*
X0165160Y0083656D02*
X0165160Y0087263D01*
X0170975Y0086541D02*
X0172418Y0086541D01*
X0173876Y0086541D02*
X0173876Y0085099D01*
X0174597Y0084377D01*
X0176040Y0084377D01*
X0176761Y0085099D01*
X0176761Y0086541D01*
X0176040Y0087263D01*
X0174597Y0087263D01*
X0173876Y0086541D01*
X0172418Y0088705D02*
X0171697Y0087984D01*
X0171697Y0084377D01*
X0178226Y0084377D02*
X0178226Y0087263D01*
X0179668Y0087263D02*
X0178226Y0085820D01*
X0179668Y0087263D02*
X0180390Y0087263D01*
X0186201Y0088705D02*
X0187644Y0088705D01*
X0186922Y0088705D02*
X0186922Y0084377D01*
X0186201Y0084377D02*
X0187644Y0084377D01*
X0189101Y0084377D02*
X0191265Y0084377D01*
X0191986Y0085099D01*
X0191986Y0087984D01*
X0191265Y0088705D01*
X0189101Y0088705D01*
X0189101Y0084377D01*
X0193451Y0084377D02*
X0196337Y0084377D01*
X0194894Y0086541D02*
X0193451Y0086541D01*
X0193451Y0088705D02*
X0193451Y0084377D01*
X0202152Y0085099D02*
X0202152Y0086541D01*
X0202873Y0087263D01*
X0205037Y0087263D01*
X0207223Y0087263D02*
X0208666Y0087263D01*
X0209387Y0086541D01*
X0209387Y0084377D01*
X0207223Y0084377D01*
X0206502Y0085099D01*
X0207223Y0085820D01*
X0209387Y0085820D01*
X0210852Y0087263D02*
X0213016Y0087263D01*
X0213737Y0086541D01*
X0213737Y0085099D01*
X0213016Y0084377D01*
X0210852Y0084377D01*
X0210852Y0088705D01*
X0215202Y0088705D02*
X0215923Y0088705D01*
X0215923Y0084377D01*
X0215202Y0084377D02*
X0216645Y0084377D01*
X0218102Y0085099D02*
X0218102Y0086541D01*
X0218824Y0087263D01*
X0220266Y0087263D01*
X0220988Y0086541D01*
X0220988Y0085820D01*
X0218102Y0085820D01*
X0218102Y0085099D02*
X0218824Y0084377D01*
X0220266Y0084377D01*
X0226803Y0085099D02*
X0227524Y0084377D01*
X0229688Y0084377D01*
X0231153Y0085099D02*
X0231153Y0086541D01*
X0231874Y0087263D01*
X0233317Y0087263D01*
X0234038Y0086541D01*
X0234038Y0085099D01*
X0233317Y0084377D01*
X0231874Y0084377D01*
X0231153Y0085099D01*
X0229688Y0087263D02*
X0227524Y0087263D01*
X0226803Y0086541D01*
X0226803Y0085099D01*
X0235503Y0084377D02*
X0235503Y0087263D01*
X0237667Y0087263D01*
X0238388Y0086541D01*
X0238388Y0084377D01*
X0239853Y0084377D02*
X0239853Y0087263D01*
X0242017Y0087263D01*
X0242738Y0086541D01*
X0242738Y0084377D01*
X0244203Y0085099D02*
X0244203Y0086541D01*
X0244925Y0087263D01*
X0246367Y0087263D01*
X0247089Y0086541D01*
X0247089Y0085820D01*
X0244203Y0085820D01*
X0244203Y0085099D02*
X0244925Y0084377D01*
X0246367Y0084377D01*
X0248553Y0085099D02*
X0248553Y0086541D01*
X0249275Y0087263D01*
X0251439Y0087263D01*
X0252904Y0087263D02*
X0254346Y0087263D01*
X0253625Y0087984D02*
X0253625Y0085099D01*
X0254346Y0084377D01*
X0255804Y0084377D02*
X0257246Y0084377D01*
X0256525Y0084377D02*
X0256525Y0087263D01*
X0255804Y0087263D01*
X0256525Y0088705D02*
X0256525Y0089427D01*
X0258704Y0086541D02*
X0258704Y0085099D01*
X0259425Y0084377D01*
X0260868Y0084377D01*
X0261589Y0085099D01*
X0261589Y0086541D01*
X0260868Y0087263D01*
X0259425Y0087263D01*
X0258704Y0086541D01*
X0263054Y0087263D02*
X0263054Y0084377D01*
X0265939Y0084377D02*
X0265939Y0086541D01*
X0265218Y0087263D01*
X0263054Y0087263D01*
X0267404Y0086541D02*
X0267404Y0089427D01*
X0267404Y0085099D02*
X0267404Y0084377D01*
X0251439Y0084377D02*
X0249275Y0084377D01*
X0248553Y0085099D01*
X0205037Y0084377D02*
X0202873Y0084377D01*
X0202152Y0085099D01*
X0196337Y0088705D02*
X0193451Y0088705D01*
X0123109Y0086541D02*
X0120223Y0086541D01*
X0120223Y0087263D02*
X0120223Y0084377D01*
X0340637Y0082406D02*
X0343522Y0078078D01*
X0344987Y0078078D02*
X0347873Y0080963D01*
X0347873Y0081685D01*
X0347151Y0082406D01*
X0345709Y0082406D01*
X0344987Y0081685D01*
X0343522Y0082406D02*
X0340637Y0078078D01*
X0344987Y0078078D02*
X0347873Y0078078D01*
X0346076Y0041067D02*
X0346076Y0036739D01*
X0344633Y0036739D02*
X0347519Y0036739D01*
X0344633Y0039625D02*
X0346076Y0041067D01*
X0343169Y0041067D02*
X0340283Y0036739D01*
X0343169Y0036739D02*
X0340283Y0041067D01*
D12*
X0333573Y0084477D02*
X0333573Y0090883D01*
X0329303Y0090883D02*
X0333573Y0084477D01*
X0329303Y0084477D02*
X0329303Y0090883D01*
X0327141Y0090883D02*
X0325006Y0090883D01*
X0326074Y0090883D02*
X0326074Y0084477D01*
X0327141Y0084477D02*
X0325006Y0084477D01*
X0316399Y0084477D02*
X0314264Y0084477D01*
X0315331Y0084477D02*
X0315331Y0090883D01*
X0314264Y0090883D02*
X0316399Y0090883D01*
X0312088Y0089815D02*
X0311021Y0090883D01*
X0307818Y0090883D01*
X0307818Y0084477D01*
X0311021Y0084477D01*
X0312088Y0085545D01*
X0312088Y0089815D01*
X0305656Y0090883D02*
X0303521Y0090883D01*
X0304589Y0090883D02*
X0304589Y0084477D01*
X0305656Y0084477D02*
X0303521Y0084477D01*
X0301346Y0084477D02*
X0301346Y0090883D01*
X0299211Y0088747D01*
X0297076Y0090883D01*
X0297076Y0084477D01*
X0237320Y0101293D02*
X0237320Y0105563D01*
X0236252Y0106631D01*
X0233049Y0106631D01*
X0233049Y0100225D01*
X0236252Y0100225D01*
X0237320Y0101293D01*
X0230874Y0100225D02*
X0228739Y0102360D01*
X0229806Y0102360D02*
X0226604Y0102360D01*
X0226604Y0100225D02*
X0226604Y0106631D01*
X0229806Y0106631D01*
X0230874Y0105563D01*
X0230874Y0103428D01*
X0229806Y0102360D01*
X0224429Y0103428D02*
X0220158Y0103428D01*
X0220158Y0104496D02*
X0220158Y0100225D01*
X0217983Y0101293D02*
X0217983Y0105563D01*
X0216916Y0106631D01*
X0214780Y0106631D01*
X0213713Y0105563D01*
X0213713Y0101293D01*
X0214780Y0100225D01*
X0216916Y0100225D01*
X0217983Y0101293D01*
X0211538Y0101293D02*
X0211538Y0102360D01*
X0210470Y0103428D01*
X0207267Y0103428D01*
X0205092Y0105563D02*
X0205092Y0106631D01*
X0205092Y0105563D02*
X0202957Y0103428D01*
X0202957Y0100225D01*
X0202957Y0103428D02*
X0200822Y0105563D01*
X0200822Y0106631D01*
X0198647Y0106631D02*
X0194376Y0106631D01*
X0194376Y0100225D01*
X0198647Y0100225D01*
X0196511Y0103428D02*
X0194376Y0103428D01*
X0192201Y0100225D02*
X0188998Y0103428D01*
X0187931Y0102360D02*
X0192201Y0106631D01*
X0187931Y0106631D02*
X0187931Y0100225D01*
X0179310Y0101293D02*
X0178243Y0100225D01*
X0176107Y0100225D01*
X0175040Y0101293D01*
X0175040Y0105563D01*
X0176107Y0106631D01*
X0178243Y0106631D01*
X0179310Y0105563D01*
X0172878Y0106631D02*
X0170743Y0106631D01*
X0171810Y0106631D02*
X0171810Y0100225D01*
X0170743Y0100225D02*
X0172878Y0100225D01*
X0168568Y0101293D02*
X0168568Y0102360D01*
X0167500Y0103428D01*
X0165365Y0103428D01*
X0164297Y0104496D01*
X0164297Y0105563D01*
X0165365Y0106631D01*
X0167500Y0106631D01*
X0168568Y0105563D01*
X0162122Y0106631D02*
X0162122Y0101293D01*
X0161055Y0100225D01*
X0158919Y0100225D01*
X0157852Y0101293D01*
X0157852Y0106631D01*
X0155677Y0106631D02*
X0153541Y0104496D01*
X0151406Y0106631D01*
X0151406Y0100225D01*
X0155677Y0100225D02*
X0155677Y0106631D01*
X0164297Y0101293D02*
X0165365Y0100225D01*
X0167500Y0100225D01*
X0168568Y0101293D01*
X0207267Y0100225D02*
X0210470Y0100225D01*
X0211538Y0101293D01*
X0210470Y0103428D02*
X0211538Y0104496D01*
X0211538Y0105563D01*
X0210470Y0106631D01*
X0207267Y0106631D01*
X0207267Y0100225D01*
X0220158Y0104496D02*
X0222293Y0106631D01*
X0224429Y0104496D01*
X0224429Y0100225D01*
X0113461Y0099491D02*
X0112393Y0098423D01*
X0109191Y0098423D01*
X0111326Y0098423D02*
X0113461Y0096288D01*
X0113461Y0099491D02*
X0113461Y0101626D01*
X0112393Y0102694D01*
X0109191Y0102694D01*
X0109191Y0096288D01*
X0100570Y0097356D02*
X0100570Y0101626D01*
X0099502Y0102694D01*
X0097367Y0102694D01*
X0096300Y0101626D01*
X0096300Y0097356D01*
X0097367Y0096288D01*
X0099502Y0096288D01*
X0100570Y0097356D01*
X0094138Y0096288D02*
X0092003Y0096288D01*
X0093070Y0096288D02*
X0093070Y0102694D01*
X0092003Y0102694D02*
X0094138Y0102694D01*
X0089827Y0101626D02*
X0088760Y0102694D01*
X0085557Y0102694D01*
X0085557Y0096288D01*
X0088760Y0096288D01*
X0089827Y0097356D01*
X0089827Y0101626D01*
X0083382Y0102694D02*
X0083382Y0097356D01*
X0082314Y0096288D01*
X0080179Y0096288D01*
X0079112Y0097356D01*
X0079112Y0102694D01*
X0076936Y0100559D02*
X0076936Y0096288D01*
X0076936Y0099491D02*
X0072666Y0099491D01*
X0072666Y0100559D02*
X0072666Y0096288D01*
X0072666Y0100559D02*
X0074801Y0102694D01*
X0076936Y0100559D01*
X0054406Y0096288D02*
X0050136Y0096288D01*
X0050136Y0102694D01*
X0041515Y0101626D02*
X0040447Y0102694D01*
X0038312Y0102694D01*
X0037245Y0101626D01*
X0037245Y0097356D01*
X0038312Y0096288D01*
X0040447Y0096288D01*
X0041515Y0097356D01*
X0041515Y0101626D01*
X0035083Y0102694D02*
X0032948Y0102694D01*
X0034015Y0102694D02*
X0034015Y0096288D01*
X0032948Y0096288D02*
X0035083Y0096288D01*
X0030772Y0097356D02*
X0030772Y0101626D01*
X0029705Y0102694D01*
X0026502Y0102694D01*
X0026502Y0096288D01*
X0029705Y0096288D01*
X0030772Y0097356D01*
X0024327Y0097356D02*
X0024327Y0102694D01*
X0020057Y0102694D02*
X0020057Y0097356D01*
X0021124Y0096288D01*
X0023259Y0096288D01*
X0024327Y0097356D01*
X0017881Y0096288D02*
X0017881Y0100559D01*
X0015746Y0102694D01*
X0013611Y0100559D01*
X0013611Y0096288D01*
X0013611Y0099491D02*
X0017881Y0099491D01*
X0387627Y0090883D02*
X0387627Y0084477D01*
X0391897Y0084477D02*
X0391897Y0090883D01*
X0389762Y0088747D01*
X0387627Y0090883D01*
X0394072Y0090883D02*
X0396207Y0090883D01*
X0395140Y0090883D02*
X0395140Y0084477D01*
X0396207Y0084477D02*
X0394072Y0084477D01*
X0398369Y0084477D02*
X0401572Y0084477D01*
X0402640Y0085545D01*
X0402640Y0089815D01*
X0401572Y0090883D01*
X0398369Y0090883D01*
X0398369Y0084477D01*
X0404815Y0084477D02*
X0406950Y0084477D01*
X0405882Y0084477D02*
X0405882Y0090883D01*
X0404815Y0090883D02*
X0406950Y0090883D01*
X0415557Y0089815D02*
X0415557Y0085545D01*
X0416625Y0084477D01*
X0418760Y0084477D01*
X0419828Y0085545D01*
X0419828Y0089815D01*
X0418760Y0090883D01*
X0416625Y0090883D01*
X0415557Y0089815D01*
X0422003Y0090883D02*
X0422003Y0085545D01*
X0423070Y0084477D01*
X0425205Y0084477D01*
X0426273Y0085545D01*
X0426273Y0090883D01*
X0428448Y0090883D02*
X0432719Y0090883D01*
X0430583Y0090883D02*
X0430583Y0084477D01*
D13*
X0338148Y0066791D02*
X0335680Y0064322D01*
X0336297Y0063705D01*
X0337531Y0063705D01*
X0338148Y0064322D01*
X0338148Y0066791D01*
X0337531Y0067408D01*
X0336297Y0067408D01*
X0335680Y0066791D01*
X0335680Y0064322D01*
X0334465Y0065557D02*
X0331996Y0065557D01*
X0333848Y0067408D01*
X0333848Y0063705D01*
X0333848Y0057408D02*
X0334465Y0056791D01*
X0334465Y0056174D01*
X0333848Y0055557D01*
X0334465Y0054940D01*
X0334465Y0054322D01*
X0333848Y0053705D01*
X0332614Y0053705D01*
X0331996Y0054322D01*
X0333231Y0055557D02*
X0333848Y0055557D01*
X0333848Y0057408D02*
X0332614Y0057408D01*
X0331996Y0056791D01*
X0335680Y0056791D02*
X0335680Y0056174D01*
X0336297Y0055557D01*
X0338148Y0055557D01*
X0338148Y0056791D02*
X0338148Y0054322D01*
X0337531Y0053705D01*
X0336297Y0053705D01*
X0335680Y0054322D01*
X0335680Y0056791D02*
X0336297Y0057408D01*
X0337531Y0057408D01*
X0338148Y0056791D01*
X0337165Y0027070D02*
X0335930Y0027070D01*
X0335313Y0026452D01*
X0335313Y0025835D01*
X0335930Y0025218D01*
X0337782Y0025218D01*
X0337782Y0023984D02*
X0337782Y0026452D01*
X0337165Y0027070D01*
X0334099Y0026452D02*
X0334099Y0025835D01*
X0333482Y0025218D01*
X0334099Y0024601D01*
X0334099Y0023984D01*
X0333482Y0023367D01*
X0332247Y0023367D01*
X0331630Y0023984D01*
X0332865Y0025218D02*
X0333482Y0025218D01*
X0334099Y0026452D02*
X0333482Y0027070D01*
X0332247Y0027070D01*
X0331630Y0026452D01*
X0335313Y0023984D02*
X0335930Y0023367D01*
X0337165Y0023367D01*
X0337782Y0023984D01*
X0337165Y0016070D02*
X0337782Y0015452D01*
X0335313Y0012984D01*
X0335930Y0012367D01*
X0337165Y0012367D01*
X0337782Y0012984D01*
X0337782Y0015452D01*
X0337165Y0016070D02*
X0335930Y0016070D01*
X0335313Y0015452D01*
X0335313Y0012984D01*
X0334099Y0014218D02*
X0331630Y0014218D01*
X0333482Y0016070D01*
X0333482Y0012367D01*
X0226836Y0039773D02*
X0226164Y0039773D01*
X0224819Y0038428D01*
X0224819Y0037083D02*
X0224819Y0039773D01*
X0223521Y0039100D02*
X0222849Y0039773D01*
X0221504Y0039773D01*
X0220832Y0039100D01*
X0220832Y0037755D01*
X0221504Y0037083D01*
X0222849Y0037083D01*
X0223521Y0037755D01*
X0223521Y0039100D01*
X0219518Y0039773D02*
X0218173Y0039773D01*
X0218846Y0040445D02*
X0218846Y0037755D01*
X0219518Y0037083D01*
X0216875Y0037083D02*
X0214858Y0037083D01*
X0214186Y0037755D01*
X0214186Y0039100D01*
X0214858Y0039773D01*
X0216875Y0039773D01*
X0212887Y0039100D02*
X0212887Y0038428D01*
X0210198Y0038428D01*
X0210198Y0039100D02*
X0210870Y0039773D01*
X0212215Y0039773D01*
X0212887Y0039100D01*
X0212215Y0037083D02*
X0210870Y0037083D01*
X0210198Y0037755D01*
X0210198Y0039100D01*
X0208900Y0039100D02*
X0208900Y0037083D01*
X0208900Y0039100D02*
X0208227Y0039773D01*
X0206210Y0039773D01*
X0206210Y0037083D01*
X0204912Y0037083D02*
X0204912Y0039100D01*
X0204240Y0039773D01*
X0202223Y0039773D01*
X0202223Y0037083D01*
X0200924Y0037755D02*
X0200924Y0039100D01*
X0200252Y0039773D01*
X0198907Y0039773D01*
X0198235Y0039100D01*
X0198235Y0037755D01*
X0198907Y0037083D01*
X0200252Y0037083D01*
X0200924Y0037755D01*
X0196937Y0037083D02*
X0194920Y0037083D01*
X0194247Y0037755D01*
X0194247Y0039100D01*
X0194920Y0039773D01*
X0196937Y0039773D01*
X0188961Y0039100D02*
X0188961Y0037083D01*
X0188961Y0039100D02*
X0188289Y0039773D01*
X0186272Y0039773D01*
X0186272Y0037083D01*
X0184958Y0037083D02*
X0183613Y0037083D01*
X0184286Y0037083D02*
X0184286Y0039773D01*
X0183613Y0039773D01*
X0182315Y0039100D02*
X0182315Y0037755D01*
X0181643Y0037083D01*
X0179626Y0037083D01*
X0179626Y0035738D02*
X0179626Y0039773D01*
X0181643Y0039773D01*
X0182315Y0039100D01*
X0184286Y0041117D02*
X0184286Y0041790D01*
X0174340Y0039100D02*
X0174340Y0038428D01*
X0171650Y0038428D01*
X0171650Y0039100D02*
X0172323Y0039773D01*
X0173668Y0039773D01*
X0174340Y0039100D01*
X0173668Y0037083D02*
X0172323Y0037083D01*
X0171650Y0037755D01*
X0171650Y0039100D01*
X0170337Y0037083D02*
X0168992Y0037083D01*
X0169664Y0037083D02*
X0169664Y0041117D01*
X0168992Y0041117D01*
X0167694Y0039773D02*
X0165677Y0039773D01*
X0165004Y0039100D01*
X0165004Y0037755D01*
X0165677Y0037083D01*
X0167694Y0037083D01*
X0167694Y0036411D02*
X0167694Y0039773D01*
X0167694Y0036411D02*
X0167021Y0035738D01*
X0166349Y0035738D01*
X0163706Y0037083D02*
X0163706Y0039100D01*
X0163034Y0039773D01*
X0161017Y0039773D01*
X0161017Y0037083D01*
X0159718Y0037083D02*
X0159718Y0039100D01*
X0159046Y0039773D01*
X0157701Y0039773D01*
X0157701Y0038428D02*
X0159718Y0038428D01*
X0159718Y0037083D02*
X0157701Y0037083D01*
X0157029Y0037755D01*
X0157701Y0038428D01*
X0151743Y0037083D02*
X0149054Y0037083D01*
X0149054Y0041117D01*
X0151743Y0041117D01*
X0150398Y0039100D02*
X0149054Y0039100D01*
X0147755Y0037755D02*
X0147083Y0037083D01*
X0145066Y0037083D01*
X0145066Y0041117D01*
X0147083Y0041117D01*
X0147755Y0040445D01*
X0147755Y0037755D01*
X0143752Y0037083D02*
X0142408Y0037083D01*
X0143080Y0037083D02*
X0143080Y0041117D01*
X0142408Y0041117D02*
X0143752Y0041117D01*
X0137122Y0039100D02*
X0137122Y0038428D01*
X0134432Y0038428D01*
X0134432Y0039100D02*
X0135105Y0039773D01*
X0136449Y0039773D01*
X0137122Y0039100D01*
X0136449Y0037083D02*
X0135105Y0037083D01*
X0134432Y0037755D01*
X0134432Y0039100D01*
X0133119Y0037083D02*
X0131774Y0037083D01*
X0132446Y0037083D02*
X0132446Y0041117D01*
X0131774Y0041117D01*
X0129803Y0039773D02*
X0128459Y0039773D01*
X0129803Y0039773D02*
X0130476Y0039100D01*
X0130476Y0037083D01*
X0128459Y0037083D01*
X0127786Y0037755D01*
X0128459Y0038428D01*
X0130476Y0038428D01*
X0126488Y0039100D02*
X0126488Y0037083D01*
X0125143Y0037083D02*
X0125143Y0039100D01*
X0125816Y0039773D01*
X0126488Y0039100D01*
X0125143Y0039100D02*
X0124471Y0039773D01*
X0123799Y0039773D01*
X0123799Y0037083D01*
X0122500Y0038428D02*
X0119811Y0038428D01*
X0119811Y0039100D02*
X0120483Y0039773D01*
X0121828Y0039773D01*
X0122500Y0039100D01*
X0122500Y0038428D01*
X0121828Y0037083D02*
X0120483Y0037083D01*
X0119811Y0037755D01*
X0119811Y0039100D01*
X0118513Y0041117D02*
X0115823Y0041117D01*
X0115823Y0037083D01*
X0115823Y0039100D02*
X0117168Y0039100D01*
X0125231Y0026070D02*
X0125231Y0022367D01*
X0126465Y0022367D02*
X0123996Y0022367D01*
X0123996Y0024835D02*
X0125231Y0026070D01*
X0125848Y0016070D02*
X0124614Y0016070D01*
X0123996Y0015452D01*
X0125848Y0016070D02*
X0126465Y0015452D01*
X0126465Y0014835D01*
X0123996Y0012367D01*
X0126465Y0012367D01*
X0126465Y0053705D02*
X0123996Y0053705D01*
X0125231Y0053705D02*
X0125231Y0057408D01*
X0123996Y0056174D01*
X0123996Y0063705D02*
X0126465Y0066174D01*
X0126465Y0066791D01*
X0125848Y0067408D01*
X0124614Y0067408D01*
X0123996Y0066791D01*
X0123996Y0063705D02*
X0126465Y0063705D01*
X0127129Y0078422D02*
X0126457Y0079094D01*
X0126457Y0080439D01*
X0127129Y0081111D01*
X0128474Y0081111D01*
X0129146Y0080439D01*
X0129146Y0079766D01*
X0126457Y0079766D01*
X0127129Y0078422D02*
X0128474Y0078422D01*
X0125143Y0078422D02*
X0123799Y0078422D01*
X0124471Y0078422D02*
X0124471Y0082456D01*
X0123799Y0082456D01*
X0121828Y0081111D02*
X0122500Y0080439D01*
X0122500Y0078422D01*
X0120483Y0078422D01*
X0119811Y0079094D01*
X0120483Y0079766D01*
X0122500Y0079766D01*
X0121828Y0081111D02*
X0120483Y0081111D01*
X0118513Y0082456D02*
X0118513Y0078422D01*
X0115823Y0078422D02*
X0115823Y0082456D01*
X0117168Y0081111D01*
X0118513Y0082456D01*
X0134432Y0082456D02*
X0135777Y0082456D01*
X0135105Y0082456D02*
X0135105Y0078422D01*
X0135777Y0078422D02*
X0134432Y0078422D01*
X0137091Y0078422D02*
X0139108Y0078422D01*
X0139780Y0079094D01*
X0139780Y0081783D01*
X0139108Y0082456D01*
X0137091Y0082456D01*
X0137091Y0078422D01*
X0141078Y0078422D02*
X0143768Y0078422D01*
X0142423Y0080439D02*
X0141078Y0080439D01*
X0141078Y0082456D02*
X0141078Y0078422D01*
X0141078Y0082456D02*
X0143768Y0082456D01*
X0149054Y0080439D02*
X0149726Y0081111D01*
X0151743Y0081111D01*
X0153041Y0081111D02*
X0154386Y0081111D01*
X0153714Y0081783D02*
X0153714Y0079094D01*
X0154386Y0078422D01*
X0155700Y0078422D02*
X0155700Y0081111D01*
X0155700Y0079766D02*
X0157045Y0081111D01*
X0157717Y0081111D01*
X0159695Y0081111D02*
X0161040Y0081111D01*
X0161712Y0080439D01*
X0161712Y0078422D01*
X0159695Y0078422D01*
X0159023Y0079094D01*
X0159695Y0079766D01*
X0161712Y0079766D01*
X0163011Y0078422D02*
X0164355Y0078422D01*
X0163683Y0078422D02*
X0163683Y0081111D01*
X0163011Y0081111D01*
X0163683Y0082456D02*
X0163683Y0083128D01*
X0166341Y0081111D02*
X0165669Y0080439D01*
X0165669Y0079094D01*
X0166341Y0078422D01*
X0168358Y0078422D01*
X0168358Y0077749D02*
X0168358Y0081111D01*
X0166341Y0081111D01*
X0169657Y0080439D02*
X0170329Y0081111D01*
X0171674Y0081111D01*
X0172346Y0080439D01*
X0172346Y0078422D01*
X0174317Y0079094D02*
X0174989Y0078422D01*
X0174317Y0079094D02*
X0174317Y0081783D01*
X0174989Y0081111D02*
X0173644Y0081111D01*
X0169657Y0082456D02*
X0169657Y0078422D01*
X0168358Y0077749D02*
X0167686Y0077077D01*
X0167014Y0077077D01*
X0180290Y0077077D02*
X0180290Y0081111D01*
X0182307Y0081111D01*
X0182980Y0080439D01*
X0182980Y0079094D01*
X0182307Y0078422D01*
X0180290Y0078422D01*
X0184278Y0078422D02*
X0185623Y0078422D01*
X0184950Y0078422D02*
X0184950Y0081111D01*
X0184278Y0081111D01*
X0184950Y0082456D02*
X0184950Y0083128D01*
X0186936Y0081111D02*
X0188954Y0081111D01*
X0189626Y0080439D01*
X0189626Y0078422D01*
X0186936Y0078422D02*
X0186936Y0081111D01*
X0194912Y0080439D02*
X0194912Y0079094D01*
X0195584Y0078422D01*
X0197601Y0078422D01*
X0198899Y0079094D02*
X0198899Y0080439D01*
X0199572Y0081111D01*
X0200917Y0081111D01*
X0201589Y0080439D01*
X0201589Y0079094D01*
X0200917Y0078422D01*
X0199572Y0078422D01*
X0198899Y0079094D01*
X0197601Y0081111D02*
X0195584Y0081111D01*
X0194912Y0080439D01*
X0202887Y0081111D02*
X0202887Y0078422D01*
X0202887Y0081111D02*
X0204904Y0081111D01*
X0205577Y0080439D01*
X0205577Y0078422D01*
X0206875Y0078422D02*
X0206875Y0081111D01*
X0208892Y0081111D01*
X0209564Y0080439D01*
X0209564Y0078422D01*
X0210862Y0079094D02*
X0210862Y0080439D01*
X0211535Y0081111D01*
X0212880Y0081111D01*
X0213552Y0080439D01*
X0213552Y0079766D01*
X0210862Y0079766D01*
X0210862Y0079094D02*
X0211535Y0078422D01*
X0212880Y0078422D01*
X0214850Y0079094D02*
X0215522Y0078422D01*
X0217540Y0078422D01*
X0219510Y0079094D02*
X0220182Y0078422D01*
X0219510Y0079094D02*
X0219510Y0081783D01*
X0218838Y0081111D02*
X0220182Y0081111D01*
X0221496Y0080439D02*
X0221496Y0079094D01*
X0222169Y0078422D01*
X0223513Y0078422D01*
X0224186Y0079094D01*
X0224186Y0080439D01*
X0223513Y0081111D01*
X0222169Y0081111D01*
X0221496Y0080439D01*
X0217540Y0081111D02*
X0215522Y0081111D01*
X0214850Y0080439D01*
X0214850Y0079094D01*
X0225484Y0078422D02*
X0225484Y0081111D01*
X0226829Y0081111D02*
X0227501Y0081111D01*
X0226829Y0081111D02*
X0225484Y0079766D01*
X0151743Y0079094D02*
X0151071Y0079766D01*
X0149726Y0079766D01*
X0149054Y0080439D01*
X0149054Y0078422D02*
X0151071Y0078422D01*
X0151743Y0079094D01*
D14*
X0314650Y0113311D02*
X0314728Y0113311D01*
X0409138Y0113311D02*
X0409217Y0113311D01*
D15*
X0450949Y0097602D02*
X0450949Y0162484D01*
X0367484Y0162484D01*
X0367484Y0097602D01*
X0450949Y0097602D01*
X0356461Y0097602D02*
X0356461Y0162484D01*
X0272996Y0162484D01*
X0272996Y0097602D01*
X0356461Y0097602D01*
X0345043Y0076697D02*
X0341894Y0073547D01*
X0341894Y0047563D01*
X0345043Y0044413D01*
X0345043Y0076697D01*
X0114650Y0076697D01*
X0117799Y0073547D01*
X0341894Y0073547D01*
X0341894Y0047563D02*
X0237327Y0047563D01*
X0237327Y0047484D02*
X0237327Y0044689D01*
X0222366Y0044689D02*
X0222366Y0047484D01*
X0222366Y0047563D02*
X0117799Y0047563D01*
X0114650Y0044413D01*
X0345043Y0044413D01*
X0345043Y0035358D02*
X0341894Y0032209D01*
X0341894Y0006224D01*
X0345043Y0003075D01*
X0345043Y0035358D01*
X0114650Y0035358D01*
X0117799Y0032209D01*
X0341894Y0032209D01*
X0341894Y0006224D02*
X0117799Y0006224D01*
X0114650Y0003075D01*
X0345043Y0003075D01*
X0117799Y0006224D02*
X0117799Y0032209D01*
X0114650Y0035358D02*
X0114650Y0003075D01*
X0114650Y0044413D02*
X0114650Y0076697D01*
X0117799Y0073547D02*
X0117799Y0047563D01*
X0111343Y0108193D02*
X0072760Y0108193D01*
X0107406Y0108193D01*
X0111343Y0108193D02*
X0111343Y0162524D01*
X0111343Y0125909D01*
X0127484Y0111736D02*
X0261343Y0111736D01*
X0261343Y0162917D01*
X0127484Y0162917D01*
X0127484Y0111736D01*
X0072760Y0108193D02*
X0072760Y0162524D01*
X0111343Y0162524D01*
X0107996Y0162917D02*
X0107996Y0195988D01*
X0107997Y0195988D02*
X0107995Y0196074D01*
X0107990Y0196160D01*
X0107980Y0196245D01*
X0107967Y0196330D01*
X0107950Y0196414D01*
X0107930Y0196498D01*
X0107906Y0196580D01*
X0107878Y0196661D01*
X0107847Y0196742D01*
X0107813Y0196820D01*
X0107775Y0196897D01*
X0107733Y0196973D01*
X0107689Y0197046D01*
X0107641Y0197117D01*
X0107590Y0197187D01*
X0107536Y0197254D01*
X0107480Y0197318D01*
X0107420Y0197380D01*
X0107358Y0197440D01*
X0107294Y0197496D01*
X0107227Y0197550D01*
X0107157Y0197601D01*
X0107086Y0197649D01*
X0107013Y0197693D01*
X0106937Y0197735D01*
X0106860Y0197773D01*
X0106782Y0197807D01*
X0106701Y0197838D01*
X0106620Y0197866D01*
X0106538Y0197890D01*
X0106454Y0197910D01*
X0106370Y0197927D01*
X0106285Y0197940D01*
X0106200Y0197950D01*
X0106114Y0197955D01*
X0106028Y0197957D01*
X0078075Y0197957D01*
X0077989Y0197955D01*
X0077903Y0197950D01*
X0077818Y0197940D01*
X0077733Y0197927D01*
X0077649Y0197910D01*
X0077565Y0197890D01*
X0077483Y0197866D01*
X0077402Y0197838D01*
X0077321Y0197807D01*
X0077243Y0197773D01*
X0077166Y0197735D01*
X0077091Y0197693D01*
X0077017Y0197649D01*
X0076946Y0197601D01*
X0076876Y0197550D01*
X0076809Y0197496D01*
X0076745Y0197440D01*
X0076683Y0197380D01*
X0076623Y0197318D01*
X0076567Y0197254D01*
X0076513Y0197187D01*
X0076462Y0197117D01*
X0076414Y0197046D01*
X0076370Y0196973D01*
X0076328Y0196897D01*
X0076290Y0196820D01*
X0076256Y0196742D01*
X0076225Y0196661D01*
X0076197Y0196580D01*
X0076173Y0196498D01*
X0076153Y0196414D01*
X0076136Y0196330D01*
X0076123Y0196245D01*
X0076113Y0196160D01*
X0076108Y0196074D01*
X0076106Y0195988D01*
X0076106Y0162917D01*
X0052287Y0162524D02*
X0052287Y0125909D01*
X0052287Y0108193D02*
X0013705Y0108193D01*
X0048350Y0108193D01*
X0052287Y0108193D02*
X0052287Y0162524D01*
X0013705Y0162524D01*
X0013705Y0108193D01*
X0017051Y0162917D02*
X0017051Y0195988D01*
X0017053Y0196074D01*
X0017058Y0196160D01*
X0017068Y0196245D01*
X0017081Y0196330D01*
X0017098Y0196414D01*
X0017118Y0196498D01*
X0017142Y0196580D01*
X0017170Y0196661D01*
X0017201Y0196742D01*
X0017235Y0196820D01*
X0017273Y0196897D01*
X0017315Y0196973D01*
X0017359Y0197046D01*
X0017407Y0197117D01*
X0017458Y0197187D01*
X0017512Y0197254D01*
X0017568Y0197318D01*
X0017628Y0197380D01*
X0017690Y0197440D01*
X0017754Y0197496D01*
X0017821Y0197550D01*
X0017891Y0197601D01*
X0017962Y0197649D01*
X0018036Y0197693D01*
X0018111Y0197735D01*
X0018188Y0197773D01*
X0018266Y0197807D01*
X0018347Y0197838D01*
X0018428Y0197866D01*
X0018510Y0197890D01*
X0018594Y0197910D01*
X0018678Y0197927D01*
X0018763Y0197940D01*
X0018848Y0197950D01*
X0018934Y0197955D01*
X0019020Y0197957D01*
X0046972Y0197957D01*
X0047058Y0197955D01*
X0047144Y0197950D01*
X0047229Y0197940D01*
X0047314Y0197927D01*
X0047398Y0197910D01*
X0047482Y0197890D01*
X0047564Y0197866D01*
X0047645Y0197838D01*
X0047726Y0197807D01*
X0047804Y0197773D01*
X0047881Y0197735D01*
X0047957Y0197693D01*
X0048030Y0197649D01*
X0048101Y0197601D01*
X0048171Y0197550D01*
X0048238Y0197496D01*
X0048302Y0197440D01*
X0048364Y0197380D01*
X0048424Y0197318D01*
X0048480Y0197254D01*
X0048534Y0197187D01*
X0048585Y0197117D01*
X0048633Y0197046D01*
X0048677Y0196973D01*
X0048719Y0196897D01*
X0048757Y0196820D01*
X0048791Y0196742D01*
X0048822Y0196661D01*
X0048850Y0196580D01*
X0048874Y0196498D01*
X0048894Y0196414D01*
X0048911Y0196330D01*
X0048924Y0196245D01*
X0048934Y0196160D01*
X0048939Y0196074D01*
X0048941Y0195988D01*
X0048941Y0162917D01*
X0186933Y0162366D02*
X0186933Y0143390D01*
X0201894Y0143390D01*
X0201894Y0162366D01*
D16*
X0104059Y0147169D02*
X0104061Y0147274D01*
X0104067Y0147379D01*
X0104077Y0147483D01*
X0104091Y0147587D01*
X0104109Y0147691D01*
X0104131Y0147793D01*
X0104156Y0147895D01*
X0104186Y0147996D01*
X0104219Y0148095D01*
X0104256Y0148193D01*
X0104297Y0148290D01*
X0104342Y0148385D01*
X0104390Y0148478D01*
X0104441Y0148570D01*
X0104497Y0148659D01*
X0104555Y0148746D01*
X0104617Y0148831D01*
X0104681Y0148914D01*
X0104749Y0148994D01*
X0104820Y0149071D01*
X0104894Y0149145D01*
X0104971Y0149217D01*
X0105050Y0149286D01*
X0105132Y0149351D01*
X0105216Y0149414D01*
X0105303Y0149473D01*
X0105392Y0149529D01*
X0105483Y0149582D01*
X0105576Y0149631D01*
X0105670Y0149676D01*
X0105766Y0149718D01*
X0105864Y0149756D01*
X0105963Y0149790D01*
X0106064Y0149821D01*
X0106165Y0149847D01*
X0106268Y0149870D01*
X0106371Y0149889D01*
X0106475Y0149904D01*
X0106579Y0149915D01*
X0106684Y0149922D01*
X0106789Y0149925D01*
X0106894Y0149924D01*
X0106999Y0149919D01*
X0107103Y0149910D01*
X0107207Y0149897D01*
X0107311Y0149880D01*
X0107414Y0149859D01*
X0107516Y0149834D01*
X0107617Y0149806D01*
X0107716Y0149773D01*
X0107815Y0149737D01*
X0107912Y0149697D01*
X0108007Y0149654D01*
X0108101Y0149606D01*
X0108193Y0149556D01*
X0108283Y0149502D01*
X0108371Y0149444D01*
X0108456Y0149383D01*
X0108539Y0149319D01*
X0108620Y0149252D01*
X0108698Y0149182D01*
X0108773Y0149108D01*
X0108845Y0149033D01*
X0108915Y0148954D01*
X0108981Y0148873D01*
X0109045Y0148789D01*
X0109105Y0148703D01*
X0109161Y0148615D01*
X0109215Y0148524D01*
X0109265Y0148432D01*
X0109311Y0148338D01*
X0109354Y0148242D01*
X0109393Y0148144D01*
X0109428Y0148046D01*
X0109459Y0147945D01*
X0109487Y0147844D01*
X0109511Y0147742D01*
X0109531Y0147639D01*
X0109547Y0147535D01*
X0109559Y0147431D01*
X0109567Y0147326D01*
X0109571Y0147221D01*
X0109571Y0147117D01*
X0109567Y0147012D01*
X0109559Y0146907D01*
X0109547Y0146803D01*
X0109531Y0146699D01*
X0109511Y0146596D01*
X0109487Y0146494D01*
X0109459Y0146393D01*
X0109428Y0146292D01*
X0109393Y0146194D01*
X0109354Y0146096D01*
X0109311Y0146000D01*
X0109265Y0145906D01*
X0109215Y0145814D01*
X0109161Y0145723D01*
X0109105Y0145635D01*
X0109045Y0145549D01*
X0108981Y0145465D01*
X0108915Y0145384D01*
X0108845Y0145305D01*
X0108773Y0145230D01*
X0108698Y0145156D01*
X0108620Y0145086D01*
X0108539Y0145019D01*
X0108456Y0144955D01*
X0108371Y0144894D01*
X0108283Y0144836D01*
X0108193Y0144782D01*
X0108101Y0144732D01*
X0108007Y0144684D01*
X0107912Y0144641D01*
X0107815Y0144601D01*
X0107716Y0144565D01*
X0107617Y0144532D01*
X0107516Y0144504D01*
X0107414Y0144479D01*
X0107311Y0144458D01*
X0107207Y0144441D01*
X0107103Y0144428D01*
X0106999Y0144419D01*
X0106894Y0144414D01*
X0106789Y0144413D01*
X0106684Y0144416D01*
X0106579Y0144423D01*
X0106475Y0144434D01*
X0106371Y0144449D01*
X0106268Y0144468D01*
X0106165Y0144491D01*
X0106064Y0144517D01*
X0105963Y0144548D01*
X0105864Y0144582D01*
X0105766Y0144620D01*
X0105670Y0144662D01*
X0105576Y0144707D01*
X0105483Y0144756D01*
X0105392Y0144809D01*
X0105303Y0144865D01*
X0105216Y0144924D01*
X0105132Y0144987D01*
X0105050Y0145052D01*
X0104971Y0145121D01*
X0104894Y0145193D01*
X0104820Y0145267D01*
X0104749Y0145344D01*
X0104681Y0145424D01*
X0104617Y0145507D01*
X0104555Y0145592D01*
X0104497Y0145679D01*
X0104441Y0145768D01*
X0104390Y0145860D01*
X0104342Y0145953D01*
X0104297Y0146048D01*
X0104256Y0146145D01*
X0104219Y0146243D01*
X0104186Y0146342D01*
X0104156Y0146443D01*
X0104131Y0146545D01*
X0104109Y0146647D01*
X0104091Y0146751D01*
X0104077Y0146855D01*
X0104067Y0146959D01*
X0104061Y0147064D01*
X0104059Y0147169D01*
X0074531Y0147169D02*
X0074533Y0147274D01*
X0074539Y0147379D01*
X0074549Y0147483D01*
X0074563Y0147587D01*
X0074581Y0147691D01*
X0074603Y0147793D01*
X0074628Y0147895D01*
X0074658Y0147996D01*
X0074691Y0148095D01*
X0074728Y0148193D01*
X0074769Y0148290D01*
X0074814Y0148385D01*
X0074862Y0148478D01*
X0074913Y0148570D01*
X0074969Y0148659D01*
X0075027Y0148746D01*
X0075089Y0148831D01*
X0075153Y0148914D01*
X0075221Y0148994D01*
X0075292Y0149071D01*
X0075366Y0149145D01*
X0075443Y0149217D01*
X0075522Y0149286D01*
X0075604Y0149351D01*
X0075688Y0149414D01*
X0075775Y0149473D01*
X0075864Y0149529D01*
X0075955Y0149582D01*
X0076048Y0149631D01*
X0076142Y0149676D01*
X0076238Y0149718D01*
X0076336Y0149756D01*
X0076435Y0149790D01*
X0076536Y0149821D01*
X0076637Y0149847D01*
X0076740Y0149870D01*
X0076843Y0149889D01*
X0076947Y0149904D01*
X0077051Y0149915D01*
X0077156Y0149922D01*
X0077261Y0149925D01*
X0077366Y0149924D01*
X0077471Y0149919D01*
X0077575Y0149910D01*
X0077679Y0149897D01*
X0077783Y0149880D01*
X0077886Y0149859D01*
X0077988Y0149834D01*
X0078089Y0149806D01*
X0078188Y0149773D01*
X0078287Y0149737D01*
X0078384Y0149697D01*
X0078479Y0149654D01*
X0078573Y0149606D01*
X0078665Y0149556D01*
X0078755Y0149502D01*
X0078843Y0149444D01*
X0078928Y0149383D01*
X0079011Y0149319D01*
X0079092Y0149252D01*
X0079170Y0149182D01*
X0079245Y0149108D01*
X0079317Y0149033D01*
X0079387Y0148954D01*
X0079453Y0148873D01*
X0079517Y0148789D01*
X0079577Y0148703D01*
X0079633Y0148615D01*
X0079687Y0148524D01*
X0079737Y0148432D01*
X0079783Y0148338D01*
X0079826Y0148242D01*
X0079865Y0148144D01*
X0079900Y0148046D01*
X0079931Y0147945D01*
X0079959Y0147844D01*
X0079983Y0147742D01*
X0080003Y0147639D01*
X0080019Y0147535D01*
X0080031Y0147431D01*
X0080039Y0147326D01*
X0080043Y0147221D01*
X0080043Y0147117D01*
X0080039Y0147012D01*
X0080031Y0146907D01*
X0080019Y0146803D01*
X0080003Y0146699D01*
X0079983Y0146596D01*
X0079959Y0146494D01*
X0079931Y0146393D01*
X0079900Y0146292D01*
X0079865Y0146194D01*
X0079826Y0146096D01*
X0079783Y0146000D01*
X0079737Y0145906D01*
X0079687Y0145814D01*
X0079633Y0145723D01*
X0079577Y0145635D01*
X0079517Y0145549D01*
X0079453Y0145465D01*
X0079387Y0145384D01*
X0079317Y0145305D01*
X0079245Y0145230D01*
X0079170Y0145156D01*
X0079092Y0145086D01*
X0079011Y0145019D01*
X0078928Y0144955D01*
X0078843Y0144894D01*
X0078755Y0144836D01*
X0078665Y0144782D01*
X0078573Y0144732D01*
X0078479Y0144684D01*
X0078384Y0144641D01*
X0078287Y0144601D01*
X0078188Y0144565D01*
X0078089Y0144532D01*
X0077988Y0144504D01*
X0077886Y0144479D01*
X0077783Y0144458D01*
X0077679Y0144441D01*
X0077575Y0144428D01*
X0077471Y0144419D01*
X0077366Y0144414D01*
X0077261Y0144413D01*
X0077156Y0144416D01*
X0077051Y0144423D01*
X0076947Y0144434D01*
X0076843Y0144449D01*
X0076740Y0144468D01*
X0076637Y0144491D01*
X0076536Y0144517D01*
X0076435Y0144548D01*
X0076336Y0144582D01*
X0076238Y0144620D01*
X0076142Y0144662D01*
X0076048Y0144707D01*
X0075955Y0144756D01*
X0075864Y0144809D01*
X0075775Y0144865D01*
X0075688Y0144924D01*
X0075604Y0144987D01*
X0075522Y0145052D01*
X0075443Y0145121D01*
X0075366Y0145193D01*
X0075292Y0145267D01*
X0075221Y0145344D01*
X0075153Y0145424D01*
X0075089Y0145507D01*
X0075027Y0145592D01*
X0074969Y0145679D01*
X0074913Y0145768D01*
X0074862Y0145860D01*
X0074814Y0145953D01*
X0074769Y0146048D01*
X0074728Y0146145D01*
X0074691Y0146243D01*
X0074658Y0146342D01*
X0074628Y0146443D01*
X0074603Y0146545D01*
X0074581Y0146647D01*
X0074563Y0146751D01*
X0074549Y0146855D01*
X0074539Y0146959D01*
X0074533Y0147064D01*
X0074531Y0147169D01*
X0045004Y0147169D02*
X0045006Y0147274D01*
X0045012Y0147379D01*
X0045022Y0147483D01*
X0045036Y0147587D01*
X0045054Y0147691D01*
X0045076Y0147793D01*
X0045101Y0147895D01*
X0045131Y0147996D01*
X0045164Y0148095D01*
X0045201Y0148193D01*
X0045242Y0148290D01*
X0045287Y0148385D01*
X0045335Y0148478D01*
X0045386Y0148570D01*
X0045442Y0148659D01*
X0045500Y0148746D01*
X0045562Y0148831D01*
X0045626Y0148914D01*
X0045694Y0148994D01*
X0045765Y0149071D01*
X0045839Y0149145D01*
X0045916Y0149217D01*
X0045995Y0149286D01*
X0046077Y0149351D01*
X0046161Y0149414D01*
X0046248Y0149473D01*
X0046337Y0149529D01*
X0046428Y0149582D01*
X0046521Y0149631D01*
X0046615Y0149676D01*
X0046711Y0149718D01*
X0046809Y0149756D01*
X0046908Y0149790D01*
X0047009Y0149821D01*
X0047110Y0149847D01*
X0047213Y0149870D01*
X0047316Y0149889D01*
X0047420Y0149904D01*
X0047524Y0149915D01*
X0047629Y0149922D01*
X0047734Y0149925D01*
X0047839Y0149924D01*
X0047944Y0149919D01*
X0048048Y0149910D01*
X0048152Y0149897D01*
X0048256Y0149880D01*
X0048359Y0149859D01*
X0048461Y0149834D01*
X0048562Y0149806D01*
X0048661Y0149773D01*
X0048760Y0149737D01*
X0048857Y0149697D01*
X0048952Y0149654D01*
X0049046Y0149606D01*
X0049138Y0149556D01*
X0049228Y0149502D01*
X0049316Y0149444D01*
X0049401Y0149383D01*
X0049484Y0149319D01*
X0049565Y0149252D01*
X0049643Y0149182D01*
X0049718Y0149108D01*
X0049790Y0149033D01*
X0049860Y0148954D01*
X0049926Y0148873D01*
X0049990Y0148789D01*
X0050050Y0148703D01*
X0050106Y0148615D01*
X0050160Y0148524D01*
X0050210Y0148432D01*
X0050256Y0148338D01*
X0050299Y0148242D01*
X0050338Y0148144D01*
X0050373Y0148046D01*
X0050404Y0147945D01*
X0050432Y0147844D01*
X0050456Y0147742D01*
X0050476Y0147639D01*
X0050492Y0147535D01*
X0050504Y0147431D01*
X0050512Y0147326D01*
X0050516Y0147221D01*
X0050516Y0147117D01*
X0050512Y0147012D01*
X0050504Y0146907D01*
X0050492Y0146803D01*
X0050476Y0146699D01*
X0050456Y0146596D01*
X0050432Y0146494D01*
X0050404Y0146393D01*
X0050373Y0146292D01*
X0050338Y0146194D01*
X0050299Y0146096D01*
X0050256Y0146000D01*
X0050210Y0145906D01*
X0050160Y0145814D01*
X0050106Y0145723D01*
X0050050Y0145635D01*
X0049990Y0145549D01*
X0049926Y0145465D01*
X0049860Y0145384D01*
X0049790Y0145305D01*
X0049718Y0145230D01*
X0049643Y0145156D01*
X0049565Y0145086D01*
X0049484Y0145019D01*
X0049401Y0144955D01*
X0049316Y0144894D01*
X0049228Y0144836D01*
X0049138Y0144782D01*
X0049046Y0144732D01*
X0048952Y0144684D01*
X0048857Y0144641D01*
X0048760Y0144601D01*
X0048661Y0144565D01*
X0048562Y0144532D01*
X0048461Y0144504D01*
X0048359Y0144479D01*
X0048256Y0144458D01*
X0048152Y0144441D01*
X0048048Y0144428D01*
X0047944Y0144419D01*
X0047839Y0144414D01*
X0047734Y0144413D01*
X0047629Y0144416D01*
X0047524Y0144423D01*
X0047420Y0144434D01*
X0047316Y0144449D01*
X0047213Y0144468D01*
X0047110Y0144491D01*
X0047009Y0144517D01*
X0046908Y0144548D01*
X0046809Y0144582D01*
X0046711Y0144620D01*
X0046615Y0144662D01*
X0046521Y0144707D01*
X0046428Y0144756D01*
X0046337Y0144809D01*
X0046248Y0144865D01*
X0046161Y0144924D01*
X0046077Y0144987D01*
X0045995Y0145052D01*
X0045916Y0145121D01*
X0045839Y0145193D01*
X0045765Y0145267D01*
X0045694Y0145344D01*
X0045626Y0145424D01*
X0045562Y0145507D01*
X0045500Y0145592D01*
X0045442Y0145679D01*
X0045386Y0145768D01*
X0045335Y0145860D01*
X0045287Y0145953D01*
X0045242Y0146048D01*
X0045201Y0146145D01*
X0045164Y0146243D01*
X0045131Y0146342D01*
X0045101Y0146443D01*
X0045076Y0146545D01*
X0045054Y0146647D01*
X0045036Y0146751D01*
X0045022Y0146855D01*
X0045012Y0146959D01*
X0045006Y0147064D01*
X0045004Y0147169D01*
X0015476Y0147169D02*
X0015478Y0147274D01*
X0015484Y0147379D01*
X0015494Y0147483D01*
X0015508Y0147587D01*
X0015526Y0147691D01*
X0015548Y0147793D01*
X0015573Y0147895D01*
X0015603Y0147996D01*
X0015636Y0148095D01*
X0015673Y0148193D01*
X0015714Y0148290D01*
X0015759Y0148385D01*
X0015807Y0148478D01*
X0015858Y0148570D01*
X0015914Y0148659D01*
X0015972Y0148746D01*
X0016034Y0148831D01*
X0016098Y0148914D01*
X0016166Y0148994D01*
X0016237Y0149071D01*
X0016311Y0149145D01*
X0016388Y0149217D01*
X0016467Y0149286D01*
X0016549Y0149351D01*
X0016633Y0149414D01*
X0016720Y0149473D01*
X0016809Y0149529D01*
X0016900Y0149582D01*
X0016993Y0149631D01*
X0017087Y0149676D01*
X0017183Y0149718D01*
X0017281Y0149756D01*
X0017380Y0149790D01*
X0017481Y0149821D01*
X0017582Y0149847D01*
X0017685Y0149870D01*
X0017788Y0149889D01*
X0017892Y0149904D01*
X0017996Y0149915D01*
X0018101Y0149922D01*
X0018206Y0149925D01*
X0018311Y0149924D01*
X0018416Y0149919D01*
X0018520Y0149910D01*
X0018624Y0149897D01*
X0018728Y0149880D01*
X0018831Y0149859D01*
X0018933Y0149834D01*
X0019034Y0149806D01*
X0019133Y0149773D01*
X0019232Y0149737D01*
X0019329Y0149697D01*
X0019424Y0149654D01*
X0019518Y0149606D01*
X0019610Y0149556D01*
X0019700Y0149502D01*
X0019788Y0149444D01*
X0019873Y0149383D01*
X0019956Y0149319D01*
X0020037Y0149252D01*
X0020115Y0149182D01*
X0020190Y0149108D01*
X0020262Y0149033D01*
X0020332Y0148954D01*
X0020398Y0148873D01*
X0020462Y0148789D01*
X0020522Y0148703D01*
X0020578Y0148615D01*
X0020632Y0148524D01*
X0020682Y0148432D01*
X0020728Y0148338D01*
X0020771Y0148242D01*
X0020810Y0148144D01*
X0020845Y0148046D01*
X0020876Y0147945D01*
X0020904Y0147844D01*
X0020928Y0147742D01*
X0020948Y0147639D01*
X0020964Y0147535D01*
X0020976Y0147431D01*
X0020984Y0147326D01*
X0020988Y0147221D01*
X0020988Y0147117D01*
X0020984Y0147012D01*
X0020976Y0146907D01*
X0020964Y0146803D01*
X0020948Y0146699D01*
X0020928Y0146596D01*
X0020904Y0146494D01*
X0020876Y0146393D01*
X0020845Y0146292D01*
X0020810Y0146194D01*
X0020771Y0146096D01*
X0020728Y0146000D01*
X0020682Y0145906D01*
X0020632Y0145814D01*
X0020578Y0145723D01*
X0020522Y0145635D01*
X0020462Y0145549D01*
X0020398Y0145465D01*
X0020332Y0145384D01*
X0020262Y0145305D01*
X0020190Y0145230D01*
X0020115Y0145156D01*
X0020037Y0145086D01*
X0019956Y0145019D01*
X0019873Y0144955D01*
X0019788Y0144894D01*
X0019700Y0144836D01*
X0019610Y0144782D01*
X0019518Y0144732D01*
X0019424Y0144684D01*
X0019329Y0144641D01*
X0019232Y0144601D01*
X0019133Y0144565D01*
X0019034Y0144532D01*
X0018933Y0144504D01*
X0018831Y0144479D01*
X0018728Y0144458D01*
X0018624Y0144441D01*
X0018520Y0144428D01*
X0018416Y0144419D01*
X0018311Y0144414D01*
X0018206Y0144413D01*
X0018101Y0144416D01*
X0017996Y0144423D01*
X0017892Y0144434D01*
X0017788Y0144449D01*
X0017685Y0144468D01*
X0017582Y0144491D01*
X0017481Y0144517D01*
X0017380Y0144548D01*
X0017281Y0144582D01*
X0017183Y0144620D01*
X0017087Y0144662D01*
X0016993Y0144707D01*
X0016900Y0144756D01*
X0016809Y0144809D01*
X0016720Y0144865D01*
X0016633Y0144924D01*
X0016549Y0144987D01*
X0016467Y0145052D01*
X0016388Y0145121D01*
X0016311Y0145193D01*
X0016237Y0145267D01*
X0016166Y0145344D01*
X0016098Y0145424D01*
X0016034Y0145507D01*
X0015972Y0145592D01*
X0015914Y0145679D01*
X0015858Y0145768D01*
X0015807Y0145860D01*
X0015759Y0145953D01*
X0015714Y0146048D01*
X0015673Y0146145D01*
X0015636Y0146243D01*
X0015603Y0146342D01*
X0015573Y0146443D01*
X0015548Y0146545D01*
X0015526Y0146647D01*
X0015508Y0146751D01*
X0015494Y0146855D01*
X0015484Y0146959D01*
X0015478Y0147064D01*
X0015476Y0147169D01*
X0030043Y0121579D02*
X0030045Y0121687D01*
X0030051Y0121796D01*
X0030061Y0121904D01*
X0030075Y0122011D01*
X0030093Y0122118D01*
X0030114Y0122225D01*
X0030140Y0122330D01*
X0030170Y0122435D01*
X0030203Y0122538D01*
X0030240Y0122640D01*
X0030281Y0122740D01*
X0030325Y0122839D01*
X0030374Y0122937D01*
X0030425Y0123032D01*
X0030480Y0123125D01*
X0030539Y0123217D01*
X0030601Y0123306D01*
X0030666Y0123393D01*
X0030734Y0123477D01*
X0030805Y0123559D01*
X0030879Y0123638D01*
X0030956Y0123714D01*
X0031036Y0123788D01*
X0031119Y0123858D01*
X0031204Y0123926D01*
X0031291Y0123990D01*
X0031381Y0124051D01*
X0031473Y0124109D01*
X0031567Y0124163D01*
X0031663Y0124214D01*
X0031760Y0124261D01*
X0031860Y0124305D01*
X0031961Y0124345D01*
X0032063Y0124381D01*
X0032166Y0124413D01*
X0032271Y0124442D01*
X0032377Y0124466D01*
X0032483Y0124487D01*
X0032590Y0124504D01*
X0032698Y0124517D01*
X0032806Y0124526D01*
X0032915Y0124531D01*
X0033023Y0124532D01*
X0033132Y0124529D01*
X0033240Y0124522D01*
X0033348Y0124511D01*
X0033455Y0124496D01*
X0033562Y0124477D01*
X0033668Y0124454D01*
X0033773Y0124428D01*
X0033878Y0124397D01*
X0033980Y0124363D01*
X0034082Y0124325D01*
X0034182Y0124283D01*
X0034281Y0124238D01*
X0034378Y0124189D01*
X0034472Y0124136D01*
X0034565Y0124080D01*
X0034656Y0124021D01*
X0034745Y0123958D01*
X0034831Y0123893D01*
X0034915Y0123824D01*
X0034996Y0123752D01*
X0035074Y0123677D01*
X0035150Y0123599D01*
X0035223Y0123518D01*
X0035293Y0123435D01*
X0035359Y0123350D01*
X0035423Y0123262D01*
X0035483Y0123171D01*
X0035540Y0123079D01*
X0035593Y0122984D01*
X0035643Y0122888D01*
X0035689Y0122790D01*
X0035732Y0122690D01*
X0035771Y0122589D01*
X0035806Y0122486D01*
X0035838Y0122383D01*
X0035865Y0122278D01*
X0035889Y0122172D01*
X0035909Y0122065D01*
X0035925Y0121958D01*
X0035937Y0121850D01*
X0035945Y0121742D01*
X0035949Y0121633D01*
X0035949Y0121525D01*
X0035945Y0121416D01*
X0035937Y0121308D01*
X0035925Y0121200D01*
X0035909Y0121093D01*
X0035889Y0120986D01*
X0035865Y0120880D01*
X0035838Y0120775D01*
X0035806Y0120672D01*
X0035771Y0120569D01*
X0035732Y0120468D01*
X0035689Y0120368D01*
X0035643Y0120270D01*
X0035593Y0120174D01*
X0035540Y0120079D01*
X0035483Y0119987D01*
X0035423Y0119896D01*
X0035359Y0119808D01*
X0035293Y0119723D01*
X0035223Y0119640D01*
X0035150Y0119559D01*
X0035074Y0119481D01*
X0034996Y0119406D01*
X0034915Y0119334D01*
X0034831Y0119265D01*
X0034745Y0119200D01*
X0034656Y0119137D01*
X0034565Y0119078D01*
X0034473Y0119022D01*
X0034378Y0118969D01*
X0034281Y0118920D01*
X0034182Y0118875D01*
X0034082Y0118833D01*
X0033980Y0118795D01*
X0033878Y0118761D01*
X0033773Y0118730D01*
X0033668Y0118704D01*
X0033562Y0118681D01*
X0033455Y0118662D01*
X0033348Y0118647D01*
X0033240Y0118636D01*
X0033132Y0118629D01*
X0033023Y0118626D01*
X0032915Y0118627D01*
X0032806Y0118632D01*
X0032698Y0118641D01*
X0032590Y0118654D01*
X0032483Y0118671D01*
X0032377Y0118692D01*
X0032271Y0118716D01*
X0032166Y0118745D01*
X0032063Y0118777D01*
X0031961Y0118813D01*
X0031860Y0118853D01*
X0031760Y0118897D01*
X0031663Y0118944D01*
X0031567Y0118995D01*
X0031473Y0119049D01*
X0031381Y0119107D01*
X0031291Y0119168D01*
X0031204Y0119232D01*
X0031119Y0119300D01*
X0031036Y0119370D01*
X0030956Y0119444D01*
X0030879Y0119520D01*
X0030805Y0119599D01*
X0030734Y0119681D01*
X0030666Y0119765D01*
X0030601Y0119852D01*
X0030539Y0119941D01*
X0030480Y0120033D01*
X0030425Y0120126D01*
X0030374Y0120221D01*
X0030325Y0120319D01*
X0030281Y0120418D01*
X0030240Y0120518D01*
X0030203Y0120620D01*
X0030170Y0120723D01*
X0030140Y0120828D01*
X0030114Y0120933D01*
X0030093Y0121040D01*
X0030075Y0121147D01*
X0030061Y0121254D01*
X0030051Y0121362D01*
X0030045Y0121471D01*
X0030043Y0121579D01*
X0089098Y0121579D02*
X0089100Y0121687D01*
X0089106Y0121796D01*
X0089116Y0121904D01*
X0089130Y0122011D01*
X0089148Y0122118D01*
X0089169Y0122225D01*
X0089195Y0122330D01*
X0089225Y0122435D01*
X0089258Y0122538D01*
X0089295Y0122640D01*
X0089336Y0122740D01*
X0089380Y0122839D01*
X0089429Y0122937D01*
X0089480Y0123032D01*
X0089535Y0123125D01*
X0089594Y0123217D01*
X0089656Y0123306D01*
X0089721Y0123393D01*
X0089789Y0123477D01*
X0089860Y0123559D01*
X0089934Y0123638D01*
X0090011Y0123714D01*
X0090091Y0123788D01*
X0090174Y0123858D01*
X0090259Y0123926D01*
X0090346Y0123990D01*
X0090436Y0124051D01*
X0090528Y0124109D01*
X0090622Y0124163D01*
X0090718Y0124214D01*
X0090815Y0124261D01*
X0090915Y0124305D01*
X0091016Y0124345D01*
X0091118Y0124381D01*
X0091221Y0124413D01*
X0091326Y0124442D01*
X0091432Y0124466D01*
X0091538Y0124487D01*
X0091645Y0124504D01*
X0091753Y0124517D01*
X0091861Y0124526D01*
X0091970Y0124531D01*
X0092078Y0124532D01*
X0092187Y0124529D01*
X0092295Y0124522D01*
X0092403Y0124511D01*
X0092510Y0124496D01*
X0092617Y0124477D01*
X0092723Y0124454D01*
X0092828Y0124428D01*
X0092933Y0124397D01*
X0093035Y0124363D01*
X0093137Y0124325D01*
X0093237Y0124283D01*
X0093336Y0124238D01*
X0093433Y0124189D01*
X0093527Y0124136D01*
X0093620Y0124080D01*
X0093711Y0124021D01*
X0093800Y0123958D01*
X0093886Y0123893D01*
X0093970Y0123824D01*
X0094051Y0123752D01*
X0094129Y0123677D01*
X0094205Y0123599D01*
X0094278Y0123518D01*
X0094348Y0123435D01*
X0094414Y0123350D01*
X0094478Y0123262D01*
X0094538Y0123171D01*
X0094595Y0123079D01*
X0094648Y0122984D01*
X0094698Y0122888D01*
X0094744Y0122790D01*
X0094787Y0122690D01*
X0094826Y0122589D01*
X0094861Y0122486D01*
X0094893Y0122383D01*
X0094920Y0122278D01*
X0094944Y0122172D01*
X0094964Y0122065D01*
X0094980Y0121958D01*
X0094992Y0121850D01*
X0095000Y0121742D01*
X0095004Y0121633D01*
X0095004Y0121525D01*
X0095000Y0121416D01*
X0094992Y0121308D01*
X0094980Y0121200D01*
X0094964Y0121093D01*
X0094944Y0120986D01*
X0094920Y0120880D01*
X0094893Y0120775D01*
X0094861Y0120672D01*
X0094826Y0120569D01*
X0094787Y0120468D01*
X0094744Y0120368D01*
X0094698Y0120270D01*
X0094648Y0120174D01*
X0094595Y0120079D01*
X0094538Y0119987D01*
X0094478Y0119896D01*
X0094414Y0119808D01*
X0094348Y0119723D01*
X0094278Y0119640D01*
X0094205Y0119559D01*
X0094129Y0119481D01*
X0094051Y0119406D01*
X0093970Y0119334D01*
X0093886Y0119265D01*
X0093800Y0119200D01*
X0093711Y0119137D01*
X0093620Y0119078D01*
X0093528Y0119022D01*
X0093433Y0118969D01*
X0093336Y0118920D01*
X0093237Y0118875D01*
X0093137Y0118833D01*
X0093035Y0118795D01*
X0092933Y0118761D01*
X0092828Y0118730D01*
X0092723Y0118704D01*
X0092617Y0118681D01*
X0092510Y0118662D01*
X0092403Y0118647D01*
X0092295Y0118636D01*
X0092187Y0118629D01*
X0092078Y0118626D01*
X0091970Y0118627D01*
X0091861Y0118632D01*
X0091753Y0118641D01*
X0091645Y0118654D01*
X0091538Y0118671D01*
X0091432Y0118692D01*
X0091326Y0118716D01*
X0091221Y0118745D01*
X0091118Y0118777D01*
X0091016Y0118813D01*
X0090915Y0118853D01*
X0090815Y0118897D01*
X0090718Y0118944D01*
X0090622Y0118995D01*
X0090528Y0119049D01*
X0090436Y0119107D01*
X0090346Y0119168D01*
X0090259Y0119232D01*
X0090174Y0119300D01*
X0090091Y0119370D01*
X0090011Y0119444D01*
X0089934Y0119520D01*
X0089860Y0119599D01*
X0089789Y0119681D01*
X0089721Y0119765D01*
X0089656Y0119852D01*
X0089594Y0119941D01*
X0089535Y0120033D01*
X0089480Y0120126D01*
X0089429Y0120221D01*
X0089380Y0120319D01*
X0089336Y0120418D01*
X0089295Y0120518D01*
X0089258Y0120620D01*
X0089225Y0120723D01*
X0089195Y0120828D01*
X0089169Y0120933D01*
X0089148Y0121040D01*
X0089130Y0121147D01*
X0089116Y0121254D01*
X0089106Y0121362D01*
X0089100Y0121471D01*
X0089098Y0121579D01*
D17*
X0142445Y0153232D02*
X0147445Y0161264D01*
X0137445Y0161264D01*
X0142445Y0153232D01*
D18*
X0130831Y0051799D02*
X0125319Y0051799D01*
X0128075Y0048587D01*
X0130831Y0051799D01*
M02*
