G75*
%MOIN*%
%OFA0B0*%
%FSLAX25Y25*%
%IPPOS*%
%LPD*%
%AMOC8*
5,1,8,0,0,1.08239X$1,22.5*
%
%ADD10C,0.09000*%
%ADD11C,0.08661*%
%ADD12OC8,0.05937*%
%ADD13C,0.01969*%
%ADD14C,0.00787*%
%ADD15C,0.01181*%
%ADD16C,0.00394*%
%ADD17C,0.03962*%
D10*
X0285201Y0113311D03*
X0294925Y0103350D03*
X0314650Y0113272D03*
X0334295Y0103390D03*
X0344295Y0113311D03*
X0379689Y0113311D03*
X0389413Y0103350D03*
X0409138Y0113272D03*
X0428783Y0103390D03*
X0438783Y0113311D03*
X0428783Y0152611D03*
X0389383Y0152611D03*
X0334295Y0152611D03*
X0294895Y0152611D03*
D11*
X0112917Y0120004D02*
X0112917Y0111343D01*
X0071251Y0111343D02*
X0071251Y0120004D01*
X0053862Y0120004D02*
X0053862Y0111343D01*
X0012196Y0111343D02*
X0012196Y0120004D01*
X0028665Y0147169D02*
X0037327Y0147169D01*
X0087720Y0147169D02*
X0096382Y0147169D01*
D12*
X0150122Y0125516D03*
X0159965Y0125516D03*
X0169807Y0125516D03*
X0179650Y0125516D03*
X0189492Y0125516D03*
X0199335Y0125516D03*
X0209177Y0125516D03*
X0219020Y0125516D03*
X0228862Y0125516D03*
X0238705Y0125516D03*
X0238705Y0115673D03*
X0228862Y0115673D03*
X0219020Y0115673D03*
X0209177Y0115673D03*
X0199335Y0115673D03*
X0189492Y0115673D03*
X0179650Y0115673D03*
X0169807Y0115673D03*
X0159965Y0115673D03*
X0150122Y0115673D03*
X0154846Y0065555D03*
X0144846Y0065555D03*
X0134846Y0065555D03*
X0134846Y0055555D03*
X0144846Y0055555D03*
X0154846Y0055555D03*
X0164846Y0055555D03*
X0174846Y0055555D03*
X0184846Y0055555D03*
X0194846Y0055555D03*
X0204846Y0055555D03*
X0214846Y0055555D03*
X0224846Y0055555D03*
X0234846Y0055555D03*
X0244846Y0055555D03*
X0254846Y0055555D03*
X0264846Y0055555D03*
X0274846Y0055555D03*
X0284846Y0055555D03*
X0294846Y0055555D03*
X0304846Y0055555D03*
X0314846Y0055555D03*
X0324846Y0055555D03*
X0324846Y0065555D03*
X0314846Y0065555D03*
X0304846Y0065555D03*
X0294846Y0065555D03*
X0284846Y0065555D03*
X0274846Y0065555D03*
X0264846Y0065555D03*
X0254846Y0065555D03*
X0244846Y0065555D03*
X0234846Y0065555D03*
X0224846Y0065555D03*
X0214846Y0065555D03*
X0204846Y0065555D03*
X0194846Y0065555D03*
X0184846Y0065555D03*
X0174846Y0065555D03*
X0164846Y0065555D03*
X0164846Y0024217D03*
X0154846Y0024217D03*
X0144846Y0024217D03*
X0134846Y0024217D03*
X0134846Y0014217D03*
X0144846Y0014217D03*
X0154846Y0014217D03*
X0164846Y0014217D03*
X0174846Y0014217D03*
X0184846Y0014217D03*
X0194846Y0014217D03*
X0204846Y0014217D03*
X0214846Y0014217D03*
X0224846Y0014217D03*
X0234846Y0014217D03*
X0244846Y0014217D03*
X0254846Y0014217D03*
X0264846Y0014217D03*
X0274846Y0014217D03*
X0284846Y0014217D03*
X0294846Y0014217D03*
X0304846Y0014217D03*
X0314846Y0014217D03*
X0324846Y0014217D03*
X0324846Y0024217D03*
X0314846Y0024217D03*
X0304846Y0024217D03*
X0294846Y0024217D03*
X0284846Y0024217D03*
X0274846Y0024217D03*
X0264846Y0024217D03*
X0254846Y0024217D03*
X0244846Y0024217D03*
X0234846Y0024217D03*
X0224846Y0024217D03*
X0214846Y0024217D03*
X0204846Y0024217D03*
X0194846Y0024217D03*
X0184846Y0024217D03*
X0174846Y0024217D03*
D13*
X0184846Y0024217D02*
X0184846Y0055555D01*
X0184846Y0055949D01*
X0179846Y0060949D01*
X0179846Y0070791D01*
X0149925Y0100713D01*
X0149925Y0115476D01*
X0150122Y0115673D01*
X0159965Y0115673D02*
X0160161Y0115476D01*
X0160161Y0099925D01*
X0189689Y0070398D01*
X0189689Y0060949D01*
X0194846Y0055791D01*
X0194846Y0055555D01*
X0194846Y0024217D01*
X0204846Y0024217D02*
X0204846Y0055555D01*
X0204846Y0056028D01*
X0199925Y0060949D01*
X0199925Y0070004D01*
X0170004Y0099925D01*
X0170004Y0115476D01*
X0169807Y0115673D01*
X0179650Y0115673D02*
X0179846Y0115476D01*
X0179846Y0100319D01*
X0209768Y0070398D01*
X0209768Y0060555D01*
X0214768Y0055555D01*
X0214846Y0055555D01*
X0214846Y0024217D01*
X0224846Y0024217D02*
X0224846Y0055555D01*
X0224846Y0055713D01*
X0219610Y0060949D01*
X0219610Y0070791D01*
X0189689Y0100713D01*
X0189689Y0115476D01*
X0189492Y0115673D01*
X0199335Y0115673D02*
X0199531Y0115476D01*
X0199531Y0100319D01*
X0229846Y0070004D01*
X0229846Y0060555D01*
X0234846Y0055555D01*
X0234846Y0024217D01*
X0244846Y0024217D02*
X0244846Y0055555D01*
X0244689Y0055555D01*
X0239689Y0060555D01*
X0239689Y0070791D01*
X0209374Y0101106D01*
X0209374Y0115476D01*
X0209177Y0115673D01*
X0219020Y0115673D02*
X0219217Y0115476D01*
X0219217Y0100713D01*
X0249925Y0070004D01*
X0249925Y0060555D01*
X0254846Y0055634D01*
X0254846Y0055555D01*
X0254846Y0024217D01*
X0304846Y0024217D02*
X0304846Y0055555D01*
X0304846Y0057602D01*
X0299925Y0062524D01*
X0299925Y0075122D01*
X0309768Y0069217D02*
X0315673Y0075122D01*
X0331421Y0075122D01*
X0309768Y0069217D02*
X0309768Y0060555D01*
X0314768Y0055555D01*
X0314846Y0055555D01*
X0314846Y0024217D01*
X0264846Y0065555D02*
X0264846Y0072406D01*
X0238902Y0102287D01*
X0238902Y0115476D01*
X0238705Y0115673D01*
X0149925Y0077878D02*
X0126697Y0101106D01*
X0149925Y0077878D02*
X0149925Y0060555D01*
X0144925Y0055555D01*
X0144846Y0055555D01*
X0144846Y0024217D01*
X0134846Y0024217D02*
X0134846Y0055555D01*
X0154846Y0055555D02*
X0154846Y0024217D01*
D14*
X0267248Y0080240D02*
X0350600Y0080240D01*
X0350600Y0050713D01*
X0350600Y0008980D01*
X0319610Y0008980D01*
X0319610Y0029059D01*
X0336146Y0029059D01*
X0336146Y0050713D01*
X0350600Y0050713D01*
X0319610Y0050713D01*
X0319610Y0070791D01*
X0336146Y0070791D01*
X0336146Y0080240D01*
X0350600Y0080240D01*
X0350600Y0080776D01*
X0351358Y0081534D01*
X0456899Y0081534D01*
X0456899Y0161624D01*
X0267248Y0161624D01*
X0267248Y0080240D01*
X0267248Y0080807D02*
X0350631Y0080807D01*
X0350600Y0080021D02*
X0336146Y0080021D01*
X0336146Y0079235D02*
X0350600Y0079235D01*
X0350600Y0078449D02*
X0336146Y0078449D01*
X0336146Y0077663D02*
X0350600Y0077663D01*
X0350600Y0076878D02*
X0336146Y0076878D01*
X0336146Y0076092D02*
X0350600Y0076092D01*
X0350600Y0075306D02*
X0336146Y0075306D01*
X0336146Y0074520D02*
X0350600Y0074520D01*
X0350600Y0073734D02*
X0336146Y0073734D01*
X0336146Y0072948D02*
X0350600Y0072948D01*
X0350600Y0072162D02*
X0336146Y0072162D01*
X0336146Y0071376D02*
X0350600Y0071376D01*
X0350600Y0070590D02*
X0319610Y0070590D01*
X0319610Y0069804D02*
X0322927Y0069804D01*
X0323040Y0069917D02*
X0320484Y0067362D01*
X0320484Y0065949D01*
X0324453Y0065949D01*
X0324453Y0069917D01*
X0323040Y0069917D01*
X0322141Y0069018D02*
X0319610Y0069018D01*
X0319610Y0068233D02*
X0321355Y0068233D01*
X0320569Y0067447D02*
X0319610Y0067447D01*
X0319610Y0066661D02*
X0320484Y0066661D01*
X0319610Y0065875D02*
X0324453Y0065875D01*
X0324453Y0065949D02*
X0324453Y0065161D01*
X0325240Y0065161D01*
X0325240Y0061193D01*
X0326653Y0061193D01*
X0329209Y0063748D01*
X0329209Y0065161D01*
X0325240Y0065161D01*
X0325240Y0065949D01*
X0324453Y0065949D01*
X0324453Y0066661D02*
X0325240Y0066661D01*
X0325240Y0065949D02*
X0325240Y0069917D01*
X0326653Y0069917D01*
X0329209Y0067362D01*
X0329209Y0065949D01*
X0325240Y0065949D01*
X0325240Y0065875D02*
X0350600Y0065875D01*
X0350600Y0066661D02*
X0329209Y0066661D01*
X0329124Y0067447D02*
X0350600Y0067447D01*
X0350600Y0068233D02*
X0328338Y0068233D01*
X0327552Y0069018D02*
X0350600Y0069018D01*
X0350600Y0069804D02*
X0326766Y0069804D01*
X0325240Y0069804D02*
X0324453Y0069804D01*
X0324453Y0069018D02*
X0325240Y0069018D01*
X0325240Y0068233D02*
X0324453Y0068233D01*
X0324453Y0067447D02*
X0325240Y0067447D01*
X0325240Y0065089D02*
X0324453Y0065089D01*
X0324453Y0065161D02*
X0324453Y0061193D01*
X0323040Y0061193D01*
X0320484Y0063748D01*
X0320484Y0065161D01*
X0324453Y0065161D01*
X0324453Y0064303D02*
X0325240Y0064303D01*
X0325240Y0063517D02*
X0324453Y0063517D01*
X0324453Y0062731D02*
X0325240Y0062731D01*
X0325240Y0061945D02*
X0324453Y0061945D01*
X0324453Y0059917D02*
X0323040Y0059917D01*
X0320484Y0057362D01*
X0320484Y0055949D01*
X0324453Y0055949D01*
X0324453Y0059917D01*
X0324453Y0059587D02*
X0325240Y0059587D01*
X0325240Y0059917D02*
X0325240Y0055949D01*
X0324453Y0055949D01*
X0324453Y0055161D01*
X0325240Y0055161D01*
X0325240Y0051193D01*
X0326653Y0051193D01*
X0329209Y0053748D01*
X0329209Y0055161D01*
X0325240Y0055161D01*
X0325240Y0055949D01*
X0329209Y0055949D01*
X0329209Y0057362D01*
X0326653Y0059917D01*
X0325240Y0059917D01*
X0325240Y0058802D02*
X0324453Y0058802D01*
X0324453Y0058016D02*
X0325240Y0058016D01*
X0325240Y0057230D02*
X0324453Y0057230D01*
X0324453Y0056444D02*
X0325240Y0056444D01*
X0325240Y0055658D02*
X0350600Y0055658D01*
X0350600Y0056444D02*
X0329209Y0056444D01*
X0329209Y0057230D02*
X0350600Y0057230D01*
X0350600Y0058016D02*
X0328555Y0058016D01*
X0327769Y0058802D02*
X0350600Y0058802D01*
X0350600Y0059587D02*
X0326983Y0059587D01*
X0322710Y0059587D02*
X0319610Y0059587D01*
X0319610Y0058802D02*
X0321924Y0058802D01*
X0321138Y0058016D02*
X0319610Y0058016D01*
X0319610Y0057230D02*
X0320484Y0057230D01*
X0320484Y0056444D02*
X0319610Y0056444D01*
X0319610Y0055658D02*
X0324453Y0055658D01*
X0324453Y0055161D02*
X0320484Y0055161D01*
X0320484Y0053748D01*
X0323040Y0051193D01*
X0324453Y0051193D01*
X0324453Y0055161D01*
X0324453Y0054872D02*
X0325240Y0054872D01*
X0325240Y0054086D02*
X0324453Y0054086D01*
X0324453Y0053300D02*
X0325240Y0053300D01*
X0325240Y0052514D02*
X0324453Y0052514D01*
X0324453Y0051728D02*
X0325240Y0051728D01*
X0327189Y0051728D02*
X0350600Y0051728D01*
X0350600Y0050942D02*
X0319610Y0050942D01*
X0319610Y0051728D02*
X0322504Y0051728D01*
X0321718Y0052514D02*
X0319610Y0052514D01*
X0319610Y0053300D02*
X0320932Y0053300D01*
X0320484Y0054086D02*
X0319610Y0054086D01*
X0319610Y0054872D02*
X0320484Y0054872D01*
X0327975Y0052514D02*
X0350600Y0052514D01*
X0350600Y0053300D02*
X0328761Y0053300D01*
X0329209Y0054086D02*
X0350600Y0054086D01*
X0350600Y0054872D02*
X0329209Y0054872D01*
X0336146Y0050157D02*
X0350600Y0050157D01*
X0350600Y0049371D02*
X0336146Y0049371D01*
X0336146Y0048585D02*
X0350600Y0048585D01*
X0350600Y0047799D02*
X0336146Y0047799D01*
X0336146Y0047013D02*
X0350600Y0047013D01*
X0350600Y0046227D02*
X0336146Y0046227D01*
X0336146Y0045441D02*
X0350600Y0045441D01*
X0350600Y0044655D02*
X0336146Y0044655D01*
X0336146Y0043869D02*
X0350600Y0043869D01*
X0350600Y0043083D02*
X0336146Y0043083D01*
X0336146Y0042297D02*
X0350600Y0042297D01*
X0350600Y0041511D02*
X0336146Y0041511D01*
X0336146Y0040726D02*
X0350600Y0040726D01*
X0350600Y0039940D02*
X0336146Y0039940D01*
X0336146Y0039154D02*
X0350600Y0039154D01*
X0350600Y0038368D02*
X0336146Y0038368D01*
X0336146Y0037582D02*
X0350600Y0037582D01*
X0350600Y0036796D02*
X0336146Y0036796D01*
X0336146Y0036010D02*
X0350600Y0036010D01*
X0350600Y0035224D02*
X0336146Y0035224D01*
X0336146Y0034438D02*
X0350600Y0034438D01*
X0350600Y0033652D02*
X0336146Y0033652D01*
X0336146Y0032866D02*
X0350600Y0032866D01*
X0350600Y0032081D02*
X0336146Y0032081D01*
X0336146Y0031295D02*
X0350600Y0031295D01*
X0350600Y0030509D02*
X0336146Y0030509D01*
X0336146Y0029723D02*
X0350600Y0029723D01*
X0350600Y0028937D02*
X0319610Y0028937D01*
X0319610Y0028151D02*
X0322612Y0028151D01*
X0323040Y0028579D02*
X0320484Y0026023D01*
X0320484Y0024610D01*
X0324453Y0024610D01*
X0324453Y0023823D01*
X0325240Y0023823D01*
X0325240Y0024610D01*
X0329209Y0024610D01*
X0329209Y0026023D01*
X0326653Y0028579D01*
X0325240Y0028579D01*
X0325240Y0024610D01*
X0324453Y0024610D01*
X0324453Y0028579D01*
X0323040Y0028579D01*
X0324453Y0028151D02*
X0325240Y0028151D01*
X0325240Y0027365D02*
X0324453Y0027365D01*
X0324453Y0026579D02*
X0325240Y0026579D01*
X0325240Y0025793D02*
X0324453Y0025793D01*
X0324453Y0025007D02*
X0325240Y0025007D01*
X0325240Y0024221D02*
X0350600Y0024221D01*
X0350600Y0023435D02*
X0329209Y0023435D01*
X0329209Y0023823D02*
X0325240Y0023823D01*
X0325240Y0019854D01*
X0326653Y0019854D01*
X0329209Y0022410D01*
X0329209Y0023823D01*
X0329209Y0022650D02*
X0350600Y0022650D01*
X0350600Y0021864D02*
X0328663Y0021864D01*
X0327877Y0021078D02*
X0350600Y0021078D01*
X0350600Y0020292D02*
X0327091Y0020292D01*
X0326653Y0018579D02*
X0325240Y0018579D01*
X0325240Y0014610D01*
X0329209Y0014610D01*
X0329209Y0016023D01*
X0326653Y0018579D01*
X0327298Y0017934D02*
X0350600Y0017934D01*
X0350600Y0017148D02*
X0328084Y0017148D01*
X0328870Y0016362D02*
X0350600Y0016362D01*
X0350600Y0015576D02*
X0329209Y0015576D01*
X0329209Y0014790D02*
X0350600Y0014790D01*
X0350600Y0014005D02*
X0325240Y0014005D01*
X0325240Y0013823D02*
X0325240Y0014610D01*
X0324453Y0014610D01*
X0324453Y0013823D01*
X0325240Y0013823D01*
X0329209Y0013823D01*
X0329209Y0012410D01*
X0326653Y0009854D01*
X0325240Y0009854D01*
X0325240Y0013823D01*
X0325240Y0013219D02*
X0324453Y0013219D01*
X0324453Y0013823D02*
X0324453Y0009854D01*
X0323040Y0009854D01*
X0320484Y0012410D01*
X0320484Y0013823D01*
X0324453Y0013823D01*
X0324453Y0014005D02*
X0319610Y0014005D01*
X0319610Y0014790D02*
X0320484Y0014790D01*
X0320484Y0014610D02*
X0324453Y0014610D01*
X0324453Y0018579D01*
X0323040Y0018579D01*
X0320484Y0016023D01*
X0320484Y0014610D01*
X0320484Y0015576D02*
X0319610Y0015576D01*
X0319610Y0016362D02*
X0320823Y0016362D01*
X0321609Y0017148D02*
X0319610Y0017148D01*
X0319610Y0017934D02*
X0322395Y0017934D01*
X0323040Y0019854D02*
X0324453Y0019854D01*
X0324453Y0023823D01*
X0320484Y0023823D01*
X0320484Y0022410D01*
X0323040Y0019854D01*
X0322602Y0020292D02*
X0319610Y0020292D01*
X0319610Y0021078D02*
X0321816Y0021078D01*
X0321030Y0021864D02*
X0319610Y0021864D01*
X0319610Y0022650D02*
X0320484Y0022650D01*
X0320484Y0023435D02*
X0319610Y0023435D01*
X0319610Y0024221D02*
X0324453Y0024221D01*
X0324453Y0023435D02*
X0325240Y0023435D01*
X0325240Y0022650D02*
X0324453Y0022650D01*
X0324453Y0021864D02*
X0325240Y0021864D01*
X0325240Y0021078D02*
X0324453Y0021078D01*
X0324453Y0020292D02*
X0325240Y0020292D01*
X0319610Y0019506D02*
X0350600Y0019506D01*
X0350600Y0018720D02*
X0319610Y0018720D01*
X0324453Y0017934D02*
X0325240Y0017934D01*
X0325240Y0017148D02*
X0324453Y0017148D01*
X0324453Y0016362D02*
X0325240Y0016362D01*
X0325240Y0015576D02*
X0324453Y0015576D01*
X0324453Y0014790D02*
X0325240Y0014790D01*
X0325240Y0012433D02*
X0324453Y0012433D01*
X0324453Y0011647D02*
X0325240Y0011647D01*
X0325240Y0010861D02*
X0324453Y0010861D01*
X0324453Y0010075D02*
X0325240Y0010075D01*
X0326874Y0010075D02*
X0350600Y0010075D01*
X0350600Y0010861D02*
X0327660Y0010861D01*
X0328446Y0011647D02*
X0350600Y0011647D01*
X0350600Y0012433D02*
X0329209Y0012433D01*
X0329209Y0013219D02*
X0350600Y0013219D01*
X0350600Y0009289D02*
X0319610Y0009289D01*
X0319610Y0010075D02*
X0322819Y0010075D01*
X0322033Y0010861D02*
X0319610Y0010861D01*
X0319610Y0011647D02*
X0321247Y0011647D01*
X0320484Y0012433D02*
X0319610Y0012433D01*
X0319610Y0013219D02*
X0320484Y0013219D01*
X0320484Y0025007D02*
X0319610Y0025007D01*
X0319610Y0025793D02*
X0320484Y0025793D01*
X0321040Y0026579D02*
X0319610Y0026579D01*
X0319610Y0027365D02*
X0321826Y0027365D01*
X0327081Y0028151D02*
X0350600Y0028151D01*
X0350600Y0027365D02*
X0327867Y0027365D01*
X0328653Y0026579D02*
X0350600Y0026579D01*
X0350600Y0025793D02*
X0329209Y0025793D01*
X0329209Y0025007D02*
X0350600Y0025007D01*
X0350600Y0060373D02*
X0319610Y0060373D01*
X0319610Y0061159D02*
X0350600Y0061159D01*
X0350600Y0061945D02*
X0327406Y0061945D01*
X0328192Y0062731D02*
X0350600Y0062731D01*
X0350600Y0063517D02*
X0328977Y0063517D01*
X0329209Y0064303D02*
X0350600Y0064303D01*
X0350600Y0065089D02*
X0329209Y0065089D01*
X0322287Y0061945D02*
X0319610Y0061945D01*
X0319610Y0062731D02*
X0321501Y0062731D01*
X0320715Y0063517D02*
X0319610Y0063517D01*
X0319610Y0064303D02*
X0320484Y0064303D01*
X0320484Y0065089D02*
X0319610Y0065089D01*
X0267248Y0081593D02*
X0456899Y0081593D01*
X0456899Y0082379D02*
X0267248Y0082379D01*
X0267248Y0083165D02*
X0456899Y0083165D01*
X0456899Y0083951D02*
X0267248Y0083951D01*
X0267248Y0084737D02*
X0456899Y0084737D01*
X0456899Y0085523D02*
X0267248Y0085523D01*
X0267248Y0086309D02*
X0456899Y0086309D01*
X0456899Y0087094D02*
X0267248Y0087094D01*
X0267248Y0087880D02*
X0456899Y0087880D01*
X0456899Y0088666D02*
X0267248Y0088666D01*
X0267248Y0089452D02*
X0456899Y0089452D01*
X0456899Y0090238D02*
X0267248Y0090238D01*
X0267248Y0091024D02*
X0456899Y0091024D01*
X0456899Y0091810D02*
X0267248Y0091810D01*
X0267248Y0092596D02*
X0456899Y0092596D01*
X0456899Y0093382D02*
X0267248Y0093382D01*
X0267248Y0094168D02*
X0456899Y0094168D01*
X0456899Y0094954D02*
X0267248Y0094954D01*
X0267248Y0095739D02*
X0456899Y0095739D01*
X0456899Y0096525D02*
X0267248Y0096525D01*
X0267248Y0097311D02*
X0456899Y0097311D01*
X0456899Y0098097D02*
X0430884Y0098097D01*
X0429916Y0097696D02*
X0432009Y0098563D01*
X0433610Y0100165D01*
X0434477Y0102257D01*
X0434477Y0104522D01*
X0433610Y0106615D01*
X0432009Y0108217D01*
X0429916Y0109083D01*
X0427651Y0109083D01*
X0425558Y0108217D01*
X0423957Y0106615D01*
X0423090Y0104522D01*
X0423090Y0102257D01*
X0423957Y0100165D01*
X0425558Y0098563D01*
X0427651Y0097696D01*
X0429916Y0097696D01*
X0432329Y0098883D02*
X0456899Y0098883D01*
X0456899Y0099669D02*
X0433115Y0099669D01*
X0433731Y0100455D02*
X0456899Y0100455D01*
X0456899Y0101241D02*
X0434056Y0101241D01*
X0434382Y0102027D02*
X0456899Y0102027D01*
X0456899Y0102813D02*
X0434477Y0102813D01*
X0434477Y0103599D02*
X0456899Y0103599D01*
X0456899Y0104385D02*
X0434477Y0104385D01*
X0434209Y0105170D02*
X0456899Y0105170D01*
X0456899Y0105956D02*
X0433883Y0105956D01*
X0433483Y0106742D02*
X0456899Y0106742D01*
X0456899Y0107528D02*
X0432697Y0107528D01*
X0431773Y0108314D02*
X0435969Y0108314D01*
X0435558Y0108484D02*
X0437651Y0107617D01*
X0439916Y0107617D01*
X0442009Y0108484D01*
X0443610Y0110086D01*
X0444477Y0112178D01*
X0444477Y0114444D01*
X0443610Y0116536D01*
X0442009Y0118138D01*
X0439916Y0119005D01*
X0437651Y0119005D01*
X0435558Y0118138D01*
X0433957Y0116536D01*
X0433090Y0114444D01*
X0433090Y0112178D01*
X0433957Y0110086D01*
X0435558Y0108484D01*
X0434942Y0109100D02*
X0413301Y0109100D01*
X0412977Y0108776D02*
X0413633Y0109432D01*
X0414179Y0110183D01*
X0414600Y0111009D01*
X0414886Y0111892D01*
X0415031Y0112808D01*
X0415031Y0112878D01*
X0409532Y0112878D01*
X0409532Y0113665D01*
X0415031Y0113665D01*
X0415031Y0113735D01*
X0414886Y0114652D01*
X0414600Y0115534D01*
X0414179Y0116361D01*
X0413633Y0117111D01*
X0412977Y0117767D01*
X0412227Y0118312D01*
X0411400Y0118734D01*
X0410518Y0119020D01*
X0409602Y0119165D01*
X0409531Y0119165D01*
X0409531Y0113665D01*
X0408744Y0113665D01*
X0408744Y0112878D01*
X0403244Y0112878D01*
X0403244Y0112808D01*
X0403389Y0111892D01*
X0403676Y0111009D01*
X0404097Y0110183D01*
X0404642Y0109432D01*
X0405298Y0108776D01*
X0406049Y0108231D01*
X0406875Y0107810D01*
X0407758Y0107523D01*
X0408674Y0107378D01*
X0408744Y0107378D01*
X0408744Y0112878D01*
X0409531Y0112878D01*
X0409531Y0107378D01*
X0409602Y0107378D01*
X0410518Y0107523D01*
X0411400Y0107810D01*
X0412227Y0108231D01*
X0412977Y0108776D01*
X0412341Y0108314D02*
X0425793Y0108314D01*
X0424870Y0107528D02*
X0410534Y0107528D01*
X0409531Y0107528D02*
X0408744Y0107528D01*
X0408744Y0108314D02*
X0409531Y0108314D01*
X0409531Y0109100D02*
X0408744Y0109100D01*
X0408744Y0109886D02*
X0409531Y0109886D01*
X0409531Y0110672D02*
X0408744Y0110672D01*
X0408744Y0111458D02*
X0409531Y0111458D01*
X0409531Y0112244D02*
X0408744Y0112244D01*
X0408744Y0113030D02*
X0385383Y0113030D01*
X0385383Y0113815D02*
X0403257Y0113815D01*
X0403244Y0113735D02*
X0403244Y0113665D01*
X0408744Y0113665D01*
X0408744Y0119165D01*
X0408674Y0119165D01*
X0407758Y0119020D01*
X0406875Y0118734D01*
X0406049Y0118312D01*
X0405298Y0117767D01*
X0404642Y0117111D01*
X0404097Y0116361D01*
X0403676Y0115534D01*
X0403389Y0114652D01*
X0403244Y0113735D01*
X0403381Y0114601D02*
X0385317Y0114601D01*
X0385383Y0114444D02*
X0384516Y0116536D01*
X0382914Y0118138D01*
X0380822Y0119005D01*
X0378556Y0119005D01*
X0376464Y0118138D01*
X0374862Y0116536D01*
X0373995Y0114444D01*
X0373995Y0112178D01*
X0374862Y0110086D01*
X0376464Y0108484D01*
X0378556Y0107617D01*
X0380822Y0107617D01*
X0382914Y0108484D01*
X0384516Y0110086D01*
X0385383Y0112178D01*
X0385383Y0114444D01*
X0384992Y0115387D02*
X0403628Y0115387D01*
X0404002Y0116173D02*
X0384666Y0116173D01*
X0384093Y0116959D02*
X0404532Y0116959D01*
X0405276Y0117745D02*
X0383307Y0117745D01*
X0381965Y0118531D02*
X0406478Y0118531D01*
X0408744Y0118531D02*
X0409531Y0118531D01*
X0409531Y0117745D02*
X0408744Y0117745D01*
X0408744Y0116959D02*
X0409531Y0116959D01*
X0409531Y0116173D02*
X0408744Y0116173D01*
X0408744Y0115387D02*
X0409531Y0115387D01*
X0409531Y0114601D02*
X0408744Y0114601D01*
X0408744Y0113815D02*
X0409531Y0113815D01*
X0409532Y0113030D02*
X0433090Y0113030D01*
X0433090Y0113815D02*
X0415019Y0113815D01*
X0414894Y0114601D02*
X0433155Y0114601D01*
X0433481Y0115387D02*
X0414647Y0115387D01*
X0414274Y0116173D02*
X0433806Y0116173D01*
X0434379Y0116959D02*
X0413744Y0116959D01*
X0412999Y0117745D02*
X0435165Y0117745D01*
X0436507Y0118531D02*
X0411798Y0118531D01*
X0414942Y0112244D02*
X0433090Y0112244D01*
X0433388Y0111458D02*
X0414745Y0111458D01*
X0414428Y0110672D02*
X0433714Y0110672D01*
X0434156Y0109886D02*
X0413963Y0109886D01*
X0407742Y0107528D02*
X0393288Y0107528D01*
X0392639Y0108177D02*
X0394240Y0106576D01*
X0395107Y0104483D01*
X0395107Y0102218D01*
X0394240Y0100125D01*
X0392639Y0098524D01*
X0390546Y0097657D01*
X0388281Y0097657D01*
X0386188Y0098524D01*
X0384587Y0100125D01*
X0383720Y0102218D01*
X0383720Y0104483D01*
X0384587Y0106576D01*
X0386188Y0108177D01*
X0388281Y0109044D01*
X0390546Y0109044D01*
X0392639Y0108177D01*
X0392308Y0108314D02*
X0405934Y0108314D01*
X0404975Y0109100D02*
X0383530Y0109100D01*
X0384316Y0109886D02*
X0404313Y0109886D01*
X0403848Y0110672D02*
X0384759Y0110672D01*
X0385084Y0111458D02*
X0403530Y0111458D01*
X0403333Y0112244D02*
X0385383Y0112244D01*
X0386518Y0108314D02*
X0382504Y0108314D01*
X0384753Y0106742D02*
X0338995Y0106742D01*
X0339122Y0106615D02*
X0337520Y0108217D01*
X0335428Y0109083D01*
X0333163Y0109083D01*
X0331070Y0108217D01*
X0329468Y0106615D01*
X0328602Y0104522D01*
X0328602Y0102257D01*
X0329468Y0100165D01*
X0331070Y0098563D01*
X0333163Y0097696D01*
X0335428Y0097696D01*
X0337520Y0098563D01*
X0339122Y0100165D01*
X0339989Y0102257D01*
X0339989Y0104522D01*
X0339122Y0106615D01*
X0339395Y0105956D02*
X0384330Y0105956D01*
X0384004Y0105170D02*
X0339721Y0105170D01*
X0339989Y0104385D02*
X0383720Y0104385D01*
X0383720Y0103599D02*
X0339989Y0103599D01*
X0339989Y0102813D02*
X0383720Y0102813D01*
X0383799Y0102027D02*
X0339894Y0102027D01*
X0339568Y0101241D02*
X0384124Y0101241D01*
X0384450Y0100455D02*
X0339242Y0100455D01*
X0338627Y0099669D02*
X0385043Y0099669D01*
X0385829Y0098883D02*
X0337841Y0098883D01*
X0336396Y0098097D02*
X0387217Y0098097D01*
X0391609Y0098097D02*
X0426682Y0098097D01*
X0425238Y0098883D02*
X0392998Y0098883D01*
X0393784Y0099669D02*
X0424452Y0099669D01*
X0423836Y0100455D02*
X0394377Y0100455D01*
X0394702Y0101241D02*
X0423511Y0101241D01*
X0423185Y0102027D02*
X0395028Y0102027D01*
X0395107Y0102813D02*
X0423090Y0102813D01*
X0423090Y0103599D02*
X0395107Y0103599D01*
X0395107Y0104385D02*
X0423090Y0104385D01*
X0423358Y0105170D02*
X0394822Y0105170D01*
X0394497Y0105956D02*
X0423684Y0105956D01*
X0424084Y0106742D02*
X0394074Y0106742D01*
X0385539Y0107528D02*
X0338209Y0107528D01*
X0337285Y0108314D02*
X0341481Y0108314D01*
X0341070Y0108484D02*
X0343163Y0107617D01*
X0345428Y0107617D01*
X0347520Y0108484D01*
X0349122Y0110086D01*
X0349989Y0112178D01*
X0349989Y0114444D01*
X0349122Y0116536D01*
X0347520Y0118138D01*
X0345428Y0119005D01*
X0343163Y0119005D01*
X0341070Y0118138D01*
X0339468Y0116536D01*
X0338602Y0114444D01*
X0338602Y0112178D01*
X0339468Y0110086D01*
X0341070Y0108484D01*
X0340454Y0109100D02*
X0318530Y0109100D01*
X0317875Y0108445D02*
X0319476Y0110046D01*
X0320343Y0112139D01*
X0320343Y0114404D01*
X0319476Y0116497D01*
X0317875Y0118099D01*
X0315782Y0118965D01*
X0313517Y0118965D01*
X0311424Y0118099D01*
X0309823Y0116497D01*
X0308956Y0114404D01*
X0308956Y0112139D01*
X0309823Y0110046D01*
X0311424Y0108445D01*
X0313517Y0107578D01*
X0315782Y0107578D01*
X0317875Y0108445D01*
X0317559Y0108314D02*
X0331305Y0108314D01*
X0330382Y0107528D02*
X0298800Y0107528D01*
X0298150Y0108177D02*
X0296058Y0109044D01*
X0293793Y0109044D01*
X0291700Y0108177D01*
X0290098Y0106576D01*
X0289231Y0104483D01*
X0289231Y0102218D01*
X0290098Y0100125D01*
X0291700Y0098524D01*
X0293793Y0097657D01*
X0296058Y0097657D01*
X0298150Y0098524D01*
X0299752Y0100125D01*
X0300619Y0102218D01*
X0300619Y0104483D01*
X0299752Y0106576D01*
X0298150Y0108177D01*
X0297820Y0108314D02*
X0311740Y0108314D01*
X0310769Y0109100D02*
X0289042Y0109100D01*
X0288426Y0108484D02*
X0290028Y0110086D01*
X0290894Y0112178D01*
X0290894Y0114444D01*
X0290028Y0116536D01*
X0288426Y0118138D01*
X0286333Y0119005D01*
X0284068Y0119005D01*
X0281976Y0118138D01*
X0280374Y0116536D01*
X0279507Y0114444D01*
X0279507Y0112178D01*
X0280374Y0110086D01*
X0281976Y0108484D01*
X0284068Y0107617D01*
X0286333Y0107617D01*
X0288426Y0108484D01*
X0288015Y0108314D02*
X0292030Y0108314D01*
X0291051Y0107528D02*
X0267248Y0107528D01*
X0267248Y0106742D02*
X0290265Y0106742D01*
X0289842Y0105956D02*
X0267248Y0105956D01*
X0267248Y0105170D02*
X0289516Y0105170D01*
X0289231Y0104385D02*
X0267248Y0104385D01*
X0267248Y0103599D02*
X0289231Y0103599D01*
X0289231Y0102813D02*
X0267248Y0102813D01*
X0267248Y0102027D02*
X0289311Y0102027D01*
X0289636Y0101241D02*
X0267248Y0101241D01*
X0267248Y0100455D02*
X0289962Y0100455D01*
X0290554Y0099669D02*
X0267248Y0099669D01*
X0267248Y0098883D02*
X0291340Y0098883D01*
X0292729Y0098097D02*
X0267248Y0098097D01*
X0267248Y0108314D02*
X0282386Y0108314D01*
X0281360Y0109100D02*
X0267248Y0109100D01*
X0267248Y0109886D02*
X0280574Y0109886D01*
X0280131Y0110672D02*
X0267248Y0110672D01*
X0267248Y0111458D02*
X0279806Y0111458D01*
X0279507Y0112244D02*
X0267248Y0112244D01*
X0267248Y0113030D02*
X0279507Y0113030D01*
X0279507Y0113815D02*
X0267248Y0113815D01*
X0267248Y0114601D02*
X0279572Y0114601D01*
X0279898Y0115387D02*
X0267248Y0115387D01*
X0267248Y0116173D02*
X0280224Y0116173D01*
X0280797Y0116959D02*
X0267248Y0116959D01*
X0267248Y0117745D02*
X0281583Y0117745D01*
X0282924Y0118531D02*
X0267248Y0118531D01*
X0267248Y0119317D02*
X0456899Y0119317D01*
X0456899Y0120103D02*
X0267248Y0120103D01*
X0267248Y0120889D02*
X0456899Y0120889D01*
X0456899Y0121675D02*
X0267248Y0121675D01*
X0267248Y0122461D02*
X0456899Y0122461D01*
X0456899Y0123246D02*
X0267248Y0123246D01*
X0267248Y0124032D02*
X0456899Y0124032D01*
X0456899Y0124818D02*
X0267248Y0124818D01*
X0267248Y0125604D02*
X0456899Y0125604D01*
X0456899Y0126390D02*
X0267248Y0126390D01*
X0267248Y0127176D02*
X0456899Y0127176D01*
X0456899Y0127962D02*
X0267248Y0127962D01*
X0267248Y0128748D02*
X0456899Y0128748D01*
X0456899Y0129534D02*
X0267248Y0129534D01*
X0267248Y0130320D02*
X0456899Y0130320D01*
X0456899Y0131106D02*
X0267248Y0131106D01*
X0267248Y0131891D02*
X0456899Y0131891D01*
X0456899Y0132677D02*
X0267248Y0132677D01*
X0267248Y0133463D02*
X0456899Y0133463D01*
X0456899Y0134249D02*
X0267248Y0134249D01*
X0267248Y0135035D02*
X0456899Y0135035D01*
X0456899Y0135821D02*
X0267248Y0135821D01*
X0267248Y0136607D02*
X0456899Y0136607D01*
X0456899Y0137393D02*
X0267248Y0137393D01*
X0267248Y0138179D02*
X0456899Y0138179D01*
X0456899Y0138965D02*
X0267248Y0138965D01*
X0267248Y0139751D02*
X0456899Y0139751D01*
X0456899Y0140537D02*
X0267248Y0140537D01*
X0267248Y0141322D02*
X0456899Y0141322D01*
X0456899Y0142108D02*
X0267248Y0142108D01*
X0267248Y0142894D02*
X0456899Y0142894D01*
X0456899Y0143680D02*
X0267248Y0143680D01*
X0267248Y0144466D02*
X0456899Y0144466D01*
X0456899Y0145252D02*
X0267248Y0145252D01*
X0267248Y0146038D02*
X0456899Y0146038D01*
X0456899Y0146824D02*
X0267248Y0146824D01*
X0267248Y0147610D02*
X0292091Y0147610D01*
X0291670Y0147784D02*
X0293763Y0146917D01*
X0296028Y0146917D01*
X0298120Y0147784D01*
X0299722Y0149386D01*
X0300589Y0151478D01*
X0300589Y0153744D01*
X0299722Y0155836D01*
X0298120Y0157438D01*
X0296028Y0158305D01*
X0293763Y0158305D01*
X0291670Y0157438D01*
X0290068Y0155836D01*
X0289202Y0153744D01*
X0289202Y0151478D01*
X0290068Y0149386D01*
X0291670Y0147784D01*
X0291059Y0148396D02*
X0267248Y0148396D01*
X0267248Y0149182D02*
X0290273Y0149182D01*
X0289827Y0149967D02*
X0267248Y0149967D01*
X0267248Y0150753D02*
X0289502Y0150753D01*
X0289202Y0151539D02*
X0267248Y0151539D01*
X0267248Y0152325D02*
X0289202Y0152325D01*
X0289202Y0153111D02*
X0267248Y0153111D01*
X0267248Y0153897D02*
X0289265Y0153897D01*
X0289591Y0154683D02*
X0267248Y0154683D01*
X0267248Y0155469D02*
X0289916Y0155469D01*
X0290487Y0156255D02*
X0267248Y0156255D01*
X0267248Y0157041D02*
X0291273Y0157041D01*
X0292608Y0157827D02*
X0267248Y0157827D01*
X0267248Y0158613D02*
X0456899Y0158613D01*
X0456899Y0159398D02*
X0267248Y0159398D01*
X0267248Y0160184D02*
X0456899Y0160184D01*
X0456899Y0160970D02*
X0267248Y0160970D01*
X0297182Y0157827D02*
X0332008Y0157827D01*
X0331070Y0157438D02*
X0333163Y0158305D01*
X0335428Y0158305D01*
X0337520Y0157438D01*
X0339122Y0155836D01*
X0339989Y0153744D01*
X0339989Y0151478D01*
X0339122Y0149386D01*
X0337520Y0147784D01*
X0335428Y0146917D01*
X0333163Y0146917D01*
X0331070Y0147784D01*
X0329468Y0149386D01*
X0328602Y0151478D01*
X0328602Y0153744D01*
X0329468Y0155836D01*
X0331070Y0157438D01*
X0330673Y0157041D02*
X0298518Y0157041D01*
X0299304Y0156255D02*
X0329887Y0156255D01*
X0329316Y0155469D02*
X0299874Y0155469D01*
X0300200Y0154683D02*
X0328991Y0154683D01*
X0328665Y0153897D02*
X0300525Y0153897D01*
X0300589Y0153111D02*
X0328602Y0153111D01*
X0328602Y0152325D02*
X0300589Y0152325D01*
X0300589Y0151539D02*
X0328602Y0151539D01*
X0328902Y0150753D02*
X0300289Y0150753D01*
X0299963Y0149967D02*
X0329227Y0149967D01*
X0329673Y0149182D02*
X0299518Y0149182D01*
X0298732Y0148396D02*
X0330459Y0148396D01*
X0331491Y0147610D02*
X0297699Y0147610D01*
X0337099Y0147610D02*
X0386579Y0147610D01*
X0386158Y0147784D02*
X0388251Y0146917D01*
X0390516Y0146917D01*
X0392609Y0147784D01*
X0394210Y0149386D01*
X0395077Y0151478D01*
X0395077Y0153744D01*
X0394210Y0155836D01*
X0392609Y0157438D01*
X0390516Y0158305D01*
X0388251Y0158305D01*
X0386158Y0157438D01*
X0384557Y0155836D01*
X0383690Y0153744D01*
X0383690Y0151478D01*
X0384557Y0149386D01*
X0386158Y0147784D01*
X0385547Y0148396D02*
X0338132Y0148396D01*
X0338918Y0149182D02*
X0384761Y0149182D01*
X0384316Y0149967D02*
X0339363Y0149967D01*
X0339689Y0150753D02*
X0383990Y0150753D01*
X0383690Y0151539D02*
X0339989Y0151539D01*
X0339989Y0152325D02*
X0383690Y0152325D01*
X0383690Y0153111D02*
X0339989Y0153111D01*
X0339925Y0153897D02*
X0383753Y0153897D01*
X0384079Y0154683D02*
X0339600Y0154683D01*
X0339274Y0155469D02*
X0384404Y0155469D01*
X0384975Y0156255D02*
X0338704Y0156255D01*
X0337918Y0157041D02*
X0385761Y0157041D01*
X0387097Y0157827D02*
X0336582Y0157827D01*
X0391670Y0157827D02*
X0426497Y0157827D01*
X0425558Y0157438D02*
X0423957Y0155836D01*
X0423090Y0153744D01*
X0423090Y0151478D01*
X0423957Y0149386D01*
X0425558Y0147784D01*
X0427651Y0146917D01*
X0429916Y0146917D01*
X0432009Y0147784D01*
X0433610Y0149386D01*
X0434477Y0151478D01*
X0434477Y0153744D01*
X0433610Y0155836D01*
X0432009Y0157438D01*
X0429916Y0158305D01*
X0427651Y0158305D01*
X0425558Y0157438D01*
X0425161Y0157041D02*
X0393006Y0157041D01*
X0393792Y0156255D02*
X0424375Y0156255D01*
X0423804Y0155469D02*
X0394363Y0155469D01*
X0394688Y0154683D02*
X0423479Y0154683D01*
X0423153Y0153897D02*
X0395014Y0153897D01*
X0395077Y0153111D02*
X0423090Y0153111D01*
X0423090Y0152325D02*
X0395077Y0152325D01*
X0395077Y0151539D02*
X0423090Y0151539D01*
X0423390Y0150753D02*
X0394777Y0150753D01*
X0394451Y0149967D02*
X0423716Y0149967D01*
X0424161Y0149182D02*
X0394006Y0149182D01*
X0393220Y0148396D02*
X0424947Y0148396D01*
X0425979Y0147610D02*
X0392188Y0147610D01*
X0431588Y0147610D02*
X0456899Y0147610D01*
X0456899Y0148396D02*
X0432620Y0148396D01*
X0433406Y0149182D02*
X0456899Y0149182D01*
X0456899Y0149967D02*
X0433851Y0149967D01*
X0434177Y0150753D02*
X0456899Y0150753D01*
X0456899Y0151539D02*
X0434477Y0151539D01*
X0434477Y0152325D02*
X0456899Y0152325D01*
X0456899Y0153111D02*
X0434477Y0153111D01*
X0434414Y0153897D02*
X0456899Y0153897D01*
X0456899Y0154683D02*
X0434088Y0154683D01*
X0433763Y0155469D02*
X0456899Y0155469D01*
X0456899Y0156255D02*
X0433192Y0156255D01*
X0432406Y0157041D02*
X0456899Y0157041D01*
X0456899Y0157827D02*
X0431070Y0157827D01*
X0441060Y0118531D02*
X0456899Y0118531D01*
X0456899Y0117745D02*
X0442402Y0117745D01*
X0443187Y0116959D02*
X0456899Y0116959D01*
X0456899Y0116173D02*
X0443761Y0116173D01*
X0444086Y0115387D02*
X0456899Y0115387D01*
X0456899Y0114601D02*
X0444412Y0114601D01*
X0444477Y0113815D02*
X0456899Y0113815D01*
X0456899Y0113030D02*
X0444477Y0113030D01*
X0444477Y0112244D02*
X0456899Y0112244D01*
X0456899Y0111458D02*
X0444179Y0111458D01*
X0443853Y0110672D02*
X0456899Y0110672D01*
X0456899Y0109886D02*
X0443410Y0109886D01*
X0442625Y0109100D02*
X0456899Y0109100D01*
X0456899Y0108314D02*
X0441598Y0108314D01*
X0377413Y0118531D02*
X0346572Y0118531D01*
X0347913Y0117745D02*
X0376071Y0117745D01*
X0375285Y0116959D02*
X0348699Y0116959D01*
X0349273Y0116173D02*
X0374712Y0116173D01*
X0374386Y0115387D02*
X0349598Y0115387D01*
X0349924Y0114601D02*
X0374061Y0114601D01*
X0373995Y0113815D02*
X0349989Y0113815D01*
X0349989Y0113030D02*
X0373995Y0113030D01*
X0373995Y0112244D02*
X0349989Y0112244D01*
X0349690Y0111458D02*
X0374294Y0111458D01*
X0374619Y0110672D02*
X0349365Y0110672D01*
X0348922Y0109886D02*
X0375062Y0109886D01*
X0375848Y0109100D02*
X0348136Y0109100D01*
X0347110Y0108314D02*
X0376874Y0108314D01*
X0342019Y0118531D02*
X0316831Y0118531D01*
X0318228Y0117745D02*
X0340677Y0117745D01*
X0339891Y0116959D02*
X0319014Y0116959D01*
X0319611Y0116173D02*
X0339318Y0116173D01*
X0338992Y0115387D02*
X0319936Y0115387D01*
X0320262Y0114601D02*
X0338667Y0114601D01*
X0338602Y0113815D02*
X0320343Y0113815D01*
X0320343Y0113030D02*
X0338602Y0113030D01*
X0338602Y0112244D02*
X0320343Y0112244D01*
X0320061Y0111458D02*
X0338900Y0111458D01*
X0339226Y0110672D02*
X0319736Y0110672D01*
X0319316Y0109886D02*
X0339668Y0109886D01*
X0329596Y0106742D02*
X0299585Y0106742D01*
X0300009Y0105956D02*
X0329196Y0105956D01*
X0328870Y0105170D02*
X0300334Y0105170D01*
X0300619Y0104385D02*
X0328602Y0104385D01*
X0328602Y0103599D02*
X0300619Y0103599D01*
X0300619Y0102813D02*
X0328602Y0102813D01*
X0328697Y0102027D02*
X0300540Y0102027D01*
X0300214Y0101241D02*
X0329023Y0101241D01*
X0329348Y0100455D02*
X0299889Y0100455D01*
X0299296Y0099669D02*
X0329964Y0099669D01*
X0330750Y0098883D02*
X0298510Y0098883D01*
X0297121Y0098097D02*
X0332194Y0098097D01*
X0309983Y0109886D02*
X0289828Y0109886D01*
X0290270Y0110672D02*
X0309564Y0110672D01*
X0309238Y0111458D02*
X0290596Y0111458D01*
X0290894Y0112244D02*
X0308956Y0112244D01*
X0308956Y0113030D02*
X0290894Y0113030D01*
X0290894Y0113815D02*
X0308956Y0113815D01*
X0309038Y0114601D02*
X0290829Y0114601D01*
X0290504Y0115387D02*
X0309363Y0115387D01*
X0309689Y0116173D02*
X0290178Y0116173D01*
X0289605Y0116959D02*
X0310285Y0116959D01*
X0311071Y0117745D02*
X0288819Y0117745D01*
X0287477Y0118531D02*
X0312468Y0118531D01*
D15*
X0333783Y0145201D02*
X0334177Y0145201D01*
X0334177Y0158587D01*
X0294807Y0158980D02*
X0294807Y0145988D01*
X0295201Y0145594D01*
X0288902Y0152287D02*
X0435752Y0152681D01*
X0436146Y0153075D01*
X0428665Y0159768D02*
X0428665Y0144413D01*
X0391657Y0142445D02*
X0389295Y0144807D01*
X0389295Y0158980D01*
D16*
X0108896Y0080240D02*
X0108896Y0008980D01*
X0139295Y0008980D01*
X0139295Y0018823D01*
X0159768Y0018823D01*
X0159768Y0070004D01*
X0159768Y0061343D01*
X0154256Y0061343D01*
X0154256Y0061390D01*
X0154650Y0061390D01*
X0154650Y0065358D01*
X0155043Y0065358D01*
X0155043Y0061390D01*
X0156572Y0061390D01*
X0159012Y0063830D01*
X0159012Y0065358D01*
X0155043Y0065358D01*
X0155043Y0065752D01*
X0154650Y0065752D01*
X0154650Y0069720D01*
X0154256Y0069720D01*
X0154256Y0070004D01*
X0159768Y0070004D01*
X0170004Y0070004D01*
X0170004Y0008980D01*
X0139295Y0008980D01*
X0139295Y0070004D01*
X0145594Y0070004D01*
X0145594Y0069720D01*
X0145043Y0069720D01*
X0145043Y0065752D01*
X0144650Y0065752D01*
X0144650Y0069720D01*
X0143121Y0069720D01*
X0140681Y0067280D01*
X0140681Y0065752D01*
X0144650Y0065752D01*
X0144650Y0065358D01*
X0145043Y0065358D01*
X0145043Y0061390D01*
X0145594Y0061390D01*
X0145594Y0061343D01*
X0139295Y0061343D01*
X0139295Y0070004D01*
X0121579Y0070004D01*
X0121579Y0080240D01*
X0108896Y0080240D01*
X0108896Y0080694D01*
X0108254Y0081337D01*
X0002597Y0081337D01*
X0002597Y0161820D01*
X0121579Y0161820D01*
X0121579Y0080240D01*
X0108896Y0080240D01*
X0108896Y0080191D02*
X0121579Y0080191D01*
X0121579Y0079799D02*
X0108896Y0079799D01*
X0108896Y0079407D02*
X0121579Y0079407D01*
X0121579Y0079015D02*
X0108896Y0079015D01*
X0108896Y0078623D02*
X0121579Y0078623D01*
X0121579Y0078230D02*
X0108896Y0078230D01*
X0108896Y0077838D02*
X0121579Y0077838D01*
X0121579Y0077446D02*
X0108896Y0077446D01*
X0108896Y0077054D02*
X0121579Y0077054D01*
X0121579Y0076662D02*
X0108896Y0076662D01*
X0108896Y0076269D02*
X0121579Y0076269D01*
X0121579Y0075877D02*
X0108896Y0075877D01*
X0108896Y0075485D02*
X0121579Y0075485D01*
X0121579Y0075093D02*
X0108896Y0075093D01*
X0108896Y0074701D02*
X0121579Y0074701D01*
X0121579Y0074308D02*
X0108896Y0074308D01*
X0108896Y0073916D02*
X0121579Y0073916D01*
X0121579Y0073524D02*
X0108896Y0073524D01*
X0108896Y0073132D02*
X0121579Y0073132D01*
X0121579Y0072739D02*
X0108896Y0072739D01*
X0108896Y0072347D02*
X0121579Y0072347D01*
X0121579Y0071955D02*
X0108896Y0071955D01*
X0108896Y0071563D02*
X0121579Y0071563D01*
X0121579Y0071171D02*
X0108896Y0071171D01*
X0108896Y0070778D02*
X0121579Y0070778D01*
X0121579Y0070386D02*
X0108896Y0070386D01*
X0108896Y0069994D02*
X0139295Y0069994D01*
X0145594Y0069994D01*
X0145043Y0069602D02*
X0144650Y0069602D01*
X0144650Y0069210D02*
X0145043Y0069210D01*
X0145043Y0068817D02*
X0144650Y0068817D01*
X0144650Y0068425D02*
X0145043Y0068425D01*
X0145043Y0068033D02*
X0144650Y0068033D01*
X0144650Y0067641D02*
X0145043Y0067641D01*
X0145043Y0067248D02*
X0144650Y0067248D01*
X0144650Y0066856D02*
X0145043Y0066856D01*
X0145043Y0066464D02*
X0144650Y0066464D01*
X0144650Y0066072D02*
X0145043Y0066072D01*
X0144650Y0065680D02*
X0139295Y0065680D01*
X0135043Y0065680D01*
X0135043Y0065752D02*
X0139012Y0065752D01*
X0139012Y0067280D01*
X0136572Y0069720D01*
X0135043Y0069720D01*
X0135043Y0065752D01*
X0134650Y0065752D01*
X0134650Y0069720D01*
X0133121Y0069720D01*
X0130681Y0067280D01*
X0130681Y0065752D01*
X0134650Y0065752D01*
X0134650Y0065358D01*
X0135043Y0065358D01*
X0135043Y0061390D01*
X0136572Y0061390D01*
X0139012Y0063830D01*
X0139012Y0065358D01*
X0135043Y0065358D01*
X0135043Y0065752D01*
X0135043Y0066072D02*
X0134650Y0066072D01*
X0134650Y0066464D02*
X0135043Y0066464D01*
X0135043Y0066856D02*
X0134650Y0066856D01*
X0134650Y0067248D02*
X0135043Y0067248D01*
X0135043Y0067641D02*
X0134650Y0067641D01*
X0134650Y0068033D02*
X0135043Y0068033D01*
X0135043Y0068425D02*
X0134650Y0068425D01*
X0134650Y0068817D02*
X0135043Y0068817D01*
X0135043Y0069210D02*
X0134650Y0069210D01*
X0134650Y0069602D02*
X0135043Y0069602D01*
X0136690Y0069602D02*
X0139295Y0069602D01*
X0143002Y0069602D01*
X0142610Y0069210D02*
X0139295Y0069210D01*
X0137083Y0069210D01*
X0137475Y0068817D02*
X0139295Y0068817D01*
X0142218Y0068817D01*
X0141826Y0068425D02*
X0139295Y0068425D01*
X0137867Y0068425D01*
X0138259Y0068033D02*
X0139295Y0068033D01*
X0141434Y0068033D01*
X0141041Y0067641D02*
X0139295Y0067641D01*
X0138652Y0067641D01*
X0139012Y0067248D02*
X0139295Y0067248D01*
X0140681Y0067248D01*
X0140681Y0066856D02*
X0139295Y0066856D01*
X0139012Y0066856D01*
X0139012Y0066464D02*
X0139295Y0066464D01*
X0140681Y0066464D01*
X0140681Y0066072D02*
X0139295Y0066072D01*
X0139012Y0066072D01*
X0139012Y0065287D02*
X0139295Y0065287D01*
X0140681Y0065287D01*
X0140681Y0065358D02*
X0140681Y0063830D01*
X0143121Y0061390D01*
X0144650Y0061390D01*
X0144650Y0065358D01*
X0140681Y0065358D01*
X0140681Y0064895D02*
X0139295Y0064895D01*
X0139012Y0064895D01*
X0139012Y0064503D02*
X0139295Y0064503D01*
X0140681Y0064503D01*
X0140681Y0064111D02*
X0139295Y0064111D01*
X0139012Y0064111D01*
X0138901Y0063719D02*
X0139295Y0063719D01*
X0140792Y0063719D01*
X0141184Y0063326D02*
X0139295Y0063326D01*
X0138508Y0063326D01*
X0138116Y0062934D02*
X0139295Y0062934D01*
X0141577Y0062934D01*
X0141969Y0062542D02*
X0139295Y0062542D01*
X0137724Y0062542D01*
X0137332Y0062150D02*
X0139295Y0062150D01*
X0142361Y0062150D01*
X0142753Y0061758D02*
X0139295Y0061758D01*
X0136940Y0061758D01*
X0135043Y0061758D02*
X0134650Y0061758D01*
X0134650Y0061390D02*
X0134650Y0065358D01*
X0130681Y0065358D01*
X0130681Y0063830D01*
X0133121Y0061390D01*
X0134650Y0061390D01*
X0134650Y0062150D02*
X0135043Y0062150D01*
X0135043Y0062542D02*
X0134650Y0062542D01*
X0134650Y0062934D02*
X0135043Y0062934D01*
X0135043Y0063326D02*
X0134650Y0063326D01*
X0134650Y0063719D02*
X0135043Y0063719D01*
X0135043Y0064111D02*
X0134650Y0064111D01*
X0134650Y0064503D02*
X0135043Y0064503D01*
X0135043Y0064895D02*
X0134650Y0064895D01*
X0134650Y0065287D02*
X0135043Y0065287D01*
X0134650Y0065680D02*
X0108896Y0065680D01*
X0108896Y0066072D02*
X0130681Y0066072D01*
X0130681Y0066464D02*
X0108896Y0066464D01*
X0108896Y0066856D02*
X0130681Y0066856D01*
X0130681Y0067248D02*
X0108896Y0067248D01*
X0108896Y0067641D02*
X0131041Y0067641D01*
X0131434Y0068033D02*
X0108896Y0068033D01*
X0108896Y0068425D02*
X0131826Y0068425D01*
X0132218Y0068817D02*
X0108896Y0068817D01*
X0108896Y0069210D02*
X0132610Y0069210D01*
X0133002Y0069602D02*
X0108896Y0069602D01*
X0108896Y0065287D02*
X0130681Y0065287D01*
X0130681Y0064895D02*
X0108896Y0064895D01*
X0108896Y0064503D02*
X0130681Y0064503D01*
X0130681Y0064111D02*
X0108896Y0064111D01*
X0108896Y0063719D02*
X0130792Y0063719D01*
X0131184Y0063326D02*
X0108896Y0063326D01*
X0108896Y0062934D02*
X0131577Y0062934D01*
X0131969Y0062542D02*
X0108896Y0062542D01*
X0108896Y0062150D02*
X0132361Y0062150D01*
X0132753Y0061758D02*
X0108896Y0061758D01*
X0108896Y0061365D02*
X0139295Y0061365D01*
X0145594Y0061365D01*
X0145043Y0061758D02*
X0144650Y0061758D01*
X0144650Y0062150D02*
X0145043Y0062150D01*
X0145043Y0062542D02*
X0144650Y0062542D01*
X0144650Y0062934D02*
X0145043Y0062934D01*
X0145043Y0063326D02*
X0144650Y0063326D01*
X0144650Y0063719D02*
X0145043Y0063719D01*
X0145043Y0064111D02*
X0144650Y0064111D01*
X0144650Y0064503D02*
X0145043Y0064503D01*
X0145043Y0064895D02*
X0144650Y0064895D01*
X0144650Y0065287D02*
X0145043Y0065287D01*
X0139295Y0060973D02*
X0108896Y0060973D01*
X0108896Y0060581D02*
X0139295Y0060581D01*
X0139295Y0060189D02*
X0108896Y0060189D01*
X0108896Y0059796D02*
X0139295Y0059796D01*
X0139295Y0059404D02*
X0136888Y0059404D01*
X0136572Y0059720D02*
X0135043Y0059720D01*
X0135043Y0055752D01*
X0134650Y0055752D01*
X0134650Y0059720D01*
X0133121Y0059720D01*
X0130681Y0057280D01*
X0130681Y0055752D01*
X0134650Y0055752D01*
X0134650Y0055358D01*
X0135043Y0055358D01*
X0135043Y0051390D01*
X0136572Y0051390D01*
X0139012Y0053830D01*
X0139012Y0055358D01*
X0135043Y0055358D01*
X0135043Y0055752D01*
X0139012Y0055752D01*
X0139012Y0057280D01*
X0136572Y0059720D01*
X0137280Y0059012D02*
X0139295Y0059012D01*
X0139295Y0058620D02*
X0137672Y0058620D01*
X0138065Y0058228D02*
X0139295Y0058228D01*
X0139295Y0057835D02*
X0138457Y0057835D01*
X0138849Y0057443D02*
X0139295Y0057443D01*
X0139295Y0057051D02*
X0139012Y0057051D01*
X0139012Y0056659D02*
X0139295Y0056659D01*
X0139295Y0056267D02*
X0139012Y0056267D01*
X0139012Y0055874D02*
X0139295Y0055874D01*
X0139295Y0055482D02*
X0135043Y0055482D01*
X0135043Y0055090D02*
X0134650Y0055090D01*
X0134650Y0055358D02*
X0134650Y0051390D01*
X0133121Y0051390D01*
X0130681Y0053830D01*
X0130681Y0055358D01*
X0134650Y0055358D01*
X0134650Y0055482D02*
X0108896Y0055482D01*
X0108896Y0055090D02*
X0130681Y0055090D01*
X0130681Y0054698D02*
X0108896Y0054698D01*
X0108896Y0054305D02*
X0130681Y0054305D01*
X0130681Y0053913D02*
X0108896Y0053913D01*
X0108896Y0053521D02*
X0130990Y0053521D01*
X0131382Y0053129D02*
X0108896Y0053129D01*
X0108896Y0052737D02*
X0131774Y0052737D01*
X0132166Y0052344D02*
X0108896Y0052344D01*
X0108896Y0051952D02*
X0132559Y0051952D01*
X0132951Y0051560D02*
X0108896Y0051560D01*
X0108896Y0051168D02*
X0139295Y0051168D01*
X0139295Y0051560D02*
X0136742Y0051560D01*
X0137134Y0051952D02*
X0139295Y0051952D01*
X0139295Y0052344D02*
X0137526Y0052344D01*
X0137919Y0052737D02*
X0139295Y0052737D01*
X0139295Y0053129D02*
X0138311Y0053129D01*
X0138703Y0053521D02*
X0139295Y0053521D01*
X0139295Y0053913D02*
X0139012Y0053913D01*
X0139012Y0054305D02*
X0139295Y0054305D01*
X0139295Y0054698D02*
X0139012Y0054698D01*
X0139012Y0055090D02*
X0139295Y0055090D01*
X0135043Y0054698D02*
X0134650Y0054698D01*
X0134650Y0054305D02*
X0135043Y0054305D01*
X0135043Y0053913D02*
X0134650Y0053913D01*
X0134650Y0053521D02*
X0135043Y0053521D01*
X0135043Y0053129D02*
X0134650Y0053129D01*
X0134650Y0052737D02*
X0135043Y0052737D01*
X0135043Y0052344D02*
X0134650Y0052344D01*
X0134650Y0051952D02*
X0135043Y0051952D01*
X0135043Y0051560D02*
X0134650Y0051560D01*
X0139295Y0050776D02*
X0108896Y0050776D01*
X0108896Y0050383D02*
X0139295Y0050383D01*
X0139295Y0049991D02*
X0108896Y0049991D01*
X0108896Y0049599D02*
X0139295Y0049599D01*
X0139295Y0049207D02*
X0108896Y0049207D01*
X0108896Y0048815D02*
X0139295Y0048815D01*
X0139295Y0048422D02*
X0108896Y0048422D01*
X0108896Y0048030D02*
X0139295Y0048030D01*
X0139295Y0047638D02*
X0108896Y0047638D01*
X0108896Y0047246D02*
X0139295Y0047246D01*
X0139295Y0046853D02*
X0108896Y0046853D01*
X0108896Y0046461D02*
X0139295Y0046461D01*
X0139295Y0046069D02*
X0108896Y0046069D01*
X0108896Y0045677D02*
X0139295Y0045677D01*
X0139295Y0045285D02*
X0108896Y0045285D01*
X0108896Y0044892D02*
X0139295Y0044892D01*
X0139295Y0044500D02*
X0108896Y0044500D01*
X0108896Y0044108D02*
X0139295Y0044108D01*
X0139295Y0043716D02*
X0108896Y0043716D01*
X0108896Y0043324D02*
X0139295Y0043324D01*
X0139295Y0042931D02*
X0108896Y0042931D01*
X0108896Y0042539D02*
X0139295Y0042539D01*
X0139295Y0042147D02*
X0108896Y0042147D01*
X0108896Y0041755D02*
X0139295Y0041755D01*
X0139295Y0041363D02*
X0108896Y0041363D01*
X0108896Y0040970D02*
X0139295Y0040970D01*
X0139295Y0040578D02*
X0108896Y0040578D01*
X0108896Y0040186D02*
X0139295Y0040186D01*
X0139295Y0039794D02*
X0108896Y0039794D01*
X0108896Y0039401D02*
X0139295Y0039401D01*
X0139295Y0039009D02*
X0108896Y0039009D01*
X0108896Y0038617D02*
X0139295Y0038617D01*
X0139295Y0038225D02*
X0108896Y0038225D01*
X0108896Y0037833D02*
X0139295Y0037833D01*
X0139295Y0037440D02*
X0108896Y0037440D01*
X0108896Y0037048D02*
X0139295Y0037048D01*
X0139295Y0036656D02*
X0108896Y0036656D01*
X0108896Y0036264D02*
X0139295Y0036264D01*
X0139295Y0035872D02*
X0108896Y0035872D01*
X0108896Y0035479D02*
X0139295Y0035479D01*
X0139295Y0035087D02*
X0108896Y0035087D01*
X0108896Y0034695D02*
X0139295Y0034695D01*
X0139295Y0034303D02*
X0108896Y0034303D01*
X0108896Y0033910D02*
X0139295Y0033910D01*
X0139295Y0033518D02*
X0108896Y0033518D01*
X0108896Y0033126D02*
X0139295Y0033126D01*
X0139295Y0032734D02*
X0108896Y0032734D01*
X0108896Y0032342D02*
X0139295Y0032342D01*
X0139295Y0031949D02*
X0108896Y0031949D01*
X0108896Y0031557D02*
X0139295Y0031557D01*
X0139295Y0031165D02*
X0108896Y0031165D01*
X0108896Y0030773D02*
X0139295Y0030773D01*
X0139295Y0030381D02*
X0108896Y0030381D01*
X0108896Y0029988D02*
X0139295Y0029988D01*
X0139295Y0029596D02*
X0108896Y0029596D01*
X0108896Y0029204D02*
X0139295Y0029204D01*
X0139295Y0028812D02*
X0108896Y0028812D01*
X0108896Y0028420D02*
X0139295Y0028420D01*
X0139295Y0028027D02*
X0136926Y0028027D01*
X0136572Y0028382D02*
X0135043Y0028382D01*
X0135043Y0024413D01*
X0139012Y0024413D01*
X0139012Y0025942D01*
X0136572Y0028382D01*
X0137319Y0027635D02*
X0139295Y0027635D01*
X0139295Y0027243D02*
X0137711Y0027243D01*
X0138103Y0026851D02*
X0139295Y0026851D01*
X0139295Y0026458D02*
X0138495Y0026458D01*
X0138887Y0026066D02*
X0139295Y0026066D01*
X0139295Y0025674D02*
X0139012Y0025674D01*
X0139012Y0025282D02*
X0139295Y0025282D01*
X0139295Y0024890D02*
X0139012Y0024890D01*
X0139012Y0024497D02*
X0139295Y0024497D01*
X0139295Y0024105D02*
X0135043Y0024105D01*
X0135043Y0024020D02*
X0135043Y0024413D01*
X0134650Y0024413D01*
X0134650Y0024020D01*
X0135043Y0024020D01*
X0139012Y0024020D01*
X0139012Y0022491D01*
X0136572Y0020051D01*
X0135043Y0020051D01*
X0135043Y0024020D01*
X0135043Y0023713D02*
X0134650Y0023713D01*
X0134650Y0024020D02*
X0134650Y0020051D01*
X0133121Y0020051D01*
X0130681Y0022491D01*
X0130681Y0024020D01*
X0134650Y0024020D01*
X0134650Y0024105D02*
X0108896Y0024105D01*
X0108896Y0023713D02*
X0130681Y0023713D01*
X0130681Y0023321D02*
X0108896Y0023321D01*
X0108896Y0022929D02*
X0130681Y0022929D01*
X0130681Y0022536D02*
X0108896Y0022536D01*
X0108896Y0022144D02*
X0131028Y0022144D01*
X0131420Y0021752D02*
X0108896Y0021752D01*
X0108896Y0021360D02*
X0131813Y0021360D01*
X0132205Y0020967D02*
X0108896Y0020967D01*
X0108896Y0020575D02*
X0132597Y0020575D01*
X0132989Y0020183D02*
X0108896Y0020183D01*
X0108896Y0019791D02*
X0139295Y0019791D01*
X0139295Y0020183D02*
X0136704Y0020183D01*
X0137096Y0020575D02*
X0139295Y0020575D01*
X0139295Y0020967D02*
X0137488Y0020967D01*
X0137880Y0021360D02*
X0139295Y0021360D01*
X0139295Y0021752D02*
X0138273Y0021752D01*
X0138665Y0022144D02*
X0139295Y0022144D01*
X0139295Y0022536D02*
X0139012Y0022536D01*
X0139012Y0022929D02*
X0139295Y0022929D01*
X0139295Y0023321D02*
X0139012Y0023321D01*
X0139012Y0023713D02*
X0139295Y0023713D01*
X0135043Y0023321D02*
X0134650Y0023321D01*
X0134650Y0022929D02*
X0135043Y0022929D01*
X0135043Y0022536D02*
X0134650Y0022536D01*
X0134650Y0022144D02*
X0135043Y0022144D01*
X0135043Y0021752D02*
X0134650Y0021752D01*
X0134650Y0021360D02*
X0135043Y0021360D01*
X0135043Y0020967D02*
X0134650Y0020967D01*
X0134650Y0020575D02*
X0135043Y0020575D01*
X0135043Y0020183D02*
X0134650Y0020183D01*
X0134650Y0018382D02*
X0133121Y0018382D01*
X0130681Y0015942D01*
X0130681Y0014413D01*
X0134650Y0014413D01*
X0134650Y0014020D01*
X0135043Y0014020D01*
X0135043Y0014413D01*
X0139012Y0014413D01*
X0139012Y0015942D01*
X0136572Y0018382D01*
X0135043Y0018382D01*
X0135043Y0014413D01*
X0134650Y0014413D01*
X0134650Y0018382D01*
X0134650Y0018222D02*
X0135043Y0018222D01*
X0135043Y0017830D02*
X0134650Y0017830D01*
X0134650Y0017438D02*
X0135043Y0017438D01*
X0135043Y0017045D02*
X0134650Y0017045D01*
X0134650Y0016653D02*
X0135043Y0016653D01*
X0135043Y0016261D02*
X0134650Y0016261D01*
X0134650Y0015869D02*
X0135043Y0015869D01*
X0135043Y0015477D02*
X0134650Y0015477D01*
X0134650Y0015084D02*
X0135043Y0015084D01*
X0135043Y0014692D02*
X0134650Y0014692D01*
X0134650Y0014300D02*
X0108896Y0014300D01*
X0108896Y0014692D02*
X0130681Y0014692D01*
X0130681Y0015084D02*
X0108896Y0015084D01*
X0108896Y0015477D02*
X0130681Y0015477D01*
X0130681Y0015869D02*
X0108896Y0015869D01*
X0108896Y0016261D02*
X0131000Y0016261D01*
X0131392Y0016653D02*
X0108896Y0016653D01*
X0108896Y0017045D02*
X0131785Y0017045D01*
X0132177Y0017438D02*
X0108896Y0017438D01*
X0108896Y0017830D02*
X0132569Y0017830D01*
X0132961Y0018222D02*
X0108896Y0018222D01*
X0108896Y0018614D02*
X0139295Y0018614D01*
X0170004Y0018614D01*
X0170004Y0018222D02*
X0166732Y0018222D01*
X0166572Y0018382D02*
X0165043Y0018382D01*
X0165043Y0014413D01*
X0169012Y0014413D01*
X0169012Y0015942D01*
X0166572Y0018382D01*
X0167124Y0017830D02*
X0170004Y0017830D01*
X0170004Y0017438D02*
X0167516Y0017438D01*
X0167908Y0017045D02*
X0170004Y0017045D01*
X0170004Y0016653D02*
X0168301Y0016653D01*
X0168693Y0016261D02*
X0170004Y0016261D01*
X0170004Y0015869D02*
X0169012Y0015869D01*
X0169012Y0015477D02*
X0170004Y0015477D01*
X0170004Y0015084D02*
X0169012Y0015084D01*
X0169012Y0014692D02*
X0170004Y0014692D01*
X0170004Y0014300D02*
X0165043Y0014300D01*
X0165043Y0014413D02*
X0165043Y0014020D01*
X0169012Y0014020D01*
X0169012Y0012491D01*
X0166572Y0010051D01*
X0165043Y0010051D01*
X0165043Y0014020D01*
X0164650Y0014020D01*
X0164650Y0010051D01*
X0163121Y0010051D01*
X0160681Y0012491D01*
X0160681Y0014020D01*
X0164650Y0014020D01*
X0164650Y0014413D01*
X0160681Y0014413D01*
X0160681Y0015942D01*
X0163121Y0018382D01*
X0164650Y0018382D01*
X0164650Y0014413D01*
X0165043Y0014413D01*
X0165043Y0014692D02*
X0164650Y0014692D01*
X0164650Y0014300D02*
X0155043Y0014300D01*
X0155043Y0014413D02*
X0159012Y0014413D01*
X0159012Y0015942D01*
X0156572Y0018382D01*
X0155043Y0018382D01*
X0155043Y0014413D01*
X0155043Y0014020D01*
X0159012Y0014020D01*
X0159012Y0012491D01*
X0156572Y0010051D01*
X0155043Y0010051D01*
X0155043Y0014020D01*
X0154650Y0014020D01*
X0154650Y0010051D01*
X0153121Y0010051D01*
X0150681Y0012491D01*
X0150681Y0014020D01*
X0154650Y0014020D01*
X0154650Y0014413D01*
X0150681Y0014413D01*
X0150681Y0015942D01*
X0153121Y0018382D01*
X0154650Y0018382D01*
X0154650Y0014413D01*
X0155043Y0014413D01*
X0155043Y0014692D02*
X0154650Y0014692D01*
X0154650Y0014300D02*
X0145043Y0014300D01*
X0145043Y0014413D02*
X0149012Y0014413D01*
X0149012Y0015942D01*
X0146572Y0018382D01*
X0145043Y0018382D01*
X0145043Y0014413D01*
X0145043Y0014020D01*
X0149012Y0014020D01*
X0149012Y0012491D01*
X0146572Y0010051D01*
X0145043Y0010051D01*
X0145043Y0014020D01*
X0144650Y0014020D01*
X0144650Y0010051D01*
X0143121Y0010051D01*
X0140681Y0012491D01*
X0140681Y0014020D01*
X0144650Y0014020D01*
X0144650Y0014413D01*
X0140681Y0014413D01*
X0140681Y0015942D01*
X0143121Y0018382D01*
X0144650Y0018382D01*
X0144650Y0014413D01*
X0145043Y0014413D01*
X0145043Y0014692D02*
X0144650Y0014692D01*
X0144650Y0014300D02*
X0139295Y0014300D01*
X0135043Y0014300D01*
X0135043Y0014020D02*
X0139012Y0014020D01*
X0139012Y0012491D01*
X0136572Y0010051D01*
X0135043Y0010051D01*
X0135043Y0014020D01*
X0135043Y0013908D02*
X0134650Y0013908D01*
X0134650Y0014020D02*
X0134650Y0010051D01*
X0133121Y0010051D01*
X0130681Y0012491D01*
X0130681Y0014020D01*
X0134650Y0014020D01*
X0134650Y0013515D02*
X0135043Y0013515D01*
X0135043Y0013123D02*
X0134650Y0013123D01*
X0134650Y0012731D02*
X0135043Y0012731D01*
X0135043Y0012339D02*
X0134650Y0012339D01*
X0134650Y0011947D02*
X0135043Y0011947D01*
X0135043Y0011554D02*
X0134650Y0011554D01*
X0134650Y0011162D02*
X0135043Y0011162D01*
X0135043Y0010770D02*
X0134650Y0010770D01*
X0134650Y0010378D02*
X0135043Y0010378D01*
X0136898Y0010378D02*
X0139295Y0010378D01*
X0142795Y0010378D01*
X0142402Y0010770D02*
X0139295Y0010770D01*
X0137291Y0010770D01*
X0137683Y0011162D02*
X0139295Y0011162D01*
X0142010Y0011162D01*
X0141618Y0011554D02*
X0139295Y0011554D01*
X0138075Y0011554D01*
X0138467Y0011947D02*
X0139295Y0011947D01*
X0141226Y0011947D01*
X0140833Y0012339D02*
X0139295Y0012339D01*
X0138859Y0012339D01*
X0139012Y0012731D02*
X0139295Y0012731D01*
X0140681Y0012731D01*
X0140681Y0013123D02*
X0139295Y0013123D01*
X0139012Y0013123D01*
X0139012Y0013515D02*
X0139295Y0013515D01*
X0140681Y0013515D01*
X0140681Y0013908D02*
X0139295Y0013908D01*
X0139012Y0013908D01*
X0139012Y0014692D02*
X0139295Y0014692D01*
X0140681Y0014692D01*
X0140681Y0015084D02*
X0139295Y0015084D01*
X0139012Y0015084D01*
X0139012Y0015477D02*
X0139295Y0015477D01*
X0140681Y0015477D01*
X0140681Y0015869D02*
X0139295Y0015869D01*
X0139012Y0015869D01*
X0139295Y0016261D02*
X0141000Y0016261D01*
X0141392Y0016653D02*
X0139295Y0016653D01*
X0138301Y0016653D01*
X0138693Y0016261D02*
X0139295Y0016261D01*
X0139295Y0017045D02*
X0141785Y0017045D01*
X0142177Y0017438D02*
X0139295Y0017438D01*
X0137516Y0017438D01*
X0137124Y0017830D02*
X0139295Y0017830D01*
X0142569Y0017830D01*
X0142961Y0018222D02*
X0139295Y0018222D01*
X0136732Y0018222D01*
X0137908Y0017045D02*
X0139295Y0017045D01*
X0139295Y0019006D02*
X0108896Y0019006D01*
X0108896Y0019399D02*
X0139295Y0019399D01*
X0144650Y0018222D02*
X0145043Y0018222D01*
X0145043Y0017830D02*
X0144650Y0017830D01*
X0144650Y0017438D02*
X0145043Y0017438D01*
X0145043Y0017045D02*
X0144650Y0017045D01*
X0144650Y0016653D02*
X0145043Y0016653D01*
X0145043Y0016261D02*
X0144650Y0016261D01*
X0144650Y0015869D02*
X0145043Y0015869D01*
X0145043Y0015477D02*
X0144650Y0015477D01*
X0144650Y0015084D02*
X0145043Y0015084D01*
X0145043Y0013908D02*
X0144650Y0013908D01*
X0144650Y0013515D02*
X0145043Y0013515D01*
X0145043Y0013123D02*
X0144650Y0013123D01*
X0144650Y0012731D02*
X0145043Y0012731D01*
X0145043Y0012339D02*
X0144650Y0012339D01*
X0144650Y0011947D02*
X0145043Y0011947D01*
X0145043Y0011554D02*
X0144650Y0011554D01*
X0144650Y0011162D02*
X0145043Y0011162D01*
X0145043Y0010770D02*
X0144650Y0010770D01*
X0144650Y0010378D02*
X0145043Y0010378D01*
X0146898Y0010378D02*
X0152795Y0010378D01*
X0152402Y0010770D02*
X0147291Y0010770D01*
X0147683Y0011162D02*
X0152010Y0011162D01*
X0151618Y0011554D02*
X0148075Y0011554D01*
X0148467Y0011947D02*
X0151226Y0011947D01*
X0150833Y0012339D02*
X0148859Y0012339D01*
X0149012Y0012731D02*
X0150681Y0012731D01*
X0150681Y0013123D02*
X0149012Y0013123D01*
X0149012Y0013515D02*
X0150681Y0013515D01*
X0150681Y0013908D02*
X0149012Y0013908D01*
X0149012Y0014692D02*
X0150681Y0014692D01*
X0150681Y0015084D02*
X0149012Y0015084D01*
X0149012Y0015477D02*
X0150681Y0015477D01*
X0150681Y0015869D02*
X0149012Y0015869D01*
X0148693Y0016261D02*
X0151000Y0016261D01*
X0151392Y0016653D02*
X0148301Y0016653D01*
X0147908Y0017045D02*
X0151785Y0017045D01*
X0152177Y0017438D02*
X0147516Y0017438D01*
X0147124Y0017830D02*
X0152569Y0017830D01*
X0152961Y0018222D02*
X0146732Y0018222D01*
X0154650Y0018222D02*
X0155043Y0018222D01*
X0155043Y0017830D02*
X0154650Y0017830D01*
X0154650Y0017438D02*
X0155043Y0017438D01*
X0155043Y0017045D02*
X0154650Y0017045D01*
X0154650Y0016653D02*
X0155043Y0016653D01*
X0155043Y0016261D02*
X0154650Y0016261D01*
X0154650Y0015869D02*
X0155043Y0015869D01*
X0155043Y0015477D02*
X0154650Y0015477D01*
X0154650Y0015084D02*
X0155043Y0015084D01*
X0155043Y0013908D02*
X0154650Y0013908D01*
X0154650Y0013515D02*
X0155043Y0013515D01*
X0155043Y0013123D02*
X0154650Y0013123D01*
X0154650Y0012731D02*
X0155043Y0012731D01*
X0155043Y0012339D02*
X0154650Y0012339D01*
X0154650Y0011947D02*
X0155043Y0011947D01*
X0155043Y0011554D02*
X0154650Y0011554D01*
X0154650Y0011162D02*
X0155043Y0011162D01*
X0155043Y0010770D02*
X0154650Y0010770D01*
X0154650Y0010378D02*
X0155043Y0010378D01*
X0156898Y0010378D02*
X0162795Y0010378D01*
X0162402Y0010770D02*
X0157291Y0010770D01*
X0157683Y0011162D02*
X0162010Y0011162D01*
X0161618Y0011554D02*
X0158075Y0011554D01*
X0158467Y0011947D02*
X0161226Y0011947D01*
X0160833Y0012339D02*
X0158859Y0012339D01*
X0159012Y0012731D02*
X0160681Y0012731D01*
X0160681Y0013123D02*
X0159012Y0013123D01*
X0159012Y0013515D02*
X0160681Y0013515D01*
X0160681Y0013908D02*
X0159012Y0013908D01*
X0159012Y0014692D02*
X0160681Y0014692D01*
X0160681Y0015084D02*
X0159012Y0015084D01*
X0159012Y0015477D02*
X0160681Y0015477D01*
X0160681Y0015869D02*
X0159012Y0015869D01*
X0158693Y0016261D02*
X0161000Y0016261D01*
X0161392Y0016653D02*
X0158301Y0016653D01*
X0157908Y0017045D02*
X0161785Y0017045D01*
X0162177Y0017438D02*
X0157516Y0017438D01*
X0157124Y0017830D02*
X0162569Y0017830D01*
X0162961Y0018222D02*
X0156732Y0018222D01*
X0159768Y0019006D02*
X0170004Y0019006D01*
X0170004Y0019399D02*
X0159768Y0019399D01*
X0159768Y0019791D02*
X0170004Y0019791D01*
X0170004Y0020183D02*
X0166704Y0020183D01*
X0166572Y0020051D02*
X0169012Y0022491D01*
X0169012Y0024020D01*
X0165043Y0024020D01*
X0165043Y0024413D01*
X0169012Y0024413D01*
X0169012Y0025942D01*
X0166572Y0028382D01*
X0165043Y0028382D01*
X0165043Y0024413D01*
X0164650Y0024413D01*
X0164650Y0024020D01*
X0165043Y0024020D01*
X0165043Y0020051D01*
X0166572Y0020051D01*
X0167096Y0020575D02*
X0170004Y0020575D01*
X0170004Y0020967D02*
X0167488Y0020967D01*
X0167880Y0021360D02*
X0170004Y0021360D01*
X0170004Y0021752D02*
X0168273Y0021752D01*
X0168665Y0022144D02*
X0170004Y0022144D01*
X0170004Y0022536D02*
X0169012Y0022536D01*
X0169012Y0022929D02*
X0170004Y0022929D01*
X0170004Y0023321D02*
X0169012Y0023321D01*
X0169012Y0023713D02*
X0170004Y0023713D01*
X0170004Y0024105D02*
X0165043Y0024105D01*
X0165043Y0023713D02*
X0164650Y0023713D01*
X0164650Y0024020D02*
X0164650Y0020051D01*
X0163121Y0020051D01*
X0160681Y0022491D01*
X0160681Y0024020D01*
X0164650Y0024020D01*
X0164650Y0024105D02*
X0159768Y0024105D01*
X0159768Y0023713D02*
X0160681Y0023713D01*
X0160681Y0023321D02*
X0159768Y0023321D01*
X0159768Y0022929D02*
X0160681Y0022929D01*
X0160681Y0022536D02*
X0159768Y0022536D01*
X0159768Y0022144D02*
X0161028Y0022144D01*
X0161420Y0021752D02*
X0159768Y0021752D01*
X0159768Y0021360D02*
X0161813Y0021360D01*
X0162205Y0020967D02*
X0159768Y0020967D01*
X0159768Y0020575D02*
X0162597Y0020575D01*
X0162989Y0020183D02*
X0159768Y0020183D01*
X0164650Y0020183D02*
X0165043Y0020183D01*
X0165043Y0020575D02*
X0164650Y0020575D01*
X0164650Y0020967D02*
X0165043Y0020967D01*
X0165043Y0021360D02*
X0164650Y0021360D01*
X0164650Y0021752D02*
X0165043Y0021752D01*
X0165043Y0022144D02*
X0164650Y0022144D01*
X0164650Y0022536D02*
X0165043Y0022536D01*
X0165043Y0022929D02*
X0164650Y0022929D01*
X0164650Y0023321D02*
X0165043Y0023321D01*
X0164650Y0024413D02*
X0160681Y0024413D01*
X0160681Y0025942D01*
X0163121Y0028382D01*
X0164650Y0028382D01*
X0164650Y0024413D01*
X0164650Y0024497D02*
X0165043Y0024497D01*
X0165043Y0024890D02*
X0164650Y0024890D01*
X0164650Y0025282D02*
X0165043Y0025282D01*
X0165043Y0025674D02*
X0164650Y0025674D01*
X0164650Y0026066D02*
X0165043Y0026066D01*
X0165043Y0026458D02*
X0164650Y0026458D01*
X0164650Y0026851D02*
X0165043Y0026851D01*
X0165043Y0027243D02*
X0164650Y0027243D01*
X0164650Y0027635D02*
X0165043Y0027635D01*
X0165043Y0028027D02*
X0164650Y0028027D01*
X0162767Y0028027D02*
X0159768Y0028027D01*
X0159768Y0027635D02*
X0162374Y0027635D01*
X0161982Y0027243D02*
X0159768Y0027243D01*
X0159768Y0026851D02*
X0161590Y0026851D01*
X0161198Y0026458D02*
X0159768Y0026458D01*
X0159768Y0026066D02*
X0160805Y0026066D01*
X0160681Y0025674D02*
X0159768Y0025674D01*
X0159768Y0025282D02*
X0160681Y0025282D01*
X0160681Y0024890D02*
X0159768Y0024890D01*
X0159768Y0024497D02*
X0160681Y0024497D01*
X0159768Y0028420D02*
X0170004Y0028420D01*
X0170004Y0028812D02*
X0159768Y0028812D01*
X0159768Y0029204D02*
X0170004Y0029204D01*
X0170004Y0029596D02*
X0159768Y0029596D01*
X0159768Y0029988D02*
X0170004Y0029988D01*
X0170004Y0030381D02*
X0159768Y0030381D01*
X0159768Y0030773D02*
X0170004Y0030773D01*
X0170004Y0031165D02*
X0159768Y0031165D01*
X0159768Y0031557D02*
X0170004Y0031557D01*
X0170004Y0031949D02*
X0159768Y0031949D01*
X0159768Y0032342D02*
X0170004Y0032342D01*
X0170004Y0032734D02*
X0159768Y0032734D01*
X0159768Y0033126D02*
X0170004Y0033126D01*
X0170004Y0033518D02*
X0159768Y0033518D01*
X0159768Y0033910D02*
X0170004Y0033910D01*
X0170004Y0034303D02*
X0159768Y0034303D01*
X0159768Y0034695D02*
X0170004Y0034695D01*
X0170004Y0035087D02*
X0159768Y0035087D01*
X0159768Y0035479D02*
X0170004Y0035479D01*
X0170004Y0035872D02*
X0159768Y0035872D01*
X0159768Y0036264D02*
X0170004Y0036264D01*
X0170004Y0036656D02*
X0159768Y0036656D01*
X0159768Y0037048D02*
X0170004Y0037048D01*
X0170004Y0037440D02*
X0159768Y0037440D01*
X0159768Y0037833D02*
X0170004Y0037833D01*
X0170004Y0038225D02*
X0159768Y0038225D01*
X0159768Y0038617D02*
X0170004Y0038617D01*
X0170004Y0039009D02*
X0159768Y0039009D01*
X0159768Y0039401D02*
X0170004Y0039401D01*
X0170004Y0039794D02*
X0159768Y0039794D01*
X0159768Y0040186D02*
X0170004Y0040186D01*
X0170004Y0040578D02*
X0159768Y0040578D01*
X0159768Y0040970D02*
X0170004Y0040970D01*
X0170004Y0041363D02*
X0159768Y0041363D01*
X0159768Y0041755D02*
X0170004Y0041755D01*
X0170004Y0042147D02*
X0159768Y0042147D01*
X0159768Y0042539D02*
X0170004Y0042539D01*
X0170004Y0042931D02*
X0159768Y0042931D01*
X0159768Y0043324D02*
X0170004Y0043324D01*
X0170004Y0043716D02*
X0159768Y0043716D01*
X0159768Y0044108D02*
X0170004Y0044108D01*
X0170004Y0044500D02*
X0159768Y0044500D01*
X0159768Y0044892D02*
X0170004Y0044892D01*
X0170004Y0045285D02*
X0159768Y0045285D01*
X0159768Y0045677D02*
X0170004Y0045677D01*
X0170004Y0046069D02*
X0159768Y0046069D01*
X0159768Y0046461D02*
X0170004Y0046461D01*
X0170004Y0046853D02*
X0159768Y0046853D01*
X0159768Y0047246D02*
X0170004Y0047246D01*
X0170004Y0047638D02*
X0159768Y0047638D01*
X0159768Y0048030D02*
X0170004Y0048030D01*
X0170004Y0048422D02*
X0159768Y0048422D01*
X0159768Y0048815D02*
X0170004Y0048815D01*
X0170004Y0049207D02*
X0159768Y0049207D01*
X0159768Y0049599D02*
X0170004Y0049599D01*
X0170004Y0049991D02*
X0159768Y0049991D01*
X0159768Y0050383D02*
X0170004Y0050383D01*
X0170004Y0050776D02*
X0159768Y0050776D01*
X0159768Y0051168D02*
X0170004Y0051168D01*
X0170004Y0051560D02*
X0166742Y0051560D01*
X0166572Y0051390D02*
X0169012Y0053830D01*
X0169012Y0055358D01*
X0165043Y0055358D01*
X0165043Y0051390D01*
X0166572Y0051390D01*
X0167134Y0051952D02*
X0170004Y0051952D01*
X0170004Y0052344D02*
X0167526Y0052344D01*
X0167919Y0052737D02*
X0170004Y0052737D01*
X0170004Y0053129D02*
X0168311Y0053129D01*
X0168703Y0053521D02*
X0170004Y0053521D01*
X0170004Y0053913D02*
X0169012Y0053913D01*
X0169012Y0054305D02*
X0170004Y0054305D01*
X0170004Y0054698D02*
X0169012Y0054698D01*
X0169012Y0055090D02*
X0170004Y0055090D01*
X0170004Y0055482D02*
X0165043Y0055482D01*
X0165043Y0055358D02*
X0165043Y0055752D01*
X0164650Y0055752D01*
X0164650Y0059720D01*
X0163121Y0059720D01*
X0160681Y0057280D01*
X0160681Y0055752D01*
X0164650Y0055752D01*
X0164650Y0055358D01*
X0165043Y0055358D01*
X0165043Y0055090D02*
X0164650Y0055090D01*
X0164650Y0055358D02*
X0164650Y0051390D01*
X0163121Y0051390D01*
X0160681Y0053830D01*
X0160681Y0055358D01*
X0164650Y0055358D01*
X0164650Y0055482D02*
X0159768Y0055482D01*
X0159768Y0055090D02*
X0160681Y0055090D01*
X0160681Y0054698D02*
X0159768Y0054698D01*
X0159768Y0054305D02*
X0160681Y0054305D01*
X0160681Y0053913D02*
X0159768Y0053913D01*
X0159768Y0053521D02*
X0160990Y0053521D01*
X0161382Y0053129D02*
X0159768Y0053129D01*
X0159768Y0052737D02*
X0161774Y0052737D01*
X0162166Y0052344D02*
X0159768Y0052344D01*
X0159768Y0051952D02*
X0162559Y0051952D01*
X0162951Y0051560D02*
X0159768Y0051560D01*
X0164650Y0051560D02*
X0165043Y0051560D01*
X0165043Y0051952D02*
X0164650Y0051952D01*
X0164650Y0052344D02*
X0165043Y0052344D01*
X0165043Y0052737D02*
X0164650Y0052737D01*
X0164650Y0053129D02*
X0165043Y0053129D01*
X0165043Y0053521D02*
X0164650Y0053521D01*
X0164650Y0053913D02*
X0165043Y0053913D01*
X0165043Y0054305D02*
X0164650Y0054305D01*
X0164650Y0054698D02*
X0165043Y0054698D01*
X0165043Y0055752D02*
X0169012Y0055752D01*
X0169012Y0057280D01*
X0166572Y0059720D01*
X0165043Y0059720D01*
X0165043Y0055752D01*
X0165043Y0055874D02*
X0164650Y0055874D01*
X0164650Y0056267D02*
X0165043Y0056267D01*
X0165043Y0056659D02*
X0164650Y0056659D01*
X0164650Y0057051D02*
X0165043Y0057051D01*
X0165043Y0057443D02*
X0164650Y0057443D01*
X0164650Y0057835D02*
X0165043Y0057835D01*
X0165043Y0058228D02*
X0164650Y0058228D01*
X0164650Y0058620D02*
X0165043Y0058620D01*
X0165043Y0059012D02*
X0164650Y0059012D01*
X0164650Y0059404D02*
X0165043Y0059404D01*
X0166888Y0059404D02*
X0170004Y0059404D01*
X0170004Y0059012D02*
X0167280Y0059012D01*
X0167672Y0058620D02*
X0170004Y0058620D01*
X0170004Y0058228D02*
X0168065Y0058228D01*
X0168457Y0057835D02*
X0170004Y0057835D01*
X0170004Y0057443D02*
X0168849Y0057443D01*
X0169012Y0057051D02*
X0170004Y0057051D01*
X0170004Y0056659D02*
X0169012Y0056659D01*
X0169012Y0056267D02*
X0170004Y0056267D01*
X0170004Y0055874D02*
X0169012Y0055874D01*
X0170004Y0059796D02*
X0159768Y0059796D01*
X0159768Y0059404D02*
X0162805Y0059404D01*
X0162413Y0059012D02*
X0159768Y0059012D01*
X0159768Y0058620D02*
X0162020Y0058620D01*
X0161628Y0058228D02*
X0159768Y0058228D01*
X0159768Y0057835D02*
X0161236Y0057835D01*
X0160844Y0057443D02*
X0159768Y0057443D01*
X0159768Y0057051D02*
X0160681Y0057051D01*
X0160681Y0056659D02*
X0159768Y0056659D01*
X0159768Y0056267D02*
X0160681Y0056267D01*
X0160681Y0055874D02*
X0159768Y0055874D01*
X0159768Y0060189D02*
X0170004Y0060189D01*
X0170004Y0060581D02*
X0159768Y0060581D01*
X0159768Y0060973D02*
X0170004Y0060973D01*
X0170004Y0061365D02*
X0159768Y0061365D01*
X0154256Y0061365D01*
X0154650Y0061758D02*
X0155043Y0061758D01*
X0155043Y0062150D02*
X0154650Y0062150D01*
X0154650Y0062542D02*
X0155043Y0062542D01*
X0155043Y0062934D02*
X0154650Y0062934D01*
X0154650Y0063326D02*
X0155043Y0063326D01*
X0155043Y0063719D02*
X0154650Y0063719D01*
X0154650Y0064111D02*
X0155043Y0064111D01*
X0155043Y0064503D02*
X0154650Y0064503D01*
X0154650Y0064895D02*
X0155043Y0064895D01*
X0155043Y0065287D02*
X0154650Y0065287D01*
X0155043Y0065680D02*
X0159768Y0065680D01*
X0164650Y0065680D01*
X0164650Y0065752D02*
X0164650Y0065358D01*
X0165043Y0065358D01*
X0165043Y0061390D01*
X0166572Y0061390D01*
X0169012Y0063830D01*
X0169012Y0065358D01*
X0165043Y0065358D01*
X0165043Y0065752D01*
X0164650Y0065752D01*
X0164650Y0069720D01*
X0163121Y0069720D01*
X0160681Y0067280D01*
X0160681Y0065752D01*
X0164650Y0065752D01*
X0164650Y0066072D02*
X0165043Y0066072D01*
X0165043Y0065752D02*
X0165043Y0069720D01*
X0166572Y0069720D01*
X0169012Y0067280D01*
X0169012Y0065752D01*
X0165043Y0065752D01*
X0165043Y0065680D02*
X0170004Y0065680D01*
X0170004Y0066072D02*
X0169012Y0066072D01*
X0169012Y0066464D02*
X0170004Y0066464D01*
X0170004Y0066856D02*
X0169012Y0066856D01*
X0169012Y0067248D02*
X0170004Y0067248D01*
X0170004Y0067641D02*
X0168652Y0067641D01*
X0168259Y0068033D02*
X0170004Y0068033D01*
X0170004Y0068425D02*
X0167867Y0068425D01*
X0167475Y0068817D02*
X0170004Y0068817D01*
X0170004Y0069210D02*
X0167083Y0069210D01*
X0166690Y0069602D02*
X0170004Y0069602D01*
X0170004Y0069994D02*
X0159768Y0069994D01*
X0154256Y0069994D01*
X0154650Y0069602D02*
X0155043Y0069602D01*
X0155043Y0069720D02*
X0156572Y0069720D01*
X0159012Y0067280D01*
X0159012Y0065752D01*
X0155043Y0065752D01*
X0155043Y0069720D01*
X0155043Y0069210D02*
X0154650Y0069210D01*
X0154650Y0068817D02*
X0155043Y0068817D01*
X0155043Y0068425D02*
X0154650Y0068425D01*
X0154650Y0068033D02*
X0155043Y0068033D01*
X0155043Y0067641D02*
X0154650Y0067641D01*
X0154650Y0067248D02*
X0155043Y0067248D01*
X0155043Y0066856D02*
X0154650Y0066856D01*
X0154650Y0066464D02*
X0155043Y0066464D01*
X0155043Y0066072D02*
X0154650Y0066072D01*
X0157475Y0068817D02*
X0159768Y0068817D01*
X0162218Y0068817D01*
X0161826Y0068425D02*
X0159768Y0068425D01*
X0157867Y0068425D01*
X0158259Y0068033D02*
X0159768Y0068033D01*
X0161434Y0068033D01*
X0161041Y0067641D02*
X0159768Y0067641D01*
X0158652Y0067641D01*
X0159012Y0067248D02*
X0159768Y0067248D01*
X0160681Y0067248D01*
X0160681Y0066856D02*
X0159768Y0066856D01*
X0159012Y0066856D01*
X0159012Y0066464D02*
X0159768Y0066464D01*
X0160681Y0066464D01*
X0160681Y0066072D02*
X0159768Y0066072D01*
X0159012Y0066072D01*
X0159012Y0065287D02*
X0159768Y0065287D01*
X0160681Y0065287D01*
X0160681Y0065358D02*
X0160681Y0063830D01*
X0163121Y0061390D01*
X0164650Y0061390D01*
X0164650Y0065358D01*
X0160681Y0065358D01*
X0160681Y0064895D02*
X0159768Y0064895D01*
X0159012Y0064895D01*
X0159012Y0064503D02*
X0159768Y0064503D01*
X0160681Y0064503D01*
X0160681Y0064111D02*
X0159768Y0064111D01*
X0159012Y0064111D01*
X0158901Y0063719D02*
X0159768Y0063719D01*
X0160792Y0063719D01*
X0161184Y0063326D02*
X0159768Y0063326D01*
X0158508Y0063326D01*
X0158116Y0062934D02*
X0159768Y0062934D01*
X0161577Y0062934D01*
X0161969Y0062542D02*
X0159768Y0062542D01*
X0157724Y0062542D01*
X0157332Y0062150D02*
X0159768Y0062150D01*
X0162361Y0062150D01*
X0162753Y0061758D02*
X0159768Y0061758D01*
X0156940Y0061758D01*
X0164650Y0061758D02*
X0165043Y0061758D01*
X0165043Y0062150D02*
X0164650Y0062150D01*
X0164650Y0062542D02*
X0165043Y0062542D01*
X0165043Y0062934D02*
X0164650Y0062934D01*
X0164650Y0063326D02*
X0165043Y0063326D01*
X0165043Y0063719D02*
X0164650Y0063719D01*
X0164650Y0064111D02*
X0165043Y0064111D01*
X0165043Y0064503D02*
X0164650Y0064503D01*
X0164650Y0064895D02*
X0165043Y0064895D01*
X0165043Y0065287D02*
X0164650Y0065287D01*
X0164650Y0066464D02*
X0165043Y0066464D01*
X0165043Y0066856D02*
X0164650Y0066856D01*
X0164650Y0067248D02*
X0165043Y0067248D01*
X0165043Y0067641D02*
X0164650Y0067641D01*
X0164650Y0068033D02*
X0165043Y0068033D01*
X0165043Y0068425D02*
X0164650Y0068425D01*
X0164650Y0068817D02*
X0165043Y0068817D01*
X0165043Y0069210D02*
X0164650Y0069210D01*
X0164650Y0069602D02*
X0165043Y0069602D01*
X0163002Y0069602D02*
X0159768Y0069602D01*
X0156690Y0069602D01*
X0157083Y0069210D02*
X0159768Y0069210D01*
X0162610Y0069210D01*
X0169012Y0065287D02*
X0170004Y0065287D01*
X0170004Y0064895D02*
X0169012Y0064895D01*
X0169012Y0064503D02*
X0170004Y0064503D01*
X0170004Y0064111D02*
X0169012Y0064111D01*
X0168901Y0063719D02*
X0170004Y0063719D01*
X0170004Y0063326D02*
X0168508Y0063326D01*
X0168116Y0062934D02*
X0170004Y0062934D01*
X0170004Y0062542D02*
X0167724Y0062542D01*
X0167332Y0062150D02*
X0170004Y0062150D01*
X0170004Y0061758D02*
X0166940Y0061758D01*
X0135043Y0059404D02*
X0134650Y0059404D01*
X0134650Y0059012D02*
X0135043Y0059012D01*
X0135043Y0058620D02*
X0134650Y0058620D01*
X0134650Y0058228D02*
X0135043Y0058228D01*
X0135043Y0057835D02*
X0134650Y0057835D01*
X0134650Y0057443D02*
X0135043Y0057443D01*
X0135043Y0057051D02*
X0134650Y0057051D01*
X0134650Y0056659D02*
X0135043Y0056659D01*
X0135043Y0056267D02*
X0134650Y0056267D01*
X0134650Y0055874D02*
X0135043Y0055874D01*
X0132020Y0058620D02*
X0108896Y0058620D01*
X0108896Y0059012D02*
X0132413Y0059012D01*
X0132805Y0059404D02*
X0108896Y0059404D01*
X0108896Y0058228D02*
X0131628Y0058228D01*
X0131236Y0057835D02*
X0108896Y0057835D01*
X0108896Y0057443D02*
X0130844Y0057443D01*
X0130681Y0057051D02*
X0108896Y0057051D01*
X0108896Y0056659D02*
X0130681Y0056659D01*
X0130681Y0056267D02*
X0108896Y0056267D01*
X0108896Y0055874D02*
X0130681Y0055874D01*
X0121579Y0080584D02*
X0108896Y0080584D01*
X0108615Y0080976D02*
X0121579Y0080976D01*
X0121579Y0081368D02*
X0002597Y0081368D01*
X0002597Y0081760D02*
X0121579Y0081760D01*
X0121579Y0082153D02*
X0002597Y0082153D01*
X0002597Y0082545D02*
X0121579Y0082545D01*
X0121579Y0082937D02*
X0002597Y0082937D01*
X0002597Y0083329D02*
X0121579Y0083329D01*
X0121579Y0083721D02*
X0002597Y0083721D01*
X0002597Y0084114D02*
X0121579Y0084114D01*
X0121579Y0084506D02*
X0002597Y0084506D01*
X0002597Y0084898D02*
X0121579Y0084898D01*
X0121579Y0085290D02*
X0002597Y0085290D01*
X0002597Y0085682D02*
X0121579Y0085682D01*
X0121579Y0086075D02*
X0002597Y0086075D01*
X0002597Y0086467D02*
X0121579Y0086467D01*
X0121579Y0086859D02*
X0002597Y0086859D01*
X0002597Y0087251D02*
X0121579Y0087251D01*
X0121579Y0087644D02*
X0002597Y0087644D01*
X0002597Y0088036D02*
X0121579Y0088036D01*
X0121579Y0088428D02*
X0002597Y0088428D01*
X0002597Y0088820D02*
X0121579Y0088820D01*
X0121579Y0089212D02*
X0002597Y0089212D01*
X0002597Y0089605D02*
X0121579Y0089605D01*
X0121579Y0089997D02*
X0002597Y0089997D01*
X0002597Y0090389D02*
X0121579Y0090389D01*
X0121579Y0090781D02*
X0002597Y0090781D01*
X0002597Y0091173D02*
X0121579Y0091173D01*
X0121579Y0091566D02*
X0002597Y0091566D01*
X0002597Y0091958D02*
X0121579Y0091958D01*
X0121579Y0092350D02*
X0002597Y0092350D01*
X0002597Y0092742D02*
X0121579Y0092742D01*
X0121579Y0093134D02*
X0002597Y0093134D01*
X0002597Y0093527D02*
X0121579Y0093527D01*
X0121579Y0093919D02*
X0002597Y0093919D01*
X0002597Y0094311D02*
X0121579Y0094311D01*
X0121579Y0094703D02*
X0002597Y0094703D01*
X0002597Y0095096D02*
X0121579Y0095096D01*
X0121579Y0095488D02*
X0002597Y0095488D01*
X0002597Y0095880D02*
X0121579Y0095880D01*
X0121579Y0096272D02*
X0002597Y0096272D01*
X0002597Y0096664D02*
X0121579Y0096664D01*
X0121579Y0097057D02*
X0002597Y0097057D01*
X0002597Y0097449D02*
X0121579Y0097449D01*
X0121579Y0097841D02*
X0002597Y0097841D01*
X0002597Y0098233D02*
X0121579Y0098233D01*
X0121579Y0098625D02*
X0002597Y0098625D01*
X0002597Y0099018D02*
X0121579Y0099018D01*
X0121579Y0099410D02*
X0002597Y0099410D01*
X0002597Y0099802D02*
X0121579Y0099802D01*
X0121579Y0100194D02*
X0002597Y0100194D01*
X0002597Y0100587D02*
X0121579Y0100587D01*
X0121579Y0100979D02*
X0002597Y0100979D01*
X0002597Y0101371D02*
X0121579Y0101371D01*
X0121579Y0101763D02*
X0002597Y0101763D01*
X0002597Y0102155D02*
X0121579Y0102155D01*
X0121579Y0102548D02*
X0002597Y0102548D01*
X0002597Y0102940D02*
X0121579Y0102940D01*
X0121579Y0103332D02*
X0002597Y0103332D01*
X0002597Y0103724D02*
X0121579Y0103724D01*
X0121579Y0104116D02*
X0002597Y0104116D01*
X0002597Y0104509D02*
X0121579Y0104509D01*
X0121579Y0104901D02*
X0002597Y0104901D01*
X0002597Y0105293D02*
X0121579Y0105293D01*
X0121579Y0105685D02*
X0002597Y0105685D01*
X0002597Y0106077D02*
X0010985Y0106077D01*
X0011136Y0106015D02*
X0013256Y0106015D01*
X0015214Y0106826D01*
X0016713Y0108325D01*
X0017524Y0110283D01*
X0017524Y0121064D01*
X0016713Y0123022D01*
X0015214Y0124520D01*
X0013256Y0125331D01*
X0011136Y0125331D01*
X0009178Y0124520D01*
X0007680Y0123022D01*
X0006869Y0121064D01*
X0006869Y0110283D01*
X0007680Y0108325D01*
X0009178Y0106826D01*
X0011136Y0106015D01*
X0010038Y0106470D02*
X0002597Y0106470D01*
X0002597Y0106862D02*
X0009142Y0106862D01*
X0008750Y0107254D02*
X0002597Y0107254D01*
X0002597Y0107646D02*
X0008358Y0107646D01*
X0007966Y0108039D02*
X0002597Y0108039D01*
X0002597Y0108431D02*
X0007636Y0108431D01*
X0007473Y0108823D02*
X0002597Y0108823D01*
X0002597Y0109215D02*
X0007311Y0109215D01*
X0007148Y0109607D02*
X0002597Y0109607D01*
X0002597Y0110000D02*
X0006986Y0110000D01*
X0006869Y0110392D02*
X0002597Y0110392D01*
X0002597Y0110784D02*
X0006869Y0110784D01*
X0006869Y0111176D02*
X0002597Y0111176D01*
X0002597Y0111568D02*
X0006869Y0111568D01*
X0006869Y0111961D02*
X0002597Y0111961D01*
X0002597Y0112353D02*
X0006869Y0112353D01*
X0006869Y0112745D02*
X0002597Y0112745D01*
X0002597Y0113137D02*
X0006869Y0113137D01*
X0006869Y0113530D02*
X0002597Y0113530D01*
X0002597Y0113922D02*
X0006869Y0113922D01*
X0006869Y0114314D02*
X0002597Y0114314D01*
X0002597Y0114706D02*
X0006869Y0114706D01*
X0006869Y0115098D02*
X0002597Y0115098D01*
X0002597Y0115491D02*
X0006869Y0115491D01*
X0006869Y0115883D02*
X0002597Y0115883D01*
X0002597Y0116275D02*
X0006869Y0116275D01*
X0006869Y0116667D02*
X0002597Y0116667D01*
X0002597Y0117059D02*
X0006869Y0117059D01*
X0006869Y0117452D02*
X0002597Y0117452D01*
X0002597Y0117844D02*
X0006869Y0117844D01*
X0006869Y0118236D02*
X0002597Y0118236D01*
X0002597Y0118628D02*
X0006869Y0118628D01*
X0006869Y0119020D02*
X0002597Y0119020D01*
X0002597Y0119413D02*
X0006869Y0119413D01*
X0006869Y0119805D02*
X0002597Y0119805D01*
X0002597Y0120197D02*
X0006869Y0120197D01*
X0006869Y0120589D02*
X0002597Y0120589D01*
X0002597Y0120982D02*
X0006869Y0120982D01*
X0006997Y0121374D02*
X0002597Y0121374D01*
X0002597Y0121766D02*
X0007159Y0121766D01*
X0007322Y0122158D02*
X0002597Y0122158D01*
X0002597Y0122550D02*
X0007484Y0122550D01*
X0007647Y0122943D02*
X0002597Y0122943D01*
X0002597Y0123335D02*
X0007993Y0123335D01*
X0008385Y0123727D02*
X0002597Y0123727D01*
X0002597Y0124119D02*
X0008777Y0124119D01*
X0009169Y0124511D02*
X0002597Y0124511D01*
X0002597Y0124904D02*
X0010104Y0124904D01*
X0011050Y0125296D02*
X0002597Y0125296D01*
X0002597Y0125688D02*
X0121579Y0125688D01*
X0121579Y0125296D02*
X0114063Y0125296D01*
X0113977Y0125331D02*
X0111858Y0125331D01*
X0109899Y0124520D01*
X0108401Y0123022D01*
X0107590Y0121064D01*
X0107590Y0110283D01*
X0108401Y0108325D01*
X0109899Y0106826D01*
X0111858Y0106015D01*
X0113977Y0106015D01*
X0115935Y0106826D01*
X0117434Y0108325D01*
X0118245Y0110283D01*
X0118245Y0121064D01*
X0117434Y0123022D01*
X0115935Y0124520D01*
X0113977Y0125331D01*
X0115010Y0124904D02*
X0121579Y0124904D01*
X0121579Y0124511D02*
X0115944Y0124511D01*
X0116336Y0124119D02*
X0121579Y0124119D01*
X0121579Y0123727D02*
X0116729Y0123727D01*
X0117121Y0123335D02*
X0121579Y0123335D01*
X0121579Y0122943D02*
X0117467Y0122943D01*
X0117629Y0122550D02*
X0121579Y0122550D01*
X0121579Y0122158D02*
X0117791Y0122158D01*
X0117954Y0121766D02*
X0121579Y0121766D01*
X0121579Y0121374D02*
X0118116Y0121374D01*
X0118245Y0120982D02*
X0121579Y0120982D01*
X0121579Y0120589D02*
X0118245Y0120589D01*
X0118245Y0120197D02*
X0121579Y0120197D01*
X0121579Y0119805D02*
X0118245Y0119805D01*
X0118245Y0119413D02*
X0121579Y0119413D01*
X0121579Y0119020D02*
X0118245Y0119020D01*
X0118245Y0118628D02*
X0121579Y0118628D01*
X0121579Y0118236D02*
X0118245Y0118236D01*
X0118245Y0117844D02*
X0121579Y0117844D01*
X0121579Y0117452D02*
X0118245Y0117452D01*
X0118245Y0117059D02*
X0121579Y0117059D01*
X0121579Y0116667D02*
X0118245Y0116667D01*
X0118245Y0116275D02*
X0121579Y0116275D01*
X0121579Y0115883D02*
X0118245Y0115883D01*
X0118245Y0115491D02*
X0121579Y0115491D01*
X0121579Y0115098D02*
X0118245Y0115098D01*
X0118245Y0114706D02*
X0121579Y0114706D01*
X0121579Y0114314D02*
X0118245Y0114314D01*
X0118245Y0113922D02*
X0121579Y0113922D01*
X0121579Y0113530D02*
X0118245Y0113530D01*
X0118245Y0113137D02*
X0121579Y0113137D01*
X0121579Y0112745D02*
X0118245Y0112745D01*
X0118245Y0112353D02*
X0121579Y0112353D01*
X0121579Y0111961D02*
X0118245Y0111961D01*
X0118245Y0111568D02*
X0121579Y0111568D01*
X0121579Y0111176D02*
X0118245Y0111176D01*
X0118245Y0110784D02*
X0121579Y0110784D01*
X0121579Y0110392D02*
X0118245Y0110392D01*
X0118128Y0110000D02*
X0121579Y0110000D01*
X0121579Y0109607D02*
X0117965Y0109607D01*
X0117803Y0109215D02*
X0121579Y0109215D01*
X0121579Y0108823D02*
X0117640Y0108823D01*
X0117478Y0108431D02*
X0121579Y0108431D01*
X0121579Y0108039D02*
X0117148Y0108039D01*
X0116755Y0107646D02*
X0121579Y0107646D01*
X0121579Y0107254D02*
X0116363Y0107254D01*
X0115971Y0106862D02*
X0121579Y0106862D01*
X0121579Y0106470D02*
X0115075Y0106470D01*
X0114128Y0106077D02*
X0121579Y0106077D01*
X0111707Y0106077D02*
X0072462Y0106077D01*
X0072311Y0106015D02*
X0074269Y0106826D01*
X0075768Y0108325D01*
X0076579Y0110283D01*
X0076579Y0121064D01*
X0075768Y0123022D01*
X0074269Y0124520D01*
X0072311Y0125331D01*
X0070191Y0125331D01*
X0068233Y0124520D01*
X0066735Y0123022D01*
X0065924Y0121064D01*
X0065924Y0110283D01*
X0066735Y0108325D01*
X0068233Y0106826D01*
X0070191Y0106015D01*
X0072311Y0106015D01*
X0073409Y0106470D02*
X0110760Y0106470D01*
X0109864Y0106862D02*
X0074305Y0106862D01*
X0074697Y0107254D02*
X0109471Y0107254D01*
X0109079Y0107646D02*
X0075089Y0107646D01*
X0075482Y0108039D02*
X0108687Y0108039D01*
X0108357Y0108431D02*
X0075812Y0108431D01*
X0075974Y0108823D02*
X0108194Y0108823D01*
X0108032Y0109215D02*
X0076137Y0109215D01*
X0076299Y0109607D02*
X0107870Y0109607D01*
X0107707Y0110000D02*
X0076461Y0110000D01*
X0076579Y0110392D02*
X0107590Y0110392D01*
X0107590Y0110784D02*
X0076579Y0110784D01*
X0076579Y0111176D02*
X0107590Y0111176D01*
X0107590Y0111568D02*
X0076579Y0111568D01*
X0076579Y0111961D02*
X0107590Y0111961D01*
X0107590Y0112353D02*
X0076579Y0112353D01*
X0076579Y0112745D02*
X0107590Y0112745D01*
X0107590Y0113137D02*
X0076579Y0113137D01*
X0076579Y0113530D02*
X0107590Y0113530D01*
X0107590Y0113922D02*
X0076579Y0113922D01*
X0076579Y0114314D02*
X0107590Y0114314D01*
X0107590Y0114706D02*
X0076579Y0114706D01*
X0076579Y0115098D02*
X0107590Y0115098D01*
X0107590Y0115491D02*
X0076579Y0115491D01*
X0076579Y0115883D02*
X0107590Y0115883D01*
X0107590Y0116275D02*
X0076579Y0116275D01*
X0076579Y0116667D02*
X0107590Y0116667D01*
X0107590Y0117059D02*
X0076579Y0117059D01*
X0076579Y0117452D02*
X0107590Y0117452D01*
X0107590Y0117844D02*
X0076579Y0117844D01*
X0076579Y0118236D02*
X0090846Y0118236D01*
X0091345Y0118029D02*
X0092757Y0118029D01*
X0094062Y0118570D01*
X0095060Y0119568D01*
X0095601Y0120873D01*
X0095601Y0122285D01*
X0095060Y0123589D01*
X0094062Y0124588D01*
X0092757Y0125128D01*
X0091345Y0125128D01*
X0090040Y0124588D01*
X0089042Y0123589D01*
X0088502Y0122285D01*
X0088502Y0120873D01*
X0089042Y0119568D01*
X0090040Y0118570D01*
X0091345Y0118029D01*
X0089982Y0118628D02*
X0076579Y0118628D01*
X0076579Y0119020D02*
X0089590Y0119020D01*
X0089197Y0119413D02*
X0076579Y0119413D01*
X0076579Y0119805D02*
X0088944Y0119805D01*
X0088781Y0120197D02*
X0076579Y0120197D01*
X0076579Y0120589D02*
X0088619Y0120589D01*
X0088502Y0120982D02*
X0076579Y0120982D01*
X0076450Y0121374D02*
X0088502Y0121374D01*
X0088502Y0121766D02*
X0076288Y0121766D01*
X0076125Y0122158D02*
X0088502Y0122158D01*
X0088612Y0122550D02*
X0075963Y0122550D01*
X0075800Y0122943D02*
X0088774Y0122943D01*
X0088937Y0123335D02*
X0075455Y0123335D01*
X0075062Y0123727D02*
X0089180Y0123727D01*
X0089572Y0124119D02*
X0074670Y0124119D01*
X0074278Y0124511D02*
X0089964Y0124511D01*
X0090803Y0124904D02*
X0073344Y0124904D01*
X0072397Y0125296D02*
X0111772Y0125296D01*
X0110825Y0124904D02*
X0093300Y0124904D01*
X0094138Y0124511D02*
X0109891Y0124511D01*
X0109498Y0124119D02*
X0094531Y0124119D01*
X0094923Y0123727D02*
X0109106Y0123727D01*
X0108714Y0123335D02*
X0095166Y0123335D01*
X0095328Y0122943D02*
X0108368Y0122943D01*
X0108206Y0122550D02*
X0095491Y0122550D01*
X0095601Y0122158D02*
X0108043Y0122158D01*
X0107881Y0121766D02*
X0095601Y0121766D01*
X0095601Y0121374D02*
X0107718Y0121374D01*
X0107590Y0120982D02*
X0095601Y0120982D01*
X0095483Y0120589D02*
X0107590Y0120589D01*
X0107590Y0120197D02*
X0095321Y0120197D01*
X0095158Y0119805D02*
X0107590Y0119805D01*
X0107590Y0119413D02*
X0094905Y0119413D01*
X0094513Y0119020D02*
X0107590Y0119020D01*
X0107590Y0118628D02*
X0094121Y0118628D01*
X0093257Y0118236D02*
X0107590Y0118236D01*
X0121579Y0126080D02*
X0002597Y0126080D01*
X0002597Y0126473D02*
X0121579Y0126473D01*
X0121579Y0126865D02*
X0002597Y0126865D01*
X0002597Y0127257D02*
X0121579Y0127257D01*
X0121579Y0127649D02*
X0002597Y0127649D01*
X0002597Y0128041D02*
X0121579Y0128041D01*
X0121579Y0128434D02*
X0002597Y0128434D01*
X0002597Y0128826D02*
X0121579Y0128826D01*
X0121579Y0129218D02*
X0002597Y0129218D01*
X0002597Y0129610D02*
X0121579Y0129610D01*
X0121579Y0130002D02*
X0002597Y0130002D01*
X0002597Y0130395D02*
X0121579Y0130395D01*
X0121579Y0130787D02*
X0002597Y0130787D01*
X0002597Y0131179D02*
X0121579Y0131179D01*
X0121579Y0131571D02*
X0002597Y0131571D01*
X0002597Y0131963D02*
X0121579Y0131963D01*
X0121579Y0132356D02*
X0002597Y0132356D01*
X0002597Y0132748D02*
X0121579Y0132748D01*
X0121579Y0133140D02*
X0002597Y0133140D01*
X0002597Y0133532D02*
X0121579Y0133532D01*
X0121579Y0133925D02*
X0002597Y0133925D01*
X0002597Y0134317D02*
X0121579Y0134317D01*
X0121579Y0134709D02*
X0002597Y0134709D01*
X0002597Y0135101D02*
X0121579Y0135101D01*
X0121579Y0135493D02*
X0002597Y0135493D01*
X0002597Y0135886D02*
X0121579Y0135886D01*
X0121579Y0136278D02*
X0002597Y0136278D01*
X0002597Y0136670D02*
X0121579Y0136670D01*
X0121579Y0137062D02*
X0002597Y0137062D01*
X0002597Y0137454D02*
X0121579Y0137454D01*
X0121579Y0137847D02*
X0002597Y0137847D01*
X0002597Y0138239D02*
X0121579Y0138239D01*
X0121579Y0138631D02*
X0002597Y0138631D01*
X0002597Y0139023D02*
X0121579Y0139023D01*
X0121579Y0139416D02*
X0002597Y0139416D01*
X0002597Y0139808D02*
X0121579Y0139808D01*
X0121579Y0140200D02*
X0002597Y0140200D01*
X0002597Y0140592D02*
X0121579Y0140592D01*
X0121579Y0140984D02*
X0002597Y0140984D01*
X0002597Y0141377D02*
X0121579Y0141377D01*
X0121579Y0141769D02*
X0097619Y0141769D01*
X0097676Y0141778D02*
X0098504Y0142047D01*
X0099279Y0142442D01*
X0099983Y0142953D01*
X0100598Y0143568D01*
X0101109Y0144272D01*
X0101504Y0145047D01*
X0101773Y0145875D01*
X0101909Y0146734D01*
X0101909Y0146972D01*
X0092248Y0146972D01*
X0092248Y0141642D01*
X0096817Y0141642D01*
X0097676Y0141778D01*
X0098728Y0142161D02*
X0121579Y0142161D01*
X0121579Y0142553D02*
X0099432Y0142553D01*
X0099972Y0142945D02*
X0121579Y0142945D01*
X0121579Y0143338D02*
X0100367Y0143338D01*
X0100715Y0143730D02*
X0121579Y0143730D01*
X0121579Y0144122D02*
X0108219Y0144122D01*
X0108714Y0144327D02*
X0109657Y0145270D01*
X0110168Y0146502D01*
X0110168Y0147836D01*
X0109657Y0149068D01*
X0108714Y0150012D01*
X0107482Y0150522D01*
X0106148Y0150522D01*
X0104916Y0150012D01*
X0103973Y0149068D01*
X0103462Y0147836D01*
X0103462Y0146502D01*
X0103973Y0145270D01*
X0104916Y0144327D01*
X0106148Y0143817D01*
X0107482Y0143817D01*
X0108714Y0144327D01*
X0108901Y0144514D02*
X0121579Y0144514D01*
X0121579Y0144906D02*
X0109294Y0144906D01*
X0109669Y0145299D02*
X0121579Y0145299D01*
X0121579Y0145691D02*
X0109832Y0145691D01*
X0109994Y0146083D02*
X0121579Y0146083D01*
X0121579Y0146475D02*
X0110156Y0146475D01*
X0110168Y0146868D02*
X0121579Y0146868D01*
X0121579Y0147260D02*
X0110168Y0147260D01*
X0110168Y0147652D02*
X0121579Y0147652D01*
X0121579Y0148044D02*
X0110082Y0148044D01*
X0109919Y0148436D02*
X0121579Y0148436D01*
X0121579Y0148829D02*
X0109757Y0148829D01*
X0109505Y0149221D02*
X0121579Y0149221D01*
X0121579Y0149613D02*
X0109113Y0149613D01*
X0108720Y0150005D02*
X0121579Y0150005D01*
X0121579Y0150397D02*
X0107783Y0150397D01*
X0105847Y0150397D02*
X0100869Y0150397D01*
X0101109Y0150066D02*
X0100598Y0150770D01*
X0099983Y0151385D01*
X0099279Y0151897D01*
X0098504Y0152292D01*
X0097676Y0152561D01*
X0096817Y0152697D01*
X0092248Y0152697D01*
X0092248Y0147366D01*
X0101909Y0147366D01*
X0101909Y0147604D01*
X0101773Y0148464D01*
X0101504Y0149291D01*
X0101109Y0150066D01*
X0101141Y0150005D02*
X0104909Y0150005D01*
X0104517Y0149613D02*
X0101340Y0149613D01*
X0101527Y0149221D02*
X0104125Y0149221D01*
X0103873Y0148829D02*
X0101655Y0148829D01*
X0101778Y0148436D02*
X0103711Y0148436D01*
X0103548Y0148044D02*
X0101840Y0148044D01*
X0101902Y0147652D02*
X0103462Y0147652D01*
X0103462Y0147260D02*
X0092248Y0147260D01*
X0092248Y0147366D02*
X0092248Y0146972D01*
X0091854Y0146972D01*
X0091854Y0141642D01*
X0087285Y0141642D01*
X0086426Y0141778D01*
X0085599Y0142047D01*
X0084823Y0142442D01*
X0084120Y0142953D01*
X0083504Y0143568D01*
X0082993Y0144272D01*
X0082598Y0145047D01*
X0082329Y0145875D01*
X0082193Y0146734D01*
X0082193Y0146972D01*
X0091854Y0146972D01*
X0091854Y0147366D01*
X0082193Y0147366D01*
X0082193Y0147604D01*
X0082329Y0148464D01*
X0082598Y0149291D01*
X0082993Y0150066D01*
X0083504Y0150770D01*
X0084120Y0151385D01*
X0084823Y0151897D01*
X0085599Y0152292D01*
X0086426Y0152561D01*
X0087285Y0152697D01*
X0091854Y0152697D01*
X0091854Y0147366D01*
X0092248Y0147366D01*
X0092248Y0147652D02*
X0091854Y0147652D01*
X0091854Y0148044D02*
X0092248Y0148044D01*
X0092248Y0148436D02*
X0091854Y0148436D01*
X0091854Y0148829D02*
X0092248Y0148829D01*
X0092248Y0149221D02*
X0091854Y0149221D01*
X0091854Y0149613D02*
X0092248Y0149613D01*
X0092248Y0150005D02*
X0091854Y0150005D01*
X0091854Y0150397D02*
X0092248Y0150397D01*
X0092248Y0150790D02*
X0091854Y0150790D01*
X0091854Y0151182D02*
X0092248Y0151182D01*
X0092248Y0151574D02*
X0091854Y0151574D01*
X0091854Y0151966D02*
X0092248Y0151966D01*
X0092248Y0152359D02*
X0091854Y0152359D01*
X0085804Y0152359D02*
X0039243Y0152359D01*
X0039449Y0152292D02*
X0038621Y0152561D01*
X0037762Y0152697D01*
X0033193Y0152697D01*
X0033193Y0147366D01*
X0042854Y0147366D01*
X0042854Y0147604D01*
X0042718Y0148464D01*
X0042449Y0149291D01*
X0042054Y0150066D01*
X0041543Y0150770D01*
X0040928Y0151385D01*
X0040224Y0151897D01*
X0039449Y0152292D01*
X0040088Y0151966D02*
X0084960Y0151966D01*
X0084379Y0151574D02*
X0040668Y0151574D01*
X0041131Y0151182D02*
X0083916Y0151182D01*
X0083524Y0150790D02*
X0041524Y0150790D01*
X0041814Y0150397D02*
X0046792Y0150397D01*
X0047093Y0150522D02*
X0045861Y0150012D01*
X0044918Y0149068D01*
X0044407Y0147836D01*
X0044407Y0146502D01*
X0044918Y0145270D01*
X0045861Y0144327D01*
X0047093Y0143817D01*
X0048427Y0143817D01*
X0049659Y0144327D01*
X0050602Y0145270D01*
X0051113Y0146502D01*
X0051113Y0147836D01*
X0050602Y0149068D01*
X0049659Y0150012D01*
X0048427Y0150522D01*
X0047093Y0150522D01*
X0045854Y0150005D02*
X0042085Y0150005D01*
X0042285Y0149613D02*
X0045462Y0149613D01*
X0045070Y0149221D02*
X0042472Y0149221D01*
X0042600Y0148829D02*
X0044818Y0148829D01*
X0044656Y0148436D02*
X0042723Y0148436D01*
X0042785Y0148044D02*
X0044493Y0148044D01*
X0044407Y0147652D02*
X0042847Y0147652D01*
X0042854Y0146972D02*
X0033193Y0146972D01*
X0033193Y0141642D01*
X0037762Y0141642D01*
X0038621Y0141778D01*
X0039449Y0142047D01*
X0040224Y0142442D01*
X0040928Y0142953D01*
X0041543Y0143568D01*
X0042054Y0144272D01*
X0042449Y0145047D01*
X0042718Y0145875D01*
X0042854Y0146734D01*
X0042854Y0146972D01*
X0042854Y0146868D02*
X0044407Y0146868D01*
X0044407Y0147260D02*
X0033193Y0147260D01*
X0033193Y0147366D02*
X0033193Y0146972D01*
X0032799Y0146972D01*
X0032799Y0141642D01*
X0028230Y0141642D01*
X0027371Y0141778D01*
X0026544Y0142047D01*
X0025768Y0142442D01*
X0025064Y0142953D01*
X0024449Y0143568D01*
X0023938Y0144272D01*
X0023543Y0145047D01*
X0023274Y0145875D01*
X0023138Y0146734D01*
X0023138Y0146972D01*
X0032799Y0146972D01*
X0032799Y0147366D01*
X0023138Y0147366D01*
X0023138Y0147604D01*
X0023274Y0148464D01*
X0023543Y0149291D01*
X0023938Y0150066D01*
X0024449Y0150770D01*
X0025064Y0151385D01*
X0025768Y0151897D01*
X0026544Y0152292D01*
X0027371Y0152561D01*
X0028230Y0152697D01*
X0032799Y0152697D01*
X0032799Y0147366D01*
X0033193Y0147366D01*
X0033193Y0147652D02*
X0032799Y0147652D01*
X0032799Y0148044D02*
X0033193Y0148044D01*
X0033193Y0148436D02*
X0032799Y0148436D01*
X0032799Y0148829D02*
X0033193Y0148829D01*
X0033193Y0149221D02*
X0032799Y0149221D01*
X0032799Y0149613D02*
X0033193Y0149613D01*
X0033193Y0150005D02*
X0032799Y0150005D01*
X0032799Y0150397D02*
X0033193Y0150397D01*
X0033193Y0150790D02*
X0032799Y0150790D01*
X0032799Y0151182D02*
X0033193Y0151182D01*
X0033193Y0151574D02*
X0032799Y0151574D01*
X0032799Y0151966D02*
X0033193Y0151966D01*
X0033193Y0152359D02*
X0032799Y0152359D01*
X0026749Y0152359D02*
X0002597Y0152359D01*
X0002597Y0152751D02*
X0121579Y0152751D01*
X0121579Y0153143D02*
X0002597Y0153143D01*
X0002597Y0153535D02*
X0121579Y0153535D01*
X0121579Y0153927D02*
X0002597Y0153927D01*
X0002597Y0154320D02*
X0121579Y0154320D01*
X0121579Y0154712D02*
X0002597Y0154712D01*
X0002597Y0155104D02*
X0121579Y0155104D01*
X0121579Y0155496D02*
X0002597Y0155496D01*
X0002597Y0155888D02*
X0121579Y0155888D01*
X0121579Y0156281D02*
X0002597Y0156281D01*
X0002597Y0156673D02*
X0121579Y0156673D01*
X0121579Y0157065D02*
X0002597Y0157065D01*
X0002597Y0157457D02*
X0121579Y0157457D01*
X0121579Y0157849D02*
X0002597Y0157849D01*
X0002597Y0158242D02*
X0121579Y0158242D01*
X0121579Y0158634D02*
X0002597Y0158634D01*
X0002597Y0159026D02*
X0121579Y0159026D01*
X0121579Y0159418D02*
X0002597Y0159418D01*
X0002597Y0159811D02*
X0121579Y0159811D01*
X0121579Y0160203D02*
X0002597Y0160203D01*
X0002597Y0160595D02*
X0121579Y0160595D01*
X0121579Y0160987D02*
X0002597Y0160987D01*
X0002597Y0161379D02*
X0121579Y0161379D01*
X0121579Y0161772D02*
X0002597Y0161772D01*
X0002597Y0151966D02*
X0025905Y0151966D01*
X0025324Y0151574D02*
X0002597Y0151574D01*
X0002597Y0151182D02*
X0024861Y0151182D01*
X0024469Y0150790D02*
X0002597Y0150790D01*
X0002597Y0150397D02*
X0017265Y0150397D01*
X0017565Y0150522D02*
X0016333Y0150012D01*
X0015390Y0149068D01*
X0014880Y0147836D01*
X0014880Y0146502D01*
X0015390Y0145270D01*
X0016333Y0144327D01*
X0017565Y0143817D01*
X0018899Y0143817D01*
X0020131Y0144327D01*
X0021075Y0145270D01*
X0021585Y0146502D01*
X0021585Y0147836D01*
X0021075Y0149068D01*
X0020131Y0150012D01*
X0018899Y0150522D01*
X0017565Y0150522D01*
X0016327Y0150005D02*
X0002597Y0150005D01*
X0002597Y0149613D02*
X0015935Y0149613D01*
X0015542Y0149221D02*
X0002597Y0149221D01*
X0002597Y0148829D02*
X0015291Y0148829D01*
X0015128Y0148436D02*
X0002597Y0148436D01*
X0002597Y0148044D02*
X0014966Y0148044D01*
X0014880Y0147652D02*
X0002597Y0147652D01*
X0002597Y0147260D02*
X0014880Y0147260D01*
X0014880Y0146868D02*
X0002597Y0146868D01*
X0002597Y0146475D02*
X0014891Y0146475D01*
X0015053Y0146083D02*
X0002597Y0146083D01*
X0002597Y0145691D02*
X0015216Y0145691D01*
X0015378Y0145299D02*
X0002597Y0145299D01*
X0002597Y0144906D02*
X0015754Y0144906D01*
X0016146Y0144514D02*
X0002597Y0144514D01*
X0002597Y0144122D02*
X0016828Y0144122D01*
X0019637Y0144122D02*
X0024047Y0144122D01*
X0023814Y0144514D02*
X0020319Y0144514D01*
X0020711Y0144906D02*
X0023615Y0144906D01*
X0023461Y0145299D02*
X0021086Y0145299D01*
X0021249Y0145691D02*
X0023334Y0145691D01*
X0023241Y0146083D02*
X0021411Y0146083D01*
X0021574Y0146475D02*
X0023179Y0146475D01*
X0023138Y0146868D02*
X0021585Y0146868D01*
X0021585Y0147260D02*
X0032799Y0147260D01*
X0032799Y0146868D02*
X0033193Y0146868D01*
X0033193Y0146475D02*
X0032799Y0146475D01*
X0032799Y0146083D02*
X0033193Y0146083D01*
X0033193Y0145691D02*
X0032799Y0145691D01*
X0032799Y0145299D02*
X0033193Y0145299D01*
X0033193Y0144906D02*
X0032799Y0144906D01*
X0032799Y0144514D02*
X0033193Y0144514D01*
X0033193Y0144122D02*
X0032799Y0144122D01*
X0032799Y0143730D02*
X0033193Y0143730D01*
X0033193Y0143338D02*
X0032799Y0143338D01*
X0032799Y0142945D02*
X0033193Y0142945D01*
X0033193Y0142553D02*
X0032799Y0142553D01*
X0032799Y0142161D02*
X0033193Y0142161D01*
X0033193Y0141769D02*
X0032799Y0141769D01*
X0038564Y0141769D02*
X0086483Y0141769D01*
X0085374Y0142161D02*
X0039673Y0142161D01*
X0040377Y0142553D02*
X0084670Y0142553D01*
X0084130Y0142945D02*
X0040917Y0142945D01*
X0041312Y0143338D02*
X0083735Y0143338D01*
X0083387Y0143730D02*
X0041660Y0143730D01*
X0041945Y0144122D02*
X0046355Y0144122D01*
X0045673Y0144514D02*
X0042178Y0144514D01*
X0042378Y0144906D02*
X0045281Y0144906D01*
X0044906Y0145299D02*
X0042531Y0145299D01*
X0042658Y0145691D02*
X0044743Y0145691D01*
X0044581Y0146083D02*
X0042751Y0146083D01*
X0042813Y0146475D02*
X0044418Y0146475D01*
X0049164Y0144122D02*
X0075883Y0144122D01*
X0075388Y0144327D02*
X0076620Y0143817D01*
X0077954Y0143817D01*
X0079187Y0144327D01*
X0080130Y0145270D01*
X0080640Y0146502D01*
X0080640Y0147836D01*
X0080130Y0149068D01*
X0079187Y0150012D01*
X0077954Y0150522D01*
X0076620Y0150522D01*
X0075388Y0150012D01*
X0074445Y0149068D01*
X0073935Y0147836D01*
X0073935Y0146502D01*
X0074445Y0145270D01*
X0075388Y0144327D01*
X0075201Y0144514D02*
X0049846Y0144514D01*
X0050239Y0144906D02*
X0074809Y0144906D01*
X0074433Y0145299D02*
X0050614Y0145299D01*
X0050776Y0145691D02*
X0074271Y0145691D01*
X0074108Y0146083D02*
X0050939Y0146083D01*
X0051101Y0146475D02*
X0073946Y0146475D01*
X0073935Y0146868D02*
X0051113Y0146868D01*
X0051113Y0147260D02*
X0073935Y0147260D01*
X0073935Y0147652D02*
X0051113Y0147652D01*
X0051026Y0148044D02*
X0074021Y0148044D01*
X0074183Y0148436D02*
X0050864Y0148436D01*
X0050702Y0148829D02*
X0074346Y0148829D01*
X0074597Y0149221D02*
X0050450Y0149221D01*
X0050058Y0149613D02*
X0074990Y0149613D01*
X0075382Y0150005D02*
X0049665Y0150005D01*
X0048727Y0150397D02*
X0076320Y0150397D01*
X0078255Y0150397D02*
X0083233Y0150397D01*
X0082962Y0150005D02*
X0079193Y0150005D01*
X0079585Y0149613D02*
X0082762Y0149613D01*
X0082575Y0149221D02*
X0079977Y0149221D01*
X0080229Y0148829D02*
X0082448Y0148829D01*
X0082325Y0148436D02*
X0080392Y0148436D01*
X0080554Y0148044D02*
X0082263Y0148044D01*
X0082200Y0147652D02*
X0080640Y0147652D01*
X0080640Y0147260D02*
X0091854Y0147260D01*
X0091854Y0146868D02*
X0092248Y0146868D01*
X0092248Y0146475D02*
X0091854Y0146475D01*
X0091854Y0146083D02*
X0092248Y0146083D01*
X0092248Y0145691D02*
X0091854Y0145691D01*
X0091854Y0145299D02*
X0092248Y0145299D01*
X0092248Y0144906D02*
X0091854Y0144906D01*
X0091854Y0144514D02*
X0092248Y0144514D01*
X0092248Y0144122D02*
X0091854Y0144122D01*
X0091854Y0143730D02*
X0092248Y0143730D01*
X0092248Y0143338D02*
X0091854Y0143338D01*
X0091854Y0142945D02*
X0092248Y0142945D01*
X0092248Y0142553D02*
X0091854Y0142553D01*
X0091854Y0142161D02*
X0092248Y0142161D01*
X0092248Y0141769D02*
X0091854Y0141769D01*
X0083102Y0144122D02*
X0078692Y0144122D01*
X0079374Y0144514D02*
X0082870Y0144514D01*
X0082670Y0144906D02*
X0079766Y0144906D01*
X0080142Y0145299D02*
X0082516Y0145299D01*
X0082389Y0145691D02*
X0080304Y0145691D01*
X0080466Y0146083D02*
X0082296Y0146083D01*
X0082234Y0146475D02*
X0080629Y0146475D01*
X0080640Y0146868D02*
X0082193Y0146868D01*
X0098299Y0152359D02*
X0121579Y0152359D01*
X0121579Y0151966D02*
X0099143Y0151966D01*
X0099723Y0151574D02*
X0121579Y0151574D01*
X0121579Y0151182D02*
X0100186Y0151182D01*
X0100579Y0150790D02*
X0121579Y0150790D01*
X0127484Y0150790D02*
X0261343Y0150790D01*
X0261343Y0151182D02*
X0127484Y0151182D01*
X0127484Y0151574D02*
X0261343Y0151574D01*
X0261343Y0151966D02*
X0127484Y0151966D01*
X0127484Y0152359D02*
X0261343Y0152359D01*
X0261343Y0152751D02*
X0127484Y0152751D01*
X0127484Y0153143D02*
X0261343Y0153143D01*
X0261343Y0153535D02*
X0127484Y0153535D01*
X0127484Y0153927D02*
X0261343Y0153927D01*
X0261343Y0154320D02*
X0127484Y0154320D01*
X0127484Y0154712D02*
X0261343Y0154712D01*
X0261343Y0155104D02*
X0127484Y0155104D01*
X0127484Y0155496D02*
X0261343Y0155496D01*
X0261343Y0155888D02*
X0127484Y0155888D01*
X0127484Y0156281D02*
X0261343Y0156281D01*
X0261343Y0156673D02*
X0127484Y0156673D01*
X0127484Y0157065D02*
X0261343Y0157065D01*
X0261343Y0157457D02*
X0127484Y0157457D01*
X0127484Y0157849D02*
X0261343Y0157849D01*
X0261343Y0158242D02*
X0127484Y0158242D01*
X0127484Y0158634D02*
X0261343Y0158634D01*
X0261343Y0159026D02*
X0127484Y0159026D01*
X0127484Y0159418D02*
X0261343Y0159418D01*
X0261343Y0159811D02*
X0127484Y0159811D01*
X0127484Y0160203D02*
X0261343Y0160203D01*
X0261343Y0160595D02*
X0127484Y0160595D01*
X0127484Y0160987D02*
X0261343Y0160987D01*
X0261343Y0161379D02*
X0127484Y0161379D01*
X0127484Y0161772D02*
X0261343Y0161772D01*
X0261343Y0161820D02*
X0261343Y0111736D01*
X0261343Y0077091D01*
X0280240Y0077091D01*
X0280240Y0070004D01*
X0259768Y0070004D01*
X0224335Y0111736D01*
X0226909Y0111736D01*
X0227137Y0111508D01*
X0228665Y0111508D01*
X0228665Y0111736D01*
X0229059Y0111736D01*
X0229059Y0111508D01*
X0230588Y0111508D01*
X0230816Y0111736D01*
X0236751Y0111736D01*
X0236979Y0111508D01*
X0238508Y0111508D01*
X0238508Y0111736D01*
X0238902Y0111736D01*
X0238902Y0111508D01*
X0240430Y0111508D01*
X0240658Y0111736D01*
X0261343Y0111736D01*
X0240658Y0111736D01*
X0242870Y0113948D01*
X0242870Y0115476D01*
X0238902Y0115476D01*
X0238902Y0115870D01*
X0242870Y0115870D01*
X0242870Y0117399D01*
X0240430Y0119839D01*
X0238902Y0119839D01*
X0238902Y0115870D01*
X0238508Y0115870D01*
X0238508Y0119839D01*
X0236979Y0119839D01*
X0234539Y0117399D01*
X0234539Y0115870D01*
X0238508Y0115870D01*
X0238508Y0115476D01*
X0234539Y0115476D01*
X0234539Y0113948D01*
X0236751Y0111736D01*
X0230816Y0111736D01*
X0233028Y0113948D01*
X0233028Y0115476D01*
X0229059Y0115476D01*
X0229059Y0115870D01*
X0233028Y0115870D01*
X0233028Y0117399D01*
X0230588Y0119839D01*
X0229059Y0119839D01*
X0229059Y0115870D01*
X0228665Y0115870D01*
X0228665Y0115476D01*
X0224697Y0115476D01*
X0224697Y0113948D01*
X0226909Y0111736D01*
X0224335Y0111736D01*
X0224335Y0130634D01*
X0144807Y0130634D01*
X0144807Y0111736D01*
X0127484Y0111736D01*
X0127484Y0161820D01*
X0261343Y0161820D01*
X0261343Y0150397D02*
X0127484Y0150397D01*
X0127484Y0150005D02*
X0261343Y0150005D01*
X0261343Y0149613D02*
X0127484Y0149613D01*
X0127484Y0149221D02*
X0261343Y0149221D01*
X0261343Y0148829D02*
X0127484Y0148829D01*
X0127484Y0148436D02*
X0261343Y0148436D01*
X0261343Y0148044D02*
X0127484Y0148044D01*
X0127484Y0147652D02*
X0261343Y0147652D01*
X0261343Y0147260D02*
X0127484Y0147260D01*
X0127484Y0146868D02*
X0261343Y0146868D01*
X0261343Y0146475D02*
X0127484Y0146475D01*
X0127484Y0146083D02*
X0261343Y0146083D01*
X0261343Y0145691D02*
X0127484Y0145691D01*
X0127484Y0145299D02*
X0261343Y0145299D01*
X0261343Y0144906D02*
X0127484Y0144906D01*
X0127484Y0144514D02*
X0261343Y0144514D01*
X0261343Y0144122D02*
X0127484Y0144122D01*
X0127484Y0143730D02*
X0261343Y0143730D01*
X0261343Y0143338D02*
X0127484Y0143338D01*
X0127484Y0142945D02*
X0261343Y0142945D01*
X0261343Y0142553D02*
X0127484Y0142553D01*
X0127484Y0142161D02*
X0261343Y0142161D01*
X0261343Y0141769D02*
X0127484Y0141769D01*
X0127484Y0141377D02*
X0261343Y0141377D01*
X0261343Y0140984D02*
X0127484Y0140984D01*
X0127484Y0140592D02*
X0261343Y0140592D01*
X0261343Y0140200D02*
X0127484Y0140200D01*
X0127484Y0139808D02*
X0261343Y0139808D01*
X0261343Y0139416D02*
X0127484Y0139416D01*
X0127484Y0139023D02*
X0261343Y0139023D01*
X0261343Y0138631D02*
X0127484Y0138631D01*
X0127484Y0138239D02*
X0261343Y0138239D01*
X0261343Y0137847D02*
X0127484Y0137847D01*
X0127484Y0137454D02*
X0261343Y0137454D01*
X0261343Y0137062D02*
X0127484Y0137062D01*
X0127484Y0136670D02*
X0261343Y0136670D01*
X0261343Y0136278D02*
X0127484Y0136278D01*
X0127484Y0135886D02*
X0261343Y0135886D01*
X0261343Y0135493D02*
X0127484Y0135493D01*
X0127484Y0135101D02*
X0261343Y0135101D01*
X0261343Y0134709D02*
X0127484Y0134709D01*
X0127484Y0134317D02*
X0261343Y0134317D01*
X0261343Y0133925D02*
X0127484Y0133925D01*
X0127484Y0133532D02*
X0261343Y0133532D01*
X0261343Y0133140D02*
X0127484Y0133140D01*
X0127484Y0132748D02*
X0261343Y0132748D01*
X0261343Y0132356D02*
X0127484Y0132356D01*
X0127484Y0131963D02*
X0261343Y0131963D01*
X0261343Y0131571D02*
X0127484Y0131571D01*
X0127484Y0131179D02*
X0261343Y0131179D01*
X0261343Y0130787D02*
X0127484Y0130787D01*
X0127484Y0130395D02*
X0144807Y0130395D01*
X0144807Y0130002D02*
X0127484Y0130002D01*
X0127484Y0129610D02*
X0144807Y0129610D01*
X0144807Y0129218D02*
X0127484Y0129218D01*
X0127484Y0128826D02*
X0144807Y0128826D01*
X0144807Y0128434D02*
X0127484Y0128434D01*
X0127484Y0128041D02*
X0144807Y0128041D01*
X0144807Y0127649D02*
X0127484Y0127649D01*
X0127484Y0127257D02*
X0144807Y0127257D01*
X0144807Y0126865D02*
X0127484Y0126865D01*
X0127484Y0126473D02*
X0144807Y0126473D01*
X0144807Y0126080D02*
X0127484Y0126080D01*
X0127484Y0125688D02*
X0144807Y0125688D01*
X0144807Y0125296D02*
X0127484Y0125296D01*
X0127484Y0124904D02*
X0144807Y0124904D01*
X0144807Y0124511D02*
X0127484Y0124511D01*
X0127484Y0124119D02*
X0144807Y0124119D01*
X0144807Y0123727D02*
X0127484Y0123727D01*
X0127484Y0123335D02*
X0144807Y0123335D01*
X0144807Y0122943D02*
X0127484Y0122943D01*
X0127484Y0122550D02*
X0144807Y0122550D01*
X0144807Y0122158D02*
X0127484Y0122158D01*
X0127484Y0121766D02*
X0144807Y0121766D01*
X0144807Y0121374D02*
X0127484Y0121374D01*
X0127484Y0120982D02*
X0144807Y0120982D01*
X0144807Y0120589D02*
X0127484Y0120589D01*
X0127484Y0120197D02*
X0144807Y0120197D01*
X0144807Y0119805D02*
X0127484Y0119805D01*
X0127484Y0119413D02*
X0144807Y0119413D01*
X0144807Y0119020D02*
X0127484Y0119020D01*
X0127484Y0118628D02*
X0144807Y0118628D01*
X0144807Y0118236D02*
X0127484Y0118236D01*
X0127484Y0117844D02*
X0144807Y0117844D01*
X0144807Y0117452D02*
X0127484Y0117452D01*
X0127484Y0117059D02*
X0144807Y0117059D01*
X0144807Y0116667D02*
X0127484Y0116667D01*
X0127484Y0116275D02*
X0144807Y0116275D01*
X0144807Y0115883D02*
X0127484Y0115883D01*
X0127484Y0115491D02*
X0144807Y0115491D01*
X0144807Y0115098D02*
X0127484Y0115098D01*
X0127484Y0114706D02*
X0144807Y0114706D01*
X0144807Y0114314D02*
X0127484Y0114314D01*
X0127484Y0113922D02*
X0144807Y0113922D01*
X0144807Y0113530D02*
X0127484Y0113530D01*
X0127484Y0113137D02*
X0144807Y0113137D01*
X0144807Y0112745D02*
X0127484Y0112745D01*
X0127484Y0112353D02*
X0144807Y0112353D01*
X0144807Y0111961D02*
X0127484Y0111961D01*
X0070040Y0106077D02*
X0055073Y0106077D01*
X0054922Y0106015D02*
X0056880Y0106826D01*
X0058379Y0108325D01*
X0059190Y0110283D01*
X0059190Y0121064D01*
X0058379Y0123022D01*
X0056880Y0124520D01*
X0054922Y0125331D01*
X0052802Y0125331D01*
X0050844Y0124520D01*
X0049346Y0123022D01*
X0048535Y0121064D01*
X0048535Y0110283D01*
X0049346Y0108325D01*
X0050844Y0106826D01*
X0052802Y0106015D01*
X0054922Y0106015D01*
X0056020Y0106470D02*
X0069094Y0106470D01*
X0068197Y0106862D02*
X0056916Y0106862D01*
X0057308Y0107254D02*
X0067805Y0107254D01*
X0067413Y0107646D02*
X0057700Y0107646D01*
X0058093Y0108039D02*
X0067021Y0108039D01*
X0066691Y0108431D02*
X0058423Y0108431D01*
X0058585Y0108823D02*
X0066528Y0108823D01*
X0066366Y0109215D02*
X0058748Y0109215D01*
X0058910Y0109607D02*
X0066203Y0109607D01*
X0066041Y0110000D02*
X0059072Y0110000D01*
X0059190Y0110392D02*
X0065924Y0110392D01*
X0065924Y0110784D02*
X0059190Y0110784D01*
X0059190Y0111176D02*
X0065924Y0111176D01*
X0065924Y0111568D02*
X0059190Y0111568D01*
X0059190Y0111961D02*
X0065924Y0111961D01*
X0065924Y0112353D02*
X0059190Y0112353D01*
X0059190Y0112745D02*
X0065924Y0112745D01*
X0065924Y0113137D02*
X0059190Y0113137D01*
X0059190Y0113530D02*
X0065924Y0113530D01*
X0065924Y0113922D02*
X0059190Y0113922D01*
X0059190Y0114314D02*
X0065924Y0114314D01*
X0065924Y0114706D02*
X0059190Y0114706D01*
X0059190Y0115098D02*
X0065924Y0115098D01*
X0065924Y0115491D02*
X0059190Y0115491D01*
X0059190Y0115883D02*
X0065924Y0115883D01*
X0065924Y0116275D02*
X0059190Y0116275D01*
X0059190Y0116667D02*
X0065924Y0116667D01*
X0065924Y0117059D02*
X0059190Y0117059D01*
X0059190Y0117452D02*
X0065924Y0117452D01*
X0065924Y0117844D02*
X0059190Y0117844D01*
X0059190Y0118236D02*
X0065924Y0118236D01*
X0065924Y0118628D02*
X0059190Y0118628D01*
X0059190Y0119020D02*
X0065924Y0119020D01*
X0065924Y0119413D02*
X0059190Y0119413D01*
X0059190Y0119805D02*
X0065924Y0119805D01*
X0065924Y0120197D02*
X0059190Y0120197D01*
X0059190Y0120589D02*
X0065924Y0120589D01*
X0065924Y0120982D02*
X0059190Y0120982D01*
X0059061Y0121374D02*
X0066052Y0121374D01*
X0066215Y0121766D02*
X0058899Y0121766D01*
X0058736Y0122158D02*
X0066377Y0122158D01*
X0066539Y0122550D02*
X0058574Y0122550D01*
X0058411Y0122943D02*
X0066702Y0122943D01*
X0067048Y0123335D02*
X0058066Y0123335D01*
X0057673Y0123727D02*
X0067440Y0123727D01*
X0067832Y0124119D02*
X0057281Y0124119D01*
X0056889Y0124511D02*
X0068224Y0124511D01*
X0069159Y0124904D02*
X0055955Y0124904D01*
X0055008Y0125296D02*
X0070106Y0125296D01*
X0052717Y0125296D02*
X0013342Y0125296D01*
X0014289Y0124904D02*
X0031748Y0124904D01*
X0032290Y0125128D02*
X0030985Y0124588D01*
X0029987Y0123589D01*
X0029446Y0122285D01*
X0029446Y0120873D01*
X0029987Y0119568D01*
X0030985Y0118570D01*
X0032290Y0118029D01*
X0033702Y0118029D01*
X0035007Y0118570D01*
X0036005Y0119568D01*
X0036546Y0120873D01*
X0036546Y0122285D01*
X0036005Y0123589D01*
X0035007Y0124588D01*
X0033702Y0125128D01*
X0032290Y0125128D01*
X0030909Y0124511D02*
X0015223Y0124511D01*
X0015615Y0124119D02*
X0030517Y0124119D01*
X0030124Y0123727D02*
X0016007Y0123727D01*
X0016399Y0123335D02*
X0029881Y0123335D01*
X0029719Y0122943D02*
X0016745Y0122943D01*
X0016908Y0122550D02*
X0029556Y0122550D01*
X0029446Y0122158D02*
X0017070Y0122158D01*
X0017233Y0121766D02*
X0029446Y0121766D01*
X0029446Y0121374D02*
X0017395Y0121374D01*
X0017524Y0120982D02*
X0029446Y0120982D01*
X0029564Y0120589D02*
X0017524Y0120589D01*
X0017524Y0120197D02*
X0029726Y0120197D01*
X0029889Y0119805D02*
X0017524Y0119805D01*
X0017524Y0119413D02*
X0030142Y0119413D01*
X0030534Y0119020D02*
X0017524Y0119020D01*
X0017524Y0118628D02*
X0030927Y0118628D01*
X0031790Y0118236D02*
X0017524Y0118236D01*
X0017524Y0117844D02*
X0048535Y0117844D01*
X0048535Y0118236D02*
X0034202Y0118236D01*
X0035066Y0118628D02*
X0048535Y0118628D01*
X0048535Y0119020D02*
X0035458Y0119020D01*
X0035850Y0119413D02*
X0048535Y0119413D01*
X0048535Y0119805D02*
X0036103Y0119805D01*
X0036266Y0120197D02*
X0048535Y0120197D01*
X0048535Y0120589D02*
X0036428Y0120589D01*
X0036546Y0120982D02*
X0048535Y0120982D01*
X0048663Y0121374D02*
X0036546Y0121374D01*
X0036546Y0121766D02*
X0048826Y0121766D01*
X0048988Y0122158D02*
X0036546Y0122158D01*
X0036436Y0122550D02*
X0049150Y0122550D01*
X0049313Y0122943D02*
X0036273Y0122943D01*
X0036111Y0123335D02*
X0049659Y0123335D01*
X0050051Y0123727D02*
X0035868Y0123727D01*
X0035475Y0124119D02*
X0050443Y0124119D01*
X0050835Y0124511D02*
X0035083Y0124511D01*
X0034244Y0124904D02*
X0051770Y0124904D01*
X0048535Y0117452D02*
X0017524Y0117452D01*
X0017524Y0117059D02*
X0048535Y0117059D01*
X0048535Y0116667D02*
X0017524Y0116667D01*
X0017524Y0116275D02*
X0048535Y0116275D01*
X0048535Y0115883D02*
X0017524Y0115883D01*
X0017524Y0115491D02*
X0048535Y0115491D01*
X0048535Y0115098D02*
X0017524Y0115098D01*
X0017524Y0114706D02*
X0048535Y0114706D01*
X0048535Y0114314D02*
X0017524Y0114314D01*
X0017524Y0113922D02*
X0048535Y0113922D01*
X0048535Y0113530D02*
X0017524Y0113530D01*
X0017524Y0113137D02*
X0048535Y0113137D01*
X0048535Y0112745D02*
X0017524Y0112745D01*
X0017524Y0112353D02*
X0048535Y0112353D01*
X0048535Y0111961D02*
X0017524Y0111961D01*
X0017524Y0111568D02*
X0048535Y0111568D01*
X0048535Y0111176D02*
X0017524Y0111176D01*
X0017524Y0110784D02*
X0048535Y0110784D01*
X0048535Y0110392D02*
X0017524Y0110392D01*
X0017406Y0110000D02*
X0048652Y0110000D01*
X0048814Y0109607D02*
X0017244Y0109607D01*
X0017081Y0109215D02*
X0048977Y0109215D01*
X0049139Y0108823D02*
X0016919Y0108823D01*
X0016756Y0108431D02*
X0049302Y0108431D01*
X0049632Y0108039D02*
X0016426Y0108039D01*
X0016034Y0107646D02*
X0050024Y0107646D01*
X0050416Y0107254D02*
X0015642Y0107254D01*
X0015250Y0106862D02*
X0050808Y0106862D01*
X0051705Y0106470D02*
X0014354Y0106470D01*
X0013407Y0106077D02*
X0052651Y0106077D01*
X0027428Y0141769D02*
X0002597Y0141769D01*
X0002597Y0142161D02*
X0026319Y0142161D01*
X0025615Y0142553D02*
X0002597Y0142553D01*
X0002597Y0142945D02*
X0025075Y0142945D01*
X0024680Y0143338D02*
X0002597Y0143338D01*
X0002597Y0143730D02*
X0024332Y0143730D01*
X0023145Y0147652D02*
X0021585Y0147652D01*
X0021499Y0148044D02*
X0023207Y0148044D01*
X0023270Y0148436D02*
X0021336Y0148436D01*
X0021174Y0148829D02*
X0023392Y0148829D01*
X0023520Y0149221D02*
X0020922Y0149221D01*
X0020530Y0149613D02*
X0023707Y0149613D01*
X0023907Y0150005D02*
X0020138Y0150005D01*
X0019200Y0150397D02*
X0024178Y0150397D01*
X0101000Y0144122D02*
X0105410Y0144122D01*
X0104728Y0144514D02*
X0101233Y0144514D01*
X0101433Y0144906D02*
X0104336Y0144906D01*
X0103961Y0145299D02*
X0101586Y0145299D01*
X0101714Y0145691D02*
X0103798Y0145691D01*
X0103636Y0146083D02*
X0101806Y0146083D01*
X0101868Y0146475D02*
X0103473Y0146475D01*
X0103462Y0146868D02*
X0101909Y0146868D01*
X0224335Y0130395D02*
X0261343Y0130395D01*
X0261343Y0130002D02*
X0224335Y0130002D01*
X0224335Y0129610D02*
X0227066Y0129610D01*
X0227137Y0129681D02*
X0224697Y0127241D01*
X0224697Y0125713D01*
X0228665Y0125713D01*
X0228665Y0129681D01*
X0227137Y0129681D01*
X0226674Y0129218D02*
X0224335Y0129218D01*
X0224335Y0128826D02*
X0226282Y0128826D01*
X0225889Y0128434D02*
X0224335Y0128434D01*
X0224335Y0128041D02*
X0225497Y0128041D01*
X0225105Y0127649D02*
X0224335Y0127649D01*
X0224335Y0127257D02*
X0224713Y0127257D01*
X0224697Y0126865D02*
X0224335Y0126865D01*
X0224335Y0126473D02*
X0224697Y0126473D01*
X0224697Y0126080D02*
X0224335Y0126080D01*
X0224335Y0125688D02*
X0228665Y0125688D01*
X0228665Y0125713D02*
X0228665Y0125319D01*
X0224697Y0125319D01*
X0224697Y0123790D01*
X0227137Y0121350D01*
X0228665Y0121350D01*
X0228665Y0125319D01*
X0229059Y0125319D01*
X0229059Y0125713D01*
X0228665Y0125713D01*
X0228665Y0126080D02*
X0229059Y0126080D01*
X0229059Y0125713D02*
X0229059Y0129681D01*
X0230588Y0129681D01*
X0233028Y0127241D01*
X0233028Y0125713D01*
X0229059Y0125713D01*
X0229059Y0125688D02*
X0238508Y0125688D01*
X0238508Y0125713D02*
X0238508Y0125319D01*
X0238902Y0125319D01*
X0238902Y0125713D01*
X0242870Y0125713D01*
X0242870Y0127241D01*
X0240430Y0129681D01*
X0238902Y0129681D01*
X0238902Y0125713D01*
X0238508Y0125713D01*
X0238508Y0129681D01*
X0236979Y0129681D01*
X0234539Y0127241D01*
X0234539Y0125713D01*
X0238508Y0125713D01*
X0238508Y0126080D02*
X0238902Y0126080D01*
X0238902Y0125688D02*
X0261343Y0125688D01*
X0261343Y0125296D02*
X0242870Y0125296D01*
X0242870Y0125319D02*
X0238902Y0125319D01*
X0238902Y0121350D01*
X0240430Y0121350D01*
X0242870Y0123790D01*
X0242870Y0125319D01*
X0242870Y0124904D02*
X0261343Y0124904D01*
X0261343Y0124511D02*
X0242870Y0124511D01*
X0242870Y0124119D02*
X0261343Y0124119D01*
X0261343Y0123727D02*
X0242807Y0123727D01*
X0242414Y0123335D02*
X0261343Y0123335D01*
X0261343Y0122943D02*
X0242022Y0122943D01*
X0241630Y0122550D02*
X0261343Y0122550D01*
X0261343Y0122158D02*
X0241238Y0122158D01*
X0240846Y0121766D02*
X0261343Y0121766D01*
X0261343Y0121374D02*
X0240453Y0121374D01*
X0238902Y0121374D02*
X0238508Y0121374D01*
X0238508Y0121350D02*
X0238508Y0125319D01*
X0234539Y0125319D01*
X0234539Y0123790D01*
X0236979Y0121350D01*
X0238508Y0121350D01*
X0238508Y0121766D02*
X0238902Y0121766D01*
X0238902Y0122158D02*
X0238508Y0122158D01*
X0238508Y0122550D02*
X0238902Y0122550D01*
X0238902Y0122943D02*
X0238508Y0122943D01*
X0238508Y0123335D02*
X0238902Y0123335D01*
X0238902Y0123727D02*
X0238508Y0123727D01*
X0238508Y0124119D02*
X0238902Y0124119D01*
X0238902Y0124511D02*
X0238508Y0124511D01*
X0238508Y0124904D02*
X0238902Y0124904D01*
X0238902Y0125296D02*
X0238508Y0125296D01*
X0238508Y0126473D02*
X0238902Y0126473D01*
X0238902Y0126865D02*
X0238508Y0126865D01*
X0238508Y0127257D02*
X0238902Y0127257D01*
X0238902Y0127649D02*
X0238508Y0127649D01*
X0238508Y0128041D02*
X0238902Y0128041D01*
X0238902Y0128434D02*
X0238508Y0128434D01*
X0238508Y0128826D02*
X0238902Y0128826D01*
X0238902Y0129218D02*
X0238508Y0129218D01*
X0238508Y0129610D02*
X0238902Y0129610D01*
X0240501Y0129610D02*
X0261343Y0129610D01*
X0261343Y0129218D02*
X0240893Y0129218D01*
X0241285Y0128826D02*
X0261343Y0128826D01*
X0261343Y0128434D02*
X0241678Y0128434D01*
X0242070Y0128041D02*
X0261343Y0128041D01*
X0261343Y0127649D02*
X0242462Y0127649D01*
X0242854Y0127257D02*
X0261343Y0127257D01*
X0261343Y0126865D02*
X0242870Y0126865D01*
X0242870Y0126473D02*
X0261343Y0126473D01*
X0261343Y0126080D02*
X0242870Y0126080D01*
X0236516Y0129218D02*
X0231051Y0129218D01*
X0231443Y0128826D02*
X0236124Y0128826D01*
X0235732Y0128434D02*
X0231835Y0128434D01*
X0232227Y0128041D02*
X0235340Y0128041D01*
X0234947Y0127649D02*
X0232619Y0127649D01*
X0233012Y0127257D02*
X0234555Y0127257D01*
X0234539Y0126865D02*
X0233028Y0126865D01*
X0233028Y0126473D02*
X0234539Y0126473D01*
X0234539Y0126080D02*
X0233028Y0126080D01*
X0233028Y0125319D02*
X0229059Y0125319D01*
X0229059Y0121350D01*
X0230588Y0121350D01*
X0233028Y0123790D01*
X0233028Y0125319D01*
X0233028Y0125296D02*
X0234539Y0125296D01*
X0234539Y0124904D02*
X0233028Y0124904D01*
X0233028Y0124511D02*
X0234539Y0124511D01*
X0234539Y0124119D02*
X0233028Y0124119D01*
X0232964Y0123727D02*
X0234603Y0123727D01*
X0234995Y0123335D02*
X0232572Y0123335D01*
X0232180Y0122943D02*
X0235387Y0122943D01*
X0235779Y0122550D02*
X0231788Y0122550D01*
X0231395Y0122158D02*
X0236172Y0122158D01*
X0236564Y0121766D02*
X0231003Y0121766D01*
X0230611Y0121374D02*
X0236956Y0121374D01*
X0236946Y0119805D02*
X0230621Y0119805D01*
X0231013Y0119413D02*
X0236554Y0119413D01*
X0236161Y0119020D02*
X0231406Y0119020D01*
X0231798Y0118628D02*
X0235769Y0118628D01*
X0235377Y0118236D02*
X0232190Y0118236D01*
X0232582Y0117844D02*
X0234985Y0117844D01*
X0234592Y0117452D02*
X0232974Y0117452D01*
X0233028Y0117059D02*
X0234539Y0117059D01*
X0234539Y0116667D02*
X0233028Y0116667D01*
X0233028Y0116275D02*
X0234539Y0116275D01*
X0234539Y0115883D02*
X0233028Y0115883D01*
X0233028Y0115098D02*
X0234539Y0115098D01*
X0234539Y0114706D02*
X0233028Y0114706D01*
X0233028Y0114314D02*
X0234539Y0114314D01*
X0234566Y0113922D02*
X0233001Y0113922D01*
X0232609Y0113530D02*
X0234958Y0113530D01*
X0235350Y0113137D02*
X0232217Y0113137D01*
X0231825Y0112745D02*
X0235742Y0112745D01*
X0236134Y0112353D02*
X0231433Y0112353D01*
X0231040Y0111961D02*
X0236527Y0111961D01*
X0236919Y0111568D02*
X0230648Y0111568D01*
X0229059Y0111568D02*
X0228665Y0111568D01*
X0227076Y0111568D02*
X0224477Y0111568D01*
X0224335Y0111961D02*
X0226684Y0111961D01*
X0226292Y0112353D02*
X0224335Y0112353D01*
X0224335Y0112745D02*
X0225900Y0112745D01*
X0225507Y0113137D02*
X0224335Y0113137D01*
X0224335Y0113530D02*
X0225115Y0113530D01*
X0224723Y0113922D02*
X0224335Y0113922D01*
X0224335Y0114314D02*
X0224697Y0114314D01*
X0224697Y0114706D02*
X0224335Y0114706D01*
X0224335Y0115098D02*
X0224697Y0115098D01*
X0224335Y0115491D02*
X0228665Y0115491D01*
X0228665Y0115870D02*
X0224697Y0115870D01*
X0224697Y0117399D01*
X0227137Y0119839D01*
X0228665Y0119839D01*
X0228665Y0115870D01*
X0228665Y0115883D02*
X0229059Y0115883D01*
X0229059Y0116275D02*
X0228665Y0116275D01*
X0228665Y0116667D02*
X0229059Y0116667D01*
X0229059Y0117059D02*
X0228665Y0117059D01*
X0228665Y0117452D02*
X0229059Y0117452D01*
X0229059Y0117844D02*
X0228665Y0117844D01*
X0228665Y0118236D02*
X0229059Y0118236D01*
X0229059Y0118628D02*
X0228665Y0118628D01*
X0228665Y0119020D02*
X0229059Y0119020D01*
X0229059Y0119413D02*
X0228665Y0119413D01*
X0228665Y0119805D02*
X0229059Y0119805D01*
X0229059Y0121374D02*
X0228665Y0121374D01*
X0228665Y0121766D02*
X0229059Y0121766D01*
X0229059Y0122158D02*
X0228665Y0122158D01*
X0228665Y0122550D02*
X0229059Y0122550D01*
X0229059Y0122943D02*
X0228665Y0122943D01*
X0228665Y0123335D02*
X0229059Y0123335D01*
X0229059Y0123727D02*
X0228665Y0123727D01*
X0228665Y0124119D02*
X0229059Y0124119D01*
X0229059Y0124511D02*
X0228665Y0124511D01*
X0228665Y0124904D02*
X0229059Y0124904D01*
X0229059Y0125296D02*
X0228665Y0125296D01*
X0228665Y0126473D02*
X0229059Y0126473D01*
X0229059Y0126865D02*
X0228665Y0126865D01*
X0228665Y0127257D02*
X0229059Y0127257D01*
X0229059Y0127649D02*
X0228665Y0127649D01*
X0228665Y0128041D02*
X0229059Y0128041D01*
X0229059Y0128434D02*
X0228665Y0128434D01*
X0228665Y0128826D02*
X0229059Y0128826D01*
X0229059Y0129218D02*
X0228665Y0129218D01*
X0228665Y0129610D02*
X0229059Y0129610D01*
X0230658Y0129610D02*
X0236909Y0129610D01*
X0224697Y0125296D02*
X0224335Y0125296D01*
X0224335Y0124904D02*
X0224697Y0124904D01*
X0224697Y0124511D02*
X0224335Y0124511D01*
X0224335Y0124119D02*
X0224697Y0124119D01*
X0224760Y0123727D02*
X0224335Y0123727D01*
X0224335Y0123335D02*
X0225152Y0123335D01*
X0225545Y0122943D02*
X0224335Y0122943D01*
X0224335Y0122550D02*
X0225937Y0122550D01*
X0226329Y0122158D02*
X0224335Y0122158D01*
X0224335Y0121766D02*
X0226721Y0121766D01*
X0227113Y0121374D02*
X0224335Y0121374D01*
X0224335Y0120982D02*
X0261343Y0120982D01*
X0261343Y0120589D02*
X0224335Y0120589D01*
X0224335Y0120197D02*
X0261343Y0120197D01*
X0261343Y0119805D02*
X0240464Y0119805D01*
X0240856Y0119413D02*
X0261343Y0119413D01*
X0261343Y0119020D02*
X0241248Y0119020D01*
X0241640Y0118628D02*
X0261343Y0118628D01*
X0261343Y0118236D02*
X0242033Y0118236D01*
X0242425Y0117844D02*
X0261343Y0117844D01*
X0261343Y0117452D02*
X0242817Y0117452D01*
X0242870Y0117059D02*
X0261343Y0117059D01*
X0261343Y0116667D02*
X0242870Y0116667D01*
X0242870Y0116275D02*
X0261343Y0116275D01*
X0261343Y0115883D02*
X0242870Y0115883D01*
X0242870Y0115098D02*
X0261343Y0115098D01*
X0261343Y0114706D02*
X0242870Y0114706D01*
X0242870Y0114314D02*
X0261343Y0114314D01*
X0261343Y0113922D02*
X0242844Y0113922D01*
X0242452Y0113530D02*
X0261343Y0113530D01*
X0261343Y0113137D02*
X0242059Y0113137D01*
X0241667Y0112745D02*
X0261343Y0112745D01*
X0261343Y0112353D02*
X0241275Y0112353D01*
X0240883Y0111961D02*
X0261343Y0111961D01*
X0261343Y0111568D02*
X0240491Y0111568D01*
X0238902Y0111568D02*
X0238508Y0111568D01*
X0238508Y0115491D02*
X0229059Y0115491D01*
X0224697Y0115883D02*
X0224335Y0115883D01*
X0224335Y0116275D02*
X0224697Y0116275D01*
X0224697Y0116667D02*
X0224335Y0116667D01*
X0224335Y0117059D02*
X0224697Y0117059D01*
X0224750Y0117452D02*
X0224335Y0117452D01*
X0224335Y0117844D02*
X0225142Y0117844D01*
X0225534Y0118236D02*
X0224335Y0118236D01*
X0224335Y0118628D02*
X0225927Y0118628D01*
X0226319Y0119020D02*
X0224335Y0119020D01*
X0224335Y0119413D02*
X0226711Y0119413D01*
X0227103Y0119805D02*
X0224335Y0119805D01*
X0238508Y0119805D02*
X0238902Y0119805D01*
X0238902Y0119413D02*
X0238508Y0119413D01*
X0238508Y0119020D02*
X0238902Y0119020D01*
X0238902Y0118628D02*
X0238508Y0118628D01*
X0238508Y0118236D02*
X0238902Y0118236D01*
X0238902Y0117844D02*
X0238508Y0117844D01*
X0238508Y0117452D02*
X0238902Y0117452D01*
X0238902Y0117059D02*
X0238508Y0117059D01*
X0238508Y0116667D02*
X0238902Y0116667D01*
X0238902Y0116275D02*
X0238508Y0116275D01*
X0238508Y0115883D02*
X0238902Y0115883D01*
X0238902Y0115491D02*
X0261343Y0115491D01*
X0261343Y0111176D02*
X0224810Y0111176D01*
X0225143Y0110784D02*
X0261343Y0110784D01*
X0261343Y0110392D02*
X0225476Y0110392D01*
X0225809Y0110000D02*
X0261343Y0110000D01*
X0261343Y0109607D02*
X0226142Y0109607D01*
X0226475Y0109215D02*
X0261343Y0109215D01*
X0261343Y0108823D02*
X0226808Y0108823D01*
X0227141Y0108431D02*
X0261343Y0108431D01*
X0261343Y0108039D02*
X0227474Y0108039D01*
X0227807Y0107646D02*
X0261343Y0107646D01*
X0261343Y0107254D02*
X0228140Y0107254D01*
X0228473Y0106862D02*
X0261343Y0106862D01*
X0261343Y0106470D02*
X0228806Y0106470D01*
X0229139Y0106077D02*
X0261343Y0106077D01*
X0261343Y0105685D02*
X0229472Y0105685D01*
X0229805Y0105293D02*
X0261343Y0105293D01*
X0261343Y0104901D02*
X0230138Y0104901D01*
X0230471Y0104509D02*
X0261343Y0104509D01*
X0261343Y0104116D02*
X0230804Y0104116D01*
X0231137Y0103724D02*
X0261343Y0103724D01*
X0261343Y0103332D02*
X0231470Y0103332D01*
X0231803Y0102940D02*
X0261343Y0102940D01*
X0261343Y0102548D02*
X0232136Y0102548D01*
X0232469Y0102155D02*
X0261343Y0102155D01*
X0261343Y0101763D02*
X0232802Y0101763D01*
X0233135Y0101371D02*
X0261343Y0101371D01*
X0261343Y0100979D02*
X0233468Y0100979D01*
X0233801Y0100587D02*
X0261343Y0100587D01*
X0261343Y0100194D02*
X0234134Y0100194D01*
X0234467Y0099802D02*
X0261343Y0099802D01*
X0261343Y0099410D02*
X0234800Y0099410D01*
X0235133Y0099018D02*
X0261343Y0099018D01*
X0261343Y0098625D02*
X0235466Y0098625D01*
X0235799Y0098233D02*
X0261343Y0098233D01*
X0261343Y0097841D02*
X0236132Y0097841D01*
X0236465Y0097449D02*
X0261343Y0097449D01*
X0261343Y0097057D02*
X0236798Y0097057D01*
X0237131Y0096664D02*
X0261343Y0096664D01*
X0261343Y0096272D02*
X0237464Y0096272D01*
X0237797Y0095880D02*
X0261343Y0095880D01*
X0261343Y0095488D02*
X0238130Y0095488D01*
X0238464Y0095096D02*
X0261343Y0095096D01*
X0261343Y0094703D02*
X0238797Y0094703D01*
X0239130Y0094311D02*
X0261343Y0094311D01*
X0261343Y0093919D02*
X0239463Y0093919D01*
X0239796Y0093527D02*
X0261343Y0093527D01*
X0261343Y0093134D02*
X0240129Y0093134D01*
X0240462Y0092742D02*
X0261343Y0092742D01*
X0261343Y0092350D02*
X0240795Y0092350D01*
X0241128Y0091958D02*
X0261343Y0091958D01*
X0261343Y0091566D02*
X0241461Y0091566D01*
X0241794Y0091173D02*
X0261343Y0091173D01*
X0261343Y0090781D02*
X0242127Y0090781D01*
X0242460Y0090389D02*
X0261343Y0090389D01*
X0261343Y0089997D02*
X0242793Y0089997D01*
X0243126Y0089605D02*
X0261343Y0089605D01*
X0261343Y0089212D02*
X0243459Y0089212D01*
X0243792Y0088820D02*
X0261343Y0088820D01*
X0261343Y0088428D02*
X0244125Y0088428D01*
X0244458Y0088036D02*
X0261343Y0088036D01*
X0261343Y0087644D02*
X0244791Y0087644D01*
X0245124Y0087251D02*
X0261343Y0087251D01*
X0261343Y0086859D02*
X0245457Y0086859D01*
X0245790Y0086467D02*
X0261343Y0086467D01*
X0261343Y0086075D02*
X0246123Y0086075D01*
X0246456Y0085682D02*
X0261343Y0085682D01*
X0261343Y0085290D02*
X0246789Y0085290D01*
X0247122Y0084898D02*
X0261343Y0084898D01*
X0261343Y0084506D02*
X0247455Y0084506D01*
X0247788Y0084114D02*
X0261343Y0084114D01*
X0261343Y0083721D02*
X0248121Y0083721D01*
X0248454Y0083329D02*
X0261343Y0083329D01*
X0261343Y0082937D02*
X0248787Y0082937D01*
X0249120Y0082545D02*
X0261343Y0082545D01*
X0261343Y0082153D02*
X0249453Y0082153D01*
X0249786Y0081760D02*
X0261343Y0081760D01*
X0261343Y0081368D02*
X0250119Y0081368D01*
X0250452Y0080976D02*
X0261343Y0080976D01*
X0261343Y0080584D02*
X0250785Y0080584D01*
X0251118Y0080191D02*
X0261343Y0080191D01*
X0261343Y0079799D02*
X0251451Y0079799D01*
X0251784Y0079407D02*
X0261343Y0079407D01*
X0261343Y0079015D02*
X0252117Y0079015D01*
X0252450Y0078623D02*
X0261343Y0078623D01*
X0261343Y0078230D02*
X0252783Y0078230D01*
X0253116Y0077838D02*
X0261343Y0077838D01*
X0261343Y0077446D02*
X0253449Y0077446D01*
X0253782Y0077054D02*
X0280240Y0077054D01*
X0280240Y0076662D02*
X0254115Y0076662D01*
X0254448Y0076269D02*
X0280240Y0076269D01*
X0280240Y0075877D02*
X0254781Y0075877D01*
X0255114Y0075485D02*
X0280240Y0075485D01*
X0280240Y0075093D02*
X0255447Y0075093D01*
X0255780Y0074701D02*
X0280240Y0074701D01*
X0280240Y0074308D02*
X0256113Y0074308D01*
X0256446Y0073916D02*
X0280240Y0073916D01*
X0280240Y0073524D02*
X0256779Y0073524D01*
X0257112Y0073132D02*
X0280240Y0073132D01*
X0280240Y0072739D02*
X0257445Y0072739D01*
X0257778Y0072347D02*
X0280240Y0072347D01*
X0280240Y0071955D02*
X0258111Y0071955D01*
X0258444Y0071563D02*
X0280240Y0071563D01*
X0280240Y0071171D02*
X0258777Y0071171D01*
X0259110Y0070778D02*
X0280240Y0070778D01*
X0280240Y0070386D02*
X0259443Y0070386D01*
X0259768Y0070004D02*
X0280240Y0070004D01*
X0280240Y0008587D01*
X0259768Y0008587D01*
X0259768Y0070004D01*
X0259768Y0069994D02*
X0280240Y0069994D01*
X0280240Y0069602D02*
X0276690Y0069602D01*
X0276572Y0069720D02*
X0275043Y0069720D01*
X0275043Y0065752D01*
X0274650Y0065752D01*
X0274650Y0069720D01*
X0273121Y0069720D01*
X0270681Y0067280D01*
X0270681Y0065752D01*
X0274650Y0065752D01*
X0274650Y0065358D01*
X0275043Y0065358D01*
X0275043Y0061390D01*
X0276572Y0061390D01*
X0279012Y0063830D01*
X0279012Y0065358D01*
X0275043Y0065358D01*
X0275043Y0065752D01*
X0279012Y0065752D01*
X0279012Y0067280D01*
X0276572Y0069720D01*
X0277083Y0069210D02*
X0280240Y0069210D01*
X0280240Y0068817D02*
X0277475Y0068817D01*
X0277867Y0068425D02*
X0280240Y0068425D01*
X0280240Y0068033D02*
X0278259Y0068033D01*
X0278652Y0067641D02*
X0280240Y0067641D01*
X0280240Y0067248D02*
X0279012Y0067248D01*
X0279012Y0066856D02*
X0280240Y0066856D01*
X0280240Y0066464D02*
X0279012Y0066464D01*
X0279012Y0066072D02*
X0280240Y0066072D01*
X0280240Y0065680D02*
X0275043Y0065680D01*
X0275043Y0066072D02*
X0274650Y0066072D01*
X0274650Y0066464D02*
X0275043Y0066464D01*
X0275043Y0066856D02*
X0274650Y0066856D01*
X0274650Y0067248D02*
X0275043Y0067248D01*
X0275043Y0067641D02*
X0274650Y0067641D01*
X0274650Y0068033D02*
X0275043Y0068033D01*
X0275043Y0068425D02*
X0274650Y0068425D01*
X0274650Y0068817D02*
X0275043Y0068817D01*
X0275043Y0069210D02*
X0274650Y0069210D01*
X0274650Y0069602D02*
X0275043Y0069602D01*
X0273002Y0069602D02*
X0266690Y0069602D01*
X0266572Y0069720D02*
X0269012Y0067280D01*
X0269012Y0065752D01*
X0265043Y0065752D01*
X0264650Y0065752D01*
X0264650Y0069720D01*
X0263121Y0069720D01*
X0260681Y0067280D01*
X0260681Y0065752D01*
X0264650Y0065752D01*
X0264650Y0065358D01*
X0265043Y0065358D01*
X0265043Y0061390D01*
X0266572Y0061390D01*
X0269012Y0063830D01*
X0269012Y0065358D01*
X0265043Y0065358D01*
X0265043Y0065752D01*
X0265043Y0069720D01*
X0266572Y0069720D01*
X0267083Y0069210D02*
X0272610Y0069210D01*
X0272218Y0068817D02*
X0267475Y0068817D01*
X0267867Y0068425D02*
X0271826Y0068425D01*
X0271434Y0068033D02*
X0268259Y0068033D01*
X0268652Y0067641D02*
X0271041Y0067641D01*
X0270681Y0067248D02*
X0269012Y0067248D01*
X0269012Y0066856D02*
X0270681Y0066856D01*
X0270681Y0066464D02*
X0269012Y0066464D01*
X0269012Y0066072D02*
X0270681Y0066072D01*
X0270681Y0065358D02*
X0270681Y0063830D01*
X0273121Y0061390D01*
X0274650Y0061390D01*
X0274650Y0065358D01*
X0270681Y0065358D01*
X0270681Y0065287D02*
X0269012Y0065287D01*
X0269012Y0064895D02*
X0270681Y0064895D01*
X0270681Y0064503D02*
X0269012Y0064503D01*
X0269012Y0064111D02*
X0270681Y0064111D01*
X0270792Y0063719D02*
X0268901Y0063719D01*
X0268508Y0063326D02*
X0271184Y0063326D01*
X0271577Y0062934D02*
X0268116Y0062934D01*
X0267724Y0062542D02*
X0271969Y0062542D01*
X0272361Y0062150D02*
X0267332Y0062150D01*
X0266940Y0061758D02*
X0272753Y0061758D01*
X0274650Y0061758D02*
X0275043Y0061758D01*
X0275043Y0062150D02*
X0274650Y0062150D01*
X0274650Y0062542D02*
X0275043Y0062542D01*
X0275043Y0062934D02*
X0274650Y0062934D01*
X0274650Y0063326D02*
X0275043Y0063326D01*
X0275043Y0063719D02*
X0274650Y0063719D01*
X0274650Y0064111D02*
X0275043Y0064111D01*
X0275043Y0064503D02*
X0274650Y0064503D01*
X0274650Y0064895D02*
X0275043Y0064895D01*
X0275043Y0065287D02*
X0274650Y0065287D01*
X0274650Y0065680D02*
X0265043Y0065680D01*
X0265043Y0066072D02*
X0264650Y0066072D01*
X0264650Y0066464D02*
X0265043Y0066464D01*
X0265043Y0066856D02*
X0264650Y0066856D01*
X0264650Y0067248D02*
X0265043Y0067248D01*
X0265043Y0067641D02*
X0264650Y0067641D01*
X0264650Y0068033D02*
X0265043Y0068033D01*
X0265043Y0068425D02*
X0264650Y0068425D01*
X0264650Y0068817D02*
X0265043Y0068817D01*
X0265043Y0069210D02*
X0264650Y0069210D01*
X0264650Y0069602D02*
X0265043Y0069602D01*
X0263002Y0069602D02*
X0259768Y0069602D01*
X0259768Y0069210D02*
X0262610Y0069210D01*
X0262218Y0068817D02*
X0259768Y0068817D01*
X0259768Y0068425D02*
X0261826Y0068425D01*
X0261434Y0068033D02*
X0259768Y0068033D01*
X0259768Y0067641D02*
X0261041Y0067641D01*
X0260681Y0067248D02*
X0259768Y0067248D01*
X0259768Y0066856D02*
X0260681Y0066856D01*
X0260681Y0066464D02*
X0259768Y0066464D01*
X0259768Y0066072D02*
X0260681Y0066072D01*
X0260681Y0065358D02*
X0260681Y0063830D01*
X0263121Y0061390D01*
X0264650Y0061390D01*
X0264650Y0065358D01*
X0260681Y0065358D01*
X0260681Y0065287D02*
X0259768Y0065287D01*
X0259768Y0064895D02*
X0260681Y0064895D01*
X0260681Y0064503D02*
X0259768Y0064503D01*
X0259768Y0064111D02*
X0260681Y0064111D01*
X0260792Y0063719D02*
X0259768Y0063719D01*
X0259768Y0063326D02*
X0261184Y0063326D01*
X0261577Y0062934D02*
X0259768Y0062934D01*
X0259768Y0062542D02*
X0261969Y0062542D01*
X0262361Y0062150D02*
X0259768Y0062150D01*
X0259768Y0061758D02*
X0262753Y0061758D01*
X0264650Y0061758D02*
X0265043Y0061758D01*
X0265043Y0062150D02*
X0264650Y0062150D01*
X0264650Y0062542D02*
X0265043Y0062542D01*
X0265043Y0062934D02*
X0264650Y0062934D01*
X0264650Y0063326D02*
X0265043Y0063326D01*
X0265043Y0063719D02*
X0264650Y0063719D01*
X0264650Y0064111D02*
X0265043Y0064111D01*
X0265043Y0064503D02*
X0264650Y0064503D01*
X0264650Y0064895D02*
X0265043Y0064895D01*
X0265043Y0065287D02*
X0264650Y0065287D01*
X0264650Y0065680D02*
X0259768Y0065680D01*
X0259768Y0061365D02*
X0280240Y0061365D01*
X0280240Y0060973D02*
X0259768Y0060973D01*
X0259768Y0060581D02*
X0280240Y0060581D01*
X0280240Y0060189D02*
X0259768Y0060189D01*
X0259768Y0059796D02*
X0280240Y0059796D01*
X0280240Y0059404D02*
X0276888Y0059404D01*
X0276572Y0059720D02*
X0275043Y0059720D01*
X0275043Y0055752D01*
X0274650Y0055752D01*
X0274650Y0059720D01*
X0273121Y0059720D01*
X0270681Y0057280D01*
X0270681Y0055752D01*
X0274650Y0055752D01*
X0274650Y0055358D01*
X0275043Y0055358D01*
X0275043Y0051390D01*
X0276572Y0051390D01*
X0279012Y0053830D01*
X0279012Y0055358D01*
X0275043Y0055358D01*
X0275043Y0055752D01*
X0279012Y0055752D01*
X0279012Y0057280D01*
X0276572Y0059720D01*
X0277280Y0059012D02*
X0280240Y0059012D01*
X0280240Y0058620D02*
X0277672Y0058620D01*
X0278065Y0058228D02*
X0280240Y0058228D01*
X0280240Y0057835D02*
X0278457Y0057835D01*
X0278849Y0057443D02*
X0280240Y0057443D01*
X0280240Y0057051D02*
X0279012Y0057051D01*
X0279012Y0056659D02*
X0280240Y0056659D01*
X0280240Y0056267D02*
X0279012Y0056267D01*
X0279012Y0055874D02*
X0280240Y0055874D01*
X0280240Y0055482D02*
X0275043Y0055482D01*
X0275043Y0055090D02*
X0274650Y0055090D01*
X0274650Y0055358D02*
X0274650Y0051390D01*
X0273121Y0051390D01*
X0270681Y0053830D01*
X0270681Y0055358D01*
X0274650Y0055358D01*
X0274650Y0055482D02*
X0265043Y0055482D01*
X0265043Y0055358D02*
X0265043Y0055752D01*
X0264650Y0055752D01*
X0264650Y0059720D01*
X0263121Y0059720D01*
X0260681Y0057280D01*
X0260681Y0055752D01*
X0264650Y0055752D01*
X0264650Y0055358D01*
X0265043Y0055358D01*
X0265043Y0051390D01*
X0266572Y0051390D01*
X0269012Y0053830D01*
X0269012Y0055358D01*
X0265043Y0055358D01*
X0265043Y0055090D02*
X0264650Y0055090D01*
X0264650Y0055358D02*
X0264650Y0051390D01*
X0263121Y0051390D01*
X0260681Y0053830D01*
X0260681Y0055358D01*
X0264650Y0055358D01*
X0264650Y0055482D02*
X0259768Y0055482D01*
X0259768Y0055090D02*
X0260681Y0055090D01*
X0260681Y0054698D02*
X0259768Y0054698D01*
X0259768Y0054305D02*
X0260681Y0054305D01*
X0260681Y0053913D02*
X0259768Y0053913D01*
X0259768Y0053521D02*
X0260990Y0053521D01*
X0261382Y0053129D02*
X0259768Y0053129D01*
X0259768Y0052737D02*
X0261774Y0052737D01*
X0262166Y0052344D02*
X0259768Y0052344D01*
X0259768Y0051952D02*
X0262559Y0051952D01*
X0262951Y0051560D02*
X0259768Y0051560D01*
X0259768Y0051168D02*
X0280240Y0051168D01*
X0280240Y0051560D02*
X0276742Y0051560D01*
X0277134Y0051952D02*
X0280240Y0051952D01*
X0280240Y0052344D02*
X0277526Y0052344D01*
X0277919Y0052737D02*
X0280240Y0052737D01*
X0280240Y0053129D02*
X0278311Y0053129D01*
X0278703Y0053521D02*
X0280240Y0053521D01*
X0280240Y0053913D02*
X0279012Y0053913D01*
X0279012Y0054305D02*
X0280240Y0054305D01*
X0280240Y0054698D02*
X0279012Y0054698D01*
X0279012Y0055090D02*
X0280240Y0055090D01*
X0275043Y0054698D02*
X0274650Y0054698D01*
X0274650Y0054305D02*
X0275043Y0054305D01*
X0275043Y0053913D02*
X0274650Y0053913D01*
X0274650Y0053521D02*
X0275043Y0053521D01*
X0275043Y0053129D02*
X0274650Y0053129D01*
X0274650Y0052737D02*
X0275043Y0052737D01*
X0275043Y0052344D02*
X0274650Y0052344D01*
X0274650Y0051952D02*
X0275043Y0051952D01*
X0275043Y0051560D02*
X0274650Y0051560D01*
X0272951Y0051560D02*
X0266742Y0051560D01*
X0267134Y0051952D02*
X0272559Y0051952D01*
X0272166Y0052344D02*
X0267526Y0052344D01*
X0267919Y0052737D02*
X0271774Y0052737D01*
X0271382Y0053129D02*
X0268311Y0053129D01*
X0268703Y0053521D02*
X0270990Y0053521D01*
X0270681Y0053913D02*
X0269012Y0053913D01*
X0269012Y0054305D02*
X0270681Y0054305D01*
X0270681Y0054698D02*
X0269012Y0054698D01*
X0269012Y0055090D02*
X0270681Y0055090D01*
X0270681Y0055874D02*
X0269012Y0055874D01*
X0269012Y0055752D02*
X0269012Y0057280D01*
X0266572Y0059720D01*
X0265043Y0059720D01*
X0265043Y0055752D01*
X0269012Y0055752D01*
X0269012Y0056267D02*
X0270681Y0056267D01*
X0270681Y0056659D02*
X0269012Y0056659D01*
X0269012Y0057051D02*
X0270681Y0057051D01*
X0270844Y0057443D02*
X0268849Y0057443D01*
X0268457Y0057835D02*
X0271236Y0057835D01*
X0271628Y0058228D02*
X0268065Y0058228D01*
X0267672Y0058620D02*
X0272020Y0058620D01*
X0272413Y0059012D02*
X0267280Y0059012D01*
X0266888Y0059404D02*
X0272805Y0059404D01*
X0274650Y0059404D02*
X0275043Y0059404D01*
X0275043Y0059012D02*
X0274650Y0059012D01*
X0274650Y0058620D02*
X0275043Y0058620D01*
X0275043Y0058228D02*
X0274650Y0058228D01*
X0274650Y0057835D02*
X0275043Y0057835D01*
X0275043Y0057443D02*
X0274650Y0057443D01*
X0274650Y0057051D02*
X0275043Y0057051D01*
X0275043Y0056659D02*
X0274650Y0056659D01*
X0274650Y0056267D02*
X0275043Y0056267D01*
X0275043Y0055874D02*
X0274650Y0055874D01*
X0276940Y0061758D02*
X0280240Y0061758D01*
X0280240Y0062150D02*
X0277332Y0062150D01*
X0277724Y0062542D02*
X0280240Y0062542D01*
X0280240Y0062934D02*
X0278116Y0062934D01*
X0278508Y0063326D02*
X0280240Y0063326D01*
X0280240Y0063719D02*
X0278901Y0063719D01*
X0279012Y0064111D02*
X0280240Y0064111D01*
X0280240Y0064503D02*
X0279012Y0064503D01*
X0279012Y0064895D02*
X0280240Y0064895D01*
X0280240Y0065287D02*
X0279012Y0065287D01*
X0289689Y0065287D02*
X0290681Y0065287D01*
X0290681Y0065358D02*
X0290681Y0063830D01*
X0293121Y0061390D01*
X0294650Y0061390D01*
X0294650Y0065358D01*
X0295043Y0065358D01*
X0295043Y0061390D01*
X0295988Y0061390D01*
X0295988Y0059720D01*
X0295043Y0059720D01*
X0295043Y0055752D01*
X0294650Y0055752D01*
X0294650Y0059720D01*
X0293121Y0059720D01*
X0290681Y0057280D01*
X0290681Y0055752D01*
X0294650Y0055752D01*
X0294650Y0055358D01*
X0295043Y0055358D01*
X0295043Y0051390D01*
X0296572Y0051390D01*
X0299012Y0053830D01*
X0299012Y0055358D01*
X0295043Y0055358D01*
X0295043Y0055752D01*
X0299012Y0055752D01*
X0299012Y0057280D01*
X0297312Y0058980D01*
X0299925Y0058980D01*
X0299925Y0008587D01*
X0289689Y0008587D01*
X0289689Y0080240D01*
X0295988Y0080240D01*
X0295988Y0069720D01*
X0295043Y0069720D01*
X0295043Y0065752D01*
X0294650Y0065752D01*
X0294650Y0069720D01*
X0293121Y0069720D01*
X0290681Y0067280D01*
X0290681Y0065752D01*
X0294650Y0065752D01*
X0294650Y0065358D01*
X0290681Y0065358D01*
X0290681Y0064895D02*
X0289689Y0064895D01*
X0289689Y0064503D02*
X0290681Y0064503D01*
X0290681Y0064111D02*
X0289689Y0064111D01*
X0289689Y0063719D02*
X0290792Y0063719D01*
X0291184Y0063326D02*
X0289689Y0063326D01*
X0289689Y0062934D02*
X0291577Y0062934D01*
X0291969Y0062542D02*
X0289689Y0062542D01*
X0289689Y0062150D02*
X0292361Y0062150D01*
X0292753Y0061758D02*
X0289689Y0061758D01*
X0289689Y0061365D02*
X0295988Y0061365D01*
X0295988Y0060973D02*
X0289689Y0060973D01*
X0289689Y0060581D02*
X0295988Y0060581D01*
X0295988Y0060189D02*
X0289689Y0060189D01*
X0289689Y0059796D02*
X0295988Y0059796D01*
X0295043Y0059404D02*
X0294650Y0059404D01*
X0294650Y0059012D02*
X0295043Y0059012D01*
X0295043Y0058620D02*
X0294650Y0058620D01*
X0294650Y0058228D02*
X0295043Y0058228D01*
X0295043Y0057835D02*
X0294650Y0057835D01*
X0294650Y0057443D02*
X0295043Y0057443D01*
X0295043Y0057051D02*
X0294650Y0057051D01*
X0294650Y0056659D02*
X0295043Y0056659D01*
X0295043Y0056267D02*
X0294650Y0056267D01*
X0294650Y0055874D02*
X0295043Y0055874D01*
X0295043Y0055482D02*
X0299925Y0055482D01*
X0299925Y0055090D02*
X0299012Y0055090D01*
X0299012Y0054698D02*
X0299925Y0054698D01*
X0299925Y0054305D02*
X0299012Y0054305D01*
X0299012Y0053913D02*
X0299925Y0053913D01*
X0299925Y0053521D02*
X0298703Y0053521D01*
X0298311Y0053129D02*
X0299925Y0053129D01*
X0299925Y0052737D02*
X0297919Y0052737D01*
X0297526Y0052344D02*
X0299925Y0052344D01*
X0299925Y0051952D02*
X0297134Y0051952D01*
X0296742Y0051560D02*
X0299925Y0051560D01*
X0299925Y0051168D02*
X0289689Y0051168D01*
X0289689Y0051560D02*
X0292951Y0051560D01*
X0293121Y0051390D02*
X0294650Y0051390D01*
X0294650Y0055358D01*
X0290681Y0055358D01*
X0290681Y0053830D01*
X0293121Y0051390D01*
X0292559Y0051952D02*
X0289689Y0051952D01*
X0289689Y0052344D02*
X0292166Y0052344D01*
X0291774Y0052737D02*
X0289689Y0052737D01*
X0289689Y0053129D02*
X0291382Y0053129D01*
X0290990Y0053521D02*
X0289689Y0053521D01*
X0289689Y0053913D02*
X0290681Y0053913D01*
X0290681Y0054305D02*
X0289689Y0054305D01*
X0289689Y0054698D02*
X0290681Y0054698D01*
X0290681Y0055090D02*
X0289689Y0055090D01*
X0289689Y0055482D02*
X0294650Y0055482D01*
X0294650Y0055090D02*
X0295043Y0055090D01*
X0295043Y0054698D02*
X0294650Y0054698D01*
X0294650Y0054305D02*
X0295043Y0054305D01*
X0295043Y0053913D02*
X0294650Y0053913D01*
X0294650Y0053521D02*
X0295043Y0053521D01*
X0295043Y0053129D02*
X0294650Y0053129D01*
X0294650Y0052737D02*
X0295043Y0052737D01*
X0295043Y0052344D02*
X0294650Y0052344D01*
X0294650Y0051952D02*
X0295043Y0051952D01*
X0295043Y0051560D02*
X0294650Y0051560D01*
X0289689Y0050776D02*
X0299925Y0050776D01*
X0299925Y0050383D02*
X0289689Y0050383D01*
X0289689Y0049991D02*
X0299925Y0049991D01*
X0299925Y0049599D02*
X0289689Y0049599D01*
X0289689Y0049207D02*
X0299925Y0049207D01*
X0299925Y0048815D02*
X0289689Y0048815D01*
X0289689Y0048422D02*
X0299925Y0048422D01*
X0299925Y0048030D02*
X0289689Y0048030D01*
X0289689Y0047638D02*
X0299925Y0047638D01*
X0299925Y0047246D02*
X0289689Y0047246D01*
X0289689Y0046853D02*
X0299925Y0046853D01*
X0299925Y0046461D02*
X0289689Y0046461D01*
X0289689Y0046069D02*
X0299925Y0046069D01*
X0299925Y0045677D02*
X0289689Y0045677D01*
X0289689Y0045285D02*
X0299925Y0045285D01*
X0299925Y0044892D02*
X0289689Y0044892D01*
X0289689Y0044500D02*
X0299925Y0044500D01*
X0299925Y0044108D02*
X0289689Y0044108D01*
X0289689Y0043716D02*
X0299925Y0043716D01*
X0299925Y0043324D02*
X0289689Y0043324D01*
X0289689Y0042931D02*
X0299925Y0042931D01*
X0299925Y0042539D02*
X0289689Y0042539D01*
X0289689Y0042147D02*
X0299925Y0042147D01*
X0299925Y0041755D02*
X0289689Y0041755D01*
X0289689Y0041363D02*
X0299925Y0041363D01*
X0299925Y0040970D02*
X0289689Y0040970D01*
X0289689Y0040578D02*
X0299925Y0040578D01*
X0299925Y0040186D02*
X0289689Y0040186D01*
X0289689Y0039794D02*
X0299925Y0039794D01*
X0299925Y0039401D02*
X0289689Y0039401D01*
X0289689Y0039009D02*
X0299925Y0039009D01*
X0299925Y0038617D02*
X0289689Y0038617D01*
X0289689Y0038225D02*
X0299925Y0038225D01*
X0299925Y0037833D02*
X0289689Y0037833D01*
X0289689Y0037440D02*
X0299925Y0037440D01*
X0299925Y0037048D02*
X0289689Y0037048D01*
X0289689Y0036656D02*
X0299925Y0036656D01*
X0299925Y0036264D02*
X0289689Y0036264D01*
X0289689Y0035872D02*
X0299925Y0035872D01*
X0299925Y0035479D02*
X0289689Y0035479D01*
X0289689Y0035087D02*
X0299925Y0035087D01*
X0299925Y0034695D02*
X0289689Y0034695D01*
X0289689Y0034303D02*
X0299925Y0034303D01*
X0299925Y0033910D02*
X0289689Y0033910D01*
X0289689Y0033518D02*
X0299925Y0033518D01*
X0299925Y0033126D02*
X0289689Y0033126D01*
X0289689Y0032734D02*
X0299925Y0032734D01*
X0299925Y0032342D02*
X0289689Y0032342D01*
X0289689Y0031949D02*
X0299925Y0031949D01*
X0299925Y0031557D02*
X0289689Y0031557D01*
X0289689Y0031165D02*
X0299925Y0031165D01*
X0299925Y0030773D02*
X0289689Y0030773D01*
X0289689Y0030381D02*
X0299925Y0030381D01*
X0299925Y0029988D02*
X0289689Y0029988D01*
X0289689Y0029596D02*
X0299925Y0029596D01*
X0299925Y0029204D02*
X0289689Y0029204D01*
X0289689Y0028812D02*
X0299925Y0028812D01*
X0299925Y0028420D02*
X0289689Y0028420D01*
X0289689Y0028027D02*
X0292767Y0028027D01*
X0293121Y0028382D02*
X0290681Y0025942D01*
X0290681Y0024413D01*
X0294650Y0024413D01*
X0294650Y0024020D01*
X0295043Y0024020D01*
X0295043Y0024413D01*
X0299012Y0024413D01*
X0299012Y0025942D01*
X0296572Y0028382D01*
X0295043Y0028382D01*
X0295043Y0024413D01*
X0294650Y0024413D01*
X0294650Y0028382D01*
X0293121Y0028382D01*
X0292374Y0027635D02*
X0289689Y0027635D01*
X0289689Y0027243D02*
X0291982Y0027243D01*
X0291590Y0026851D02*
X0289689Y0026851D01*
X0289689Y0026458D02*
X0291198Y0026458D01*
X0290805Y0026066D02*
X0289689Y0026066D01*
X0289689Y0025674D02*
X0290681Y0025674D01*
X0290681Y0025282D02*
X0289689Y0025282D01*
X0289689Y0024890D02*
X0290681Y0024890D01*
X0290681Y0024497D02*
X0289689Y0024497D01*
X0289689Y0024105D02*
X0294650Y0024105D01*
X0294650Y0024020D02*
X0290681Y0024020D01*
X0290681Y0022491D01*
X0293121Y0020051D01*
X0294650Y0020051D01*
X0294650Y0024020D01*
X0294650Y0023713D02*
X0295043Y0023713D01*
X0295043Y0024020D02*
X0295043Y0020051D01*
X0296572Y0020051D01*
X0299012Y0022491D01*
X0299012Y0024020D01*
X0295043Y0024020D01*
X0295043Y0024105D02*
X0299925Y0024105D01*
X0299925Y0023713D02*
X0299012Y0023713D01*
X0299012Y0023321D02*
X0299925Y0023321D01*
X0299925Y0022929D02*
X0299012Y0022929D01*
X0299012Y0022536D02*
X0299925Y0022536D01*
X0299925Y0022144D02*
X0298665Y0022144D01*
X0298273Y0021752D02*
X0299925Y0021752D01*
X0299925Y0021360D02*
X0297880Y0021360D01*
X0297488Y0020967D02*
X0299925Y0020967D01*
X0299925Y0020575D02*
X0297096Y0020575D01*
X0296704Y0020183D02*
X0299925Y0020183D01*
X0299925Y0019791D02*
X0289689Y0019791D01*
X0289689Y0020183D02*
X0292989Y0020183D01*
X0292597Y0020575D02*
X0289689Y0020575D01*
X0289689Y0020967D02*
X0292205Y0020967D01*
X0291813Y0021360D02*
X0289689Y0021360D01*
X0289689Y0021752D02*
X0291420Y0021752D01*
X0291028Y0022144D02*
X0289689Y0022144D01*
X0289689Y0022536D02*
X0290681Y0022536D01*
X0290681Y0022929D02*
X0289689Y0022929D01*
X0289689Y0023321D02*
X0290681Y0023321D01*
X0290681Y0023713D02*
X0289689Y0023713D01*
X0294650Y0023321D02*
X0295043Y0023321D01*
X0295043Y0022929D02*
X0294650Y0022929D01*
X0294650Y0022536D02*
X0295043Y0022536D01*
X0295043Y0022144D02*
X0294650Y0022144D01*
X0294650Y0021752D02*
X0295043Y0021752D01*
X0295043Y0021360D02*
X0294650Y0021360D01*
X0294650Y0020967D02*
X0295043Y0020967D01*
X0295043Y0020575D02*
X0294650Y0020575D01*
X0294650Y0020183D02*
X0295043Y0020183D01*
X0295043Y0018382D02*
X0296572Y0018382D01*
X0299012Y0015942D01*
X0299012Y0014413D01*
X0295043Y0014413D01*
X0295043Y0014020D01*
X0299012Y0014020D01*
X0299012Y0012491D01*
X0296572Y0010051D01*
X0295043Y0010051D01*
X0295043Y0014020D01*
X0294650Y0014020D01*
X0294650Y0010051D01*
X0293121Y0010051D01*
X0290681Y0012491D01*
X0290681Y0014020D01*
X0294650Y0014020D01*
X0294650Y0014413D01*
X0290681Y0014413D01*
X0290681Y0015942D01*
X0293121Y0018382D01*
X0294650Y0018382D01*
X0294650Y0014413D01*
X0295043Y0014413D01*
X0295043Y0018382D01*
X0295043Y0018222D02*
X0294650Y0018222D01*
X0294650Y0017830D02*
X0295043Y0017830D01*
X0295043Y0017438D02*
X0294650Y0017438D01*
X0294650Y0017045D02*
X0295043Y0017045D01*
X0295043Y0016653D02*
X0294650Y0016653D01*
X0294650Y0016261D02*
X0295043Y0016261D01*
X0295043Y0015869D02*
X0294650Y0015869D01*
X0294650Y0015477D02*
X0295043Y0015477D01*
X0295043Y0015084D02*
X0294650Y0015084D01*
X0294650Y0014692D02*
X0295043Y0014692D01*
X0295043Y0014300D02*
X0299925Y0014300D01*
X0299925Y0014692D02*
X0299012Y0014692D01*
X0299012Y0015084D02*
X0299925Y0015084D01*
X0299925Y0015477D02*
X0299012Y0015477D01*
X0299012Y0015869D02*
X0299925Y0015869D01*
X0299925Y0016261D02*
X0298693Y0016261D01*
X0298301Y0016653D02*
X0299925Y0016653D01*
X0299925Y0017045D02*
X0297908Y0017045D01*
X0297516Y0017438D02*
X0299925Y0017438D01*
X0299925Y0017830D02*
X0297124Y0017830D01*
X0296732Y0018222D02*
X0299925Y0018222D01*
X0299925Y0018614D02*
X0289689Y0018614D01*
X0289689Y0018222D02*
X0292961Y0018222D01*
X0292569Y0017830D02*
X0289689Y0017830D01*
X0289689Y0017438D02*
X0292177Y0017438D01*
X0291785Y0017045D02*
X0289689Y0017045D01*
X0289689Y0016653D02*
X0291392Y0016653D01*
X0291000Y0016261D02*
X0289689Y0016261D01*
X0289689Y0015869D02*
X0290681Y0015869D01*
X0290681Y0015477D02*
X0289689Y0015477D01*
X0289689Y0015084D02*
X0290681Y0015084D01*
X0290681Y0014692D02*
X0289689Y0014692D01*
X0289689Y0014300D02*
X0294650Y0014300D01*
X0294650Y0013908D02*
X0295043Y0013908D01*
X0295043Y0013515D02*
X0294650Y0013515D01*
X0294650Y0013123D02*
X0295043Y0013123D01*
X0295043Y0012731D02*
X0294650Y0012731D01*
X0294650Y0012339D02*
X0295043Y0012339D01*
X0295043Y0011947D02*
X0294650Y0011947D01*
X0294650Y0011554D02*
X0295043Y0011554D01*
X0295043Y0011162D02*
X0294650Y0011162D01*
X0294650Y0010770D02*
X0295043Y0010770D01*
X0295043Y0010378D02*
X0294650Y0010378D01*
X0292795Y0010378D02*
X0289689Y0010378D01*
X0289689Y0010770D02*
X0292402Y0010770D01*
X0292010Y0011162D02*
X0289689Y0011162D01*
X0289689Y0011554D02*
X0291618Y0011554D01*
X0291226Y0011947D02*
X0289689Y0011947D01*
X0289689Y0012339D02*
X0290833Y0012339D01*
X0290681Y0012731D02*
X0289689Y0012731D01*
X0289689Y0013123D02*
X0290681Y0013123D01*
X0290681Y0013515D02*
X0289689Y0013515D01*
X0289689Y0013908D02*
X0290681Y0013908D01*
X0289689Y0009986D02*
X0299925Y0009986D01*
X0299925Y0010378D02*
X0296898Y0010378D01*
X0297291Y0010770D02*
X0299925Y0010770D01*
X0299925Y0011162D02*
X0297683Y0011162D01*
X0298075Y0011554D02*
X0299925Y0011554D01*
X0299925Y0011947D02*
X0298467Y0011947D01*
X0298859Y0012339D02*
X0299925Y0012339D01*
X0299925Y0012731D02*
X0299012Y0012731D01*
X0299012Y0013123D02*
X0299925Y0013123D01*
X0299925Y0013515D02*
X0299012Y0013515D01*
X0299012Y0013908D02*
X0299925Y0013908D01*
X0299925Y0009593D02*
X0289689Y0009593D01*
X0289689Y0009201D02*
X0299925Y0009201D01*
X0299925Y0008809D02*
X0289689Y0008809D01*
X0280240Y0008809D02*
X0259768Y0008809D01*
X0259768Y0009201D02*
X0280240Y0009201D01*
X0280240Y0009593D02*
X0259768Y0009593D01*
X0259768Y0009986D02*
X0280240Y0009986D01*
X0280240Y0010378D02*
X0276898Y0010378D01*
X0276572Y0010051D02*
X0279012Y0012491D01*
X0279012Y0014020D01*
X0275043Y0014020D01*
X0275043Y0014413D01*
X0279012Y0014413D01*
X0279012Y0015942D01*
X0276572Y0018382D01*
X0275043Y0018382D01*
X0275043Y0014413D01*
X0274650Y0014413D01*
X0274650Y0014020D01*
X0275043Y0014020D01*
X0275043Y0010051D01*
X0276572Y0010051D01*
X0277291Y0010770D02*
X0280240Y0010770D01*
X0280240Y0011162D02*
X0277683Y0011162D01*
X0278075Y0011554D02*
X0280240Y0011554D01*
X0280240Y0011947D02*
X0278467Y0011947D01*
X0278859Y0012339D02*
X0280240Y0012339D01*
X0280240Y0012731D02*
X0279012Y0012731D01*
X0279012Y0013123D02*
X0280240Y0013123D01*
X0280240Y0013515D02*
X0279012Y0013515D01*
X0279012Y0013908D02*
X0280240Y0013908D01*
X0280240Y0014300D02*
X0275043Y0014300D01*
X0275043Y0014692D02*
X0274650Y0014692D01*
X0274650Y0014413D02*
X0274650Y0018382D01*
X0273121Y0018382D01*
X0270681Y0015942D01*
X0270681Y0014413D01*
X0274650Y0014413D01*
X0274650Y0014300D02*
X0265043Y0014300D01*
X0265043Y0014413D02*
X0269012Y0014413D01*
X0269012Y0015942D01*
X0266572Y0018382D01*
X0265043Y0018382D01*
X0265043Y0014413D01*
X0265043Y0014020D01*
X0269012Y0014020D01*
X0269012Y0012491D01*
X0266572Y0010051D01*
X0265043Y0010051D01*
X0265043Y0014020D01*
X0264650Y0014020D01*
X0264650Y0010051D01*
X0263121Y0010051D01*
X0260681Y0012491D01*
X0260681Y0014020D01*
X0264650Y0014020D01*
X0264650Y0014413D01*
X0260681Y0014413D01*
X0260681Y0015942D01*
X0263121Y0018382D01*
X0264650Y0018382D01*
X0264650Y0014413D01*
X0265043Y0014413D01*
X0265043Y0014692D02*
X0264650Y0014692D01*
X0264650Y0014300D02*
X0259768Y0014300D01*
X0259768Y0014692D02*
X0260681Y0014692D01*
X0260681Y0015084D02*
X0259768Y0015084D01*
X0259768Y0015477D02*
X0260681Y0015477D01*
X0260681Y0015869D02*
X0259768Y0015869D01*
X0259768Y0016261D02*
X0261000Y0016261D01*
X0261392Y0016653D02*
X0259768Y0016653D01*
X0259768Y0017045D02*
X0261785Y0017045D01*
X0262177Y0017438D02*
X0259768Y0017438D01*
X0259768Y0017830D02*
X0262569Y0017830D01*
X0262961Y0018222D02*
X0259768Y0018222D01*
X0259768Y0018614D02*
X0280240Y0018614D01*
X0280240Y0018222D02*
X0276732Y0018222D01*
X0277124Y0017830D02*
X0280240Y0017830D01*
X0280240Y0017438D02*
X0277516Y0017438D01*
X0277908Y0017045D02*
X0280240Y0017045D01*
X0280240Y0016653D02*
X0278301Y0016653D01*
X0278693Y0016261D02*
X0280240Y0016261D01*
X0280240Y0015869D02*
X0279012Y0015869D01*
X0279012Y0015477D02*
X0280240Y0015477D01*
X0280240Y0015084D02*
X0279012Y0015084D01*
X0279012Y0014692D02*
X0280240Y0014692D01*
X0275043Y0015084D02*
X0274650Y0015084D01*
X0274650Y0015477D02*
X0275043Y0015477D01*
X0275043Y0015869D02*
X0274650Y0015869D01*
X0274650Y0016261D02*
X0275043Y0016261D01*
X0275043Y0016653D02*
X0274650Y0016653D01*
X0274650Y0017045D02*
X0275043Y0017045D01*
X0275043Y0017438D02*
X0274650Y0017438D01*
X0274650Y0017830D02*
X0275043Y0017830D01*
X0275043Y0018222D02*
X0274650Y0018222D01*
X0272961Y0018222D02*
X0266732Y0018222D01*
X0267124Y0017830D02*
X0272569Y0017830D01*
X0272177Y0017438D02*
X0267516Y0017438D01*
X0267908Y0017045D02*
X0271785Y0017045D01*
X0271392Y0016653D02*
X0268301Y0016653D01*
X0268693Y0016261D02*
X0271000Y0016261D01*
X0270681Y0015869D02*
X0269012Y0015869D01*
X0269012Y0015477D02*
X0270681Y0015477D01*
X0270681Y0015084D02*
X0269012Y0015084D01*
X0269012Y0014692D02*
X0270681Y0014692D01*
X0270681Y0014020D02*
X0270681Y0012491D01*
X0273121Y0010051D01*
X0274650Y0010051D01*
X0274650Y0014020D01*
X0270681Y0014020D01*
X0270681Y0013908D02*
X0269012Y0013908D01*
X0269012Y0013515D02*
X0270681Y0013515D01*
X0270681Y0013123D02*
X0269012Y0013123D01*
X0269012Y0012731D02*
X0270681Y0012731D01*
X0270833Y0012339D02*
X0268859Y0012339D01*
X0268467Y0011947D02*
X0271226Y0011947D01*
X0271618Y0011554D02*
X0268075Y0011554D01*
X0267683Y0011162D02*
X0272010Y0011162D01*
X0272402Y0010770D02*
X0267291Y0010770D01*
X0266898Y0010378D02*
X0272795Y0010378D01*
X0274650Y0010378D02*
X0275043Y0010378D01*
X0275043Y0010770D02*
X0274650Y0010770D01*
X0274650Y0011162D02*
X0275043Y0011162D01*
X0275043Y0011554D02*
X0274650Y0011554D01*
X0274650Y0011947D02*
X0275043Y0011947D01*
X0275043Y0012339D02*
X0274650Y0012339D01*
X0274650Y0012731D02*
X0275043Y0012731D01*
X0275043Y0013123D02*
X0274650Y0013123D01*
X0274650Y0013515D02*
X0275043Y0013515D01*
X0275043Y0013908D02*
X0274650Y0013908D01*
X0265043Y0013908D02*
X0264650Y0013908D01*
X0264650Y0013515D02*
X0265043Y0013515D01*
X0265043Y0013123D02*
X0264650Y0013123D01*
X0264650Y0012731D02*
X0265043Y0012731D01*
X0265043Y0012339D02*
X0264650Y0012339D01*
X0264650Y0011947D02*
X0265043Y0011947D01*
X0265043Y0011554D02*
X0264650Y0011554D01*
X0264650Y0011162D02*
X0265043Y0011162D01*
X0265043Y0010770D02*
X0264650Y0010770D01*
X0264650Y0010378D02*
X0265043Y0010378D01*
X0262795Y0010378D02*
X0259768Y0010378D01*
X0259768Y0010770D02*
X0262402Y0010770D01*
X0262010Y0011162D02*
X0259768Y0011162D01*
X0259768Y0011554D02*
X0261618Y0011554D01*
X0261226Y0011947D02*
X0259768Y0011947D01*
X0259768Y0012339D02*
X0260833Y0012339D01*
X0260681Y0012731D02*
X0259768Y0012731D01*
X0259768Y0013123D02*
X0260681Y0013123D01*
X0260681Y0013515D02*
X0259768Y0013515D01*
X0259768Y0013908D02*
X0260681Y0013908D01*
X0264650Y0015084D02*
X0265043Y0015084D01*
X0265043Y0015477D02*
X0264650Y0015477D01*
X0264650Y0015869D02*
X0265043Y0015869D01*
X0265043Y0016261D02*
X0264650Y0016261D01*
X0264650Y0016653D02*
X0265043Y0016653D01*
X0265043Y0017045D02*
X0264650Y0017045D01*
X0264650Y0017438D02*
X0265043Y0017438D01*
X0265043Y0017830D02*
X0264650Y0017830D01*
X0264650Y0018222D02*
X0265043Y0018222D01*
X0265043Y0020051D02*
X0266572Y0020051D01*
X0269012Y0022491D01*
X0269012Y0024020D01*
X0265043Y0024020D01*
X0265043Y0024413D01*
X0269012Y0024413D01*
X0269012Y0025942D01*
X0266572Y0028382D01*
X0265043Y0028382D01*
X0265043Y0024413D01*
X0264650Y0024413D01*
X0264650Y0024020D01*
X0265043Y0024020D01*
X0265043Y0020051D01*
X0265043Y0020183D02*
X0264650Y0020183D01*
X0264650Y0020051D02*
X0264650Y0024020D01*
X0260681Y0024020D01*
X0260681Y0022491D01*
X0263121Y0020051D01*
X0264650Y0020051D01*
X0264650Y0020575D02*
X0265043Y0020575D01*
X0265043Y0020967D02*
X0264650Y0020967D01*
X0264650Y0021360D02*
X0265043Y0021360D01*
X0265043Y0021752D02*
X0264650Y0021752D01*
X0264650Y0022144D02*
X0265043Y0022144D01*
X0265043Y0022536D02*
X0264650Y0022536D01*
X0264650Y0022929D02*
X0265043Y0022929D01*
X0265043Y0023321D02*
X0264650Y0023321D01*
X0264650Y0023713D02*
X0265043Y0023713D01*
X0265043Y0024105D02*
X0274650Y0024105D01*
X0274650Y0024020D02*
X0270681Y0024020D01*
X0270681Y0022491D01*
X0273121Y0020051D01*
X0274650Y0020051D01*
X0274650Y0024020D01*
X0275043Y0024020D01*
X0275043Y0024413D01*
X0279012Y0024413D01*
X0279012Y0025942D01*
X0276572Y0028382D01*
X0275043Y0028382D01*
X0275043Y0024413D01*
X0274650Y0024413D01*
X0274650Y0024020D01*
X0274650Y0023713D02*
X0275043Y0023713D01*
X0275043Y0024020D02*
X0275043Y0020051D01*
X0276572Y0020051D01*
X0279012Y0022491D01*
X0279012Y0024020D01*
X0275043Y0024020D01*
X0275043Y0024105D02*
X0280240Y0024105D01*
X0280240Y0023713D02*
X0279012Y0023713D01*
X0279012Y0023321D02*
X0280240Y0023321D01*
X0280240Y0022929D02*
X0279012Y0022929D01*
X0279012Y0022536D02*
X0280240Y0022536D01*
X0280240Y0022144D02*
X0278665Y0022144D01*
X0278273Y0021752D02*
X0280240Y0021752D01*
X0280240Y0021360D02*
X0277880Y0021360D01*
X0277488Y0020967D02*
X0280240Y0020967D01*
X0280240Y0020575D02*
X0277096Y0020575D01*
X0276704Y0020183D02*
X0280240Y0020183D01*
X0280240Y0019791D02*
X0259768Y0019791D01*
X0259768Y0020183D02*
X0262989Y0020183D01*
X0262597Y0020575D02*
X0259768Y0020575D01*
X0259768Y0020967D02*
X0262205Y0020967D01*
X0261813Y0021360D02*
X0259768Y0021360D01*
X0259768Y0021752D02*
X0261420Y0021752D01*
X0261028Y0022144D02*
X0259768Y0022144D01*
X0259768Y0022536D02*
X0260681Y0022536D01*
X0260681Y0022929D02*
X0259768Y0022929D01*
X0259768Y0023321D02*
X0260681Y0023321D01*
X0260681Y0023713D02*
X0259768Y0023713D01*
X0259768Y0024105D02*
X0264650Y0024105D01*
X0264650Y0024413D02*
X0260681Y0024413D01*
X0260681Y0025942D01*
X0263121Y0028382D01*
X0264650Y0028382D01*
X0264650Y0024413D01*
X0264650Y0024497D02*
X0265043Y0024497D01*
X0265043Y0024890D02*
X0264650Y0024890D01*
X0264650Y0025282D02*
X0265043Y0025282D01*
X0265043Y0025674D02*
X0264650Y0025674D01*
X0264650Y0026066D02*
X0265043Y0026066D01*
X0265043Y0026458D02*
X0264650Y0026458D01*
X0264650Y0026851D02*
X0265043Y0026851D01*
X0265043Y0027243D02*
X0264650Y0027243D01*
X0264650Y0027635D02*
X0265043Y0027635D01*
X0265043Y0028027D02*
X0264650Y0028027D01*
X0262767Y0028027D02*
X0259768Y0028027D01*
X0259768Y0027635D02*
X0262374Y0027635D01*
X0261982Y0027243D02*
X0259768Y0027243D01*
X0259768Y0026851D02*
X0261590Y0026851D01*
X0261198Y0026458D02*
X0259768Y0026458D01*
X0259768Y0026066D02*
X0260805Y0026066D01*
X0260681Y0025674D02*
X0259768Y0025674D01*
X0259768Y0025282D02*
X0260681Y0025282D01*
X0260681Y0024890D02*
X0259768Y0024890D01*
X0259768Y0024497D02*
X0260681Y0024497D01*
X0259768Y0028420D02*
X0280240Y0028420D01*
X0280240Y0028812D02*
X0259768Y0028812D01*
X0259768Y0029204D02*
X0280240Y0029204D01*
X0280240Y0029596D02*
X0259768Y0029596D01*
X0259768Y0029988D02*
X0280240Y0029988D01*
X0280240Y0030381D02*
X0259768Y0030381D01*
X0259768Y0030773D02*
X0280240Y0030773D01*
X0280240Y0031165D02*
X0259768Y0031165D01*
X0259768Y0031557D02*
X0280240Y0031557D01*
X0280240Y0031949D02*
X0259768Y0031949D01*
X0259768Y0032342D02*
X0280240Y0032342D01*
X0280240Y0032734D02*
X0259768Y0032734D01*
X0259768Y0033126D02*
X0280240Y0033126D01*
X0280240Y0033518D02*
X0259768Y0033518D01*
X0259768Y0033910D02*
X0280240Y0033910D01*
X0280240Y0034303D02*
X0259768Y0034303D01*
X0259768Y0034695D02*
X0280240Y0034695D01*
X0280240Y0035087D02*
X0259768Y0035087D01*
X0259768Y0035479D02*
X0280240Y0035479D01*
X0280240Y0035872D02*
X0259768Y0035872D01*
X0259768Y0036264D02*
X0280240Y0036264D01*
X0280240Y0036656D02*
X0259768Y0036656D01*
X0259768Y0037048D02*
X0280240Y0037048D01*
X0280240Y0037440D02*
X0259768Y0037440D01*
X0259768Y0037833D02*
X0280240Y0037833D01*
X0280240Y0038225D02*
X0259768Y0038225D01*
X0259768Y0038617D02*
X0280240Y0038617D01*
X0280240Y0039009D02*
X0259768Y0039009D01*
X0259768Y0039401D02*
X0280240Y0039401D01*
X0280240Y0039794D02*
X0259768Y0039794D01*
X0259768Y0040186D02*
X0280240Y0040186D01*
X0280240Y0040578D02*
X0259768Y0040578D01*
X0259768Y0040970D02*
X0280240Y0040970D01*
X0280240Y0041363D02*
X0259768Y0041363D01*
X0259768Y0041755D02*
X0280240Y0041755D01*
X0280240Y0042147D02*
X0259768Y0042147D01*
X0259768Y0042539D02*
X0280240Y0042539D01*
X0280240Y0042931D02*
X0259768Y0042931D01*
X0259768Y0043324D02*
X0280240Y0043324D01*
X0280240Y0043716D02*
X0259768Y0043716D01*
X0259768Y0044108D02*
X0280240Y0044108D01*
X0280240Y0044500D02*
X0259768Y0044500D01*
X0259768Y0044892D02*
X0280240Y0044892D01*
X0280240Y0045285D02*
X0259768Y0045285D01*
X0259768Y0045677D02*
X0280240Y0045677D01*
X0280240Y0046069D02*
X0259768Y0046069D01*
X0259768Y0046461D02*
X0280240Y0046461D01*
X0280240Y0046853D02*
X0259768Y0046853D01*
X0259768Y0047246D02*
X0280240Y0047246D01*
X0280240Y0047638D02*
X0259768Y0047638D01*
X0259768Y0048030D02*
X0280240Y0048030D01*
X0280240Y0048422D02*
X0259768Y0048422D01*
X0259768Y0048815D02*
X0280240Y0048815D01*
X0280240Y0049207D02*
X0259768Y0049207D01*
X0259768Y0049599D02*
X0280240Y0049599D01*
X0280240Y0049991D02*
X0259768Y0049991D01*
X0259768Y0050383D02*
X0280240Y0050383D01*
X0280240Y0050776D02*
X0259768Y0050776D01*
X0264650Y0051560D02*
X0265043Y0051560D01*
X0265043Y0051952D02*
X0264650Y0051952D01*
X0264650Y0052344D02*
X0265043Y0052344D01*
X0265043Y0052737D02*
X0264650Y0052737D01*
X0264650Y0053129D02*
X0265043Y0053129D01*
X0265043Y0053521D02*
X0264650Y0053521D01*
X0264650Y0053913D02*
X0265043Y0053913D01*
X0265043Y0054305D02*
X0264650Y0054305D01*
X0264650Y0054698D02*
X0265043Y0054698D01*
X0265043Y0055874D02*
X0264650Y0055874D01*
X0264650Y0056267D02*
X0265043Y0056267D01*
X0265043Y0056659D02*
X0264650Y0056659D01*
X0264650Y0057051D02*
X0265043Y0057051D01*
X0265043Y0057443D02*
X0264650Y0057443D01*
X0264650Y0057835D02*
X0265043Y0057835D01*
X0265043Y0058228D02*
X0264650Y0058228D01*
X0264650Y0058620D02*
X0265043Y0058620D01*
X0265043Y0059012D02*
X0264650Y0059012D01*
X0264650Y0059404D02*
X0265043Y0059404D01*
X0262805Y0059404D02*
X0259768Y0059404D01*
X0259768Y0059012D02*
X0262413Y0059012D01*
X0262020Y0058620D02*
X0259768Y0058620D01*
X0259768Y0058228D02*
X0261628Y0058228D01*
X0261236Y0057835D02*
X0259768Y0057835D01*
X0259768Y0057443D02*
X0260844Y0057443D01*
X0260681Y0057051D02*
X0259768Y0057051D01*
X0259768Y0056659D02*
X0260681Y0056659D01*
X0260681Y0056267D02*
X0259768Y0056267D01*
X0259768Y0055874D02*
X0260681Y0055874D01*
X0289689Y0055874D02*
X0290681Y0055874D01*
X0290681Y0056267D02*
X0289689Y0056267D01*
X0289689Y0056659D02*
X0290681Y0056659D01*
X0290681Y0057051D02*
X0289689Y0057051D01*
X0289689Y0057443D02*
X0290844Y0057443D01*
X0291236Y0057835D02*
X0289689Y0057835D01*
X0289689Y0058228D02*
X0291628Y0058228D01*
X0292020Y0058620D02*
X0289689Y0058620D01*
X0289689Y0059012D02*
X0292413Y0059012D01*
X0292805Y0059404D02*
X0289689Y0059404D01*
X0294650Y0061758D02*
X0295043Y0061758D01*
X0295043Y0062150D02*
X0294650Y0062150D01*
X0294650Y0062542D02*
X0295043Y0062542D01*
X0295043Y0062934D02*
X0294650Y0062934D01*
X0294650Y0063326D02*
X0295043Y0063326D01*
X0295043Y0063719D02*
X0294650Y0063719D01*
X0294650Y0064111D02*
X0295043Y0064111D01*
X0295043Y0064503D02*
X0294650Y0064503D01*
X0294650Y0064895D02*
X0295043Y0064895D01*
X0295043Y0065287D02*
X0294650Y0065287D01*
X0294650Y0065680D02*
X0289689Y0065680D01*
X0289689Y0066072D02*
X0290681Y0066072D01*
X0290681Y0066464D02*
X0289689Y0066464D01*
X0289689Y0066856D02*
X0290681Y0066856D01*
X0290681Y0067248D02*
X0289689Y0067248D01*
X0289689Y0067641D02*
X0291041Y0067641D01*
X0291434Y0068033D02*
X0289689Y0068033D01*
X0289689Y0068425D02*
X0291826Y0068425D01*
X0292218Y0068817D02*
X0289689Y0068817D01*
X0289689Y0069210D02*
X0292610Y0069210D01*
X0293002Y0069602D02*
X0289689Y0069602D01*
X0289689Y0069994D02*
X0295988Y0069994D01*
X0295988Y0070386D02*
X0289689Y0070386D01*
X0289689Y0070778D02*
X0295988Y0070778D01*
X0295988Y0071171D02*
X0289689Y0071171D01*
X0289689Y0071563D02*
X0295988Y0071563D01*
X0295988Y0071955D02*
X0289689Y0071955D01*
X0289689Y0072347D02*
X0295988Y0072347D01*
X0295988Y0072739D02*
X0289689Y0072739D01*
X0289689Y0073132D02*
X0295988Y0073132D01*
X0295988Y0073524D02*
X0289689Y0073524D01*
X0289689Y0073916D02*
X0295988Y0073916D01*
X0295988Y0074308D02*
X0289689Y0074308D01*
X0289689Y0074701D02*
X0295988Y0074701D01*
X0295988Y0075093D02*
X0289689Y0075093D01*
X0289689Y0075485D02*
X0295988Y0075485D01*
X0295988Y0075877D02*
X0289689Y0075877D01*
X0289689Y0076269D02*
X0295988Y0076269D01*
X0295988Y0076662D02*
X0289689Y0076662D01*
X0289689Y0077054D02*
X0295988Y0077054D01*
X0295988Y0077446D02*
X0289689Y0077446D01*
X0289689Y0077838D02*
X0295988Y0077838D01*
X0295988Y0078230D02*
X0289689Y0078230D01*
X0289689Y0078623D02*
X0295988Y0078623D01*
X0295988Y0079015D02*
X0289689Y0079015D01*
X0289689Y0079407D02*
X0295988Y0079407D01*
X0295988Y0079799D02*
X0289689Y0079799D01*
X0289689Y0080191D02*
X0295988Y0080191D01*
X0295043Y0069602D02*
X0294650Y0069602D01*
X0294650Y0069210D02*
X0295043Y0069210D01*
X0295043Y0068817D02*
X0294650Y0068817D01*
X0294650Y0068425D02*
X0295043Y0068425D01*
X0295043Y0068033D02*
X0294650Y0068033D01*
X0294650Y0067641D02*
X0295043Y0067641D01*
X0295043Y0067248D02*
X0294650Y0067248D01*
X0294650Y0066856D02*
X0295043Y0066856D01*
X0295043Y0066464D02*
X0294650Y0066464D01*
X0294650Y0066072D02*
X0295043Y0066072D01*
X0297672Y0058620D02*
X0299925Y0058620D01*
X0299925Y0058228D02*
X0298065Y0058228D01*
X0298457Y0057835D02*
X0299925Y0057835D01*
X0299925Y0057443D02*
X0298849Y0057443D01*
X0299012Y0057051D02*
X0299925Y0057051D01*
X0299925Y0056659D02*
X0299012Y0056659D01*
X0299012Y0056267D02*
X0299925Y0056267D01*
X0299925Y0055874D02*
X0299012Y0055874D01*
X0299925Y0028027D02*
X0296926Y0028027D01*
X0297319Y0027635D02*
X0299925Y0027635D01*
X0299925Y0027243D02*
X0297711Y0027243D01*
X0298103Y0026851D02*
X0299925Y0026851D01*
X0299925Y0026458D02*
X0298495Y0026458D01*
X0298887Y0026066D02*
X0299925Y0026066D01*
X0299925Y0025674D02*
X0299012Y0025674D01*
X0299012Y0025282D02*
X0299925Y0025282D01*
X0299925Y0024890D02*
X0299012Y0024890D01*
X0299012Y0024497D02*
X0299925Y0024497D01*
X0295043Y0024497D02*
X0294650Y0024497D01*
X0294650Y0024890D02*
X0295043Y0024890D01*
X0295043Y0025282D02*
X0294650Y0025282D01*
X0294650Y0025674D02*
X0295043Y0025674D01*
X0295043Y0026066D02*
X0294650Y0026066D01*
X0294650Y0026458D02*
X0295043Y0026458D01*
X0295043Y0026851D02*
X0294650Y0026851D01*
X0294650Y0027243D02*
X0295043Y0027243D01*
X0295043Y0027635D02*
X0294650Y0027635D01*
X0294650Y0028027D02*
X0295043Y0028027D01*
X0280240Y0028027D02*
X0276926Y0028027D01*
X0277319Y0027635D02*
X0280240Y0027635D01*
X0280240Y0027243D02*
X0277711Y0027243D01*
X0278103Y0026851D02*
X0280240Y0026851D01*
X0280240Y0026458D02*
X0278495Y0026458D01*
X0278887Y0026066D02*
X0280240Y0026066D01*
X0280240Y0025674D02*
X0279012Y0025674D01*
X0279012Y0025282D02*
X0280240Y0025282D01*
X0280240Y0024890D02*
X0279012Y0024890D01*
X0279012Y0024497D02*
X0280240Y0024497D01*
X0275043Y0024497D02*
X0274650Y0024497D01*
X0274650Y0024413D02*
X0274650Y0028382D01*
X0273121Y0028382D01*
X0270681Y0025942D01*
X0270681Y0024413D01*
X0274650Y0024413D01*
X0274650Y0024890D02*
X0275043Y0024890D01*
X0275043Y0025282D02*
X0274650Y0025282D01*
X0274650Y0025674D02*
X0275043Y0025674D01*
X0275043Y0026066D02*
X0274650Y0026066D01*
X0274650Y0026458D02*
X0275043Y0026458D01*
X0275043Y0026851D02*
X0274650Y0026851D01*
X0274650Y0027243D02*
X0275043Y0027243D01*
X0275043Y0027635D02*
X0274650Y0027635D01*
X0274650Y0028027D02*
X0275043Y0028027D01*
X0272767Y0028027D02*
X0266926Y0028027D01*
X0267319Y0027635D02*
X0272374Y0027635D01*
X0271982Y0027243D02*
X0267711Y0027243D01*
X0268103Y0026851D02*
X0271590Y0026851D01*
X0271198Y0026458D02*
X0268495Y0026458D01*
X0268887Y0026066D02*
X0270805Y0026066D01*
X0270681Y0025674D02*
X0269012Y0025674D01*
X0269012Y0025282D02*
X0270681Y0025282D01*
X0270681Y0024890D02*
X0269012Y0024890D01*
X0269012Y0024497D02*
X0270681Y0024497D01*
X0270681Y0023713D02*
X0269012Y0023713D01*
X0269012Y0023321D02*
X0270681Y0023321D01*
X0270681Y0022929D02*
X0269012Y0022929D01*
X0269012Y0022536D02*
X0270681Y0022536D01*
X0271028Y0022144D02*
X0268665Y0022144D01*
X0268273Y0021752D02*
X0271420Y0021752D01*
X0271813Y0021360D02*
X0267880Y0021360D01*
X0267488Y0020967D02*
X0272205Y0020967D01*
X0272597Y0020575D02*
X0267096Y0020575D01*
X0266704Y0020183D02*
X0272989Y0020183D01*
X0274650Y0020183D02*
X0275043Y0020183D01*
X0275043Y0020575D02*
X0274650Y0020575D01*
X0274650Y0020967D02*
X0275043Y0020967D01*
X0275043Y0021360D02*
X0274650Y0021360D01*
X0274650Y0021752D02*
X0275043Y0021752D01*
X0275043Y0022144D02*
X0274650Y0022144D01*
X0274650Y0022536D02*
X0275043Y0022536D01*
X0275043Y0022929D02*
X0274650Y0022929D01*
X0274650Y0023321D02*
X0275043Y0023321D01*
X0280240Y0019399D02*
X0259768Y0019399D01*
X0259768Y0019006D02*
X0280240Y0019006D01*
X0289689Y0019006D02*
X0299925Y0019006D01*
X0299925Y0019399D02*
X0289689Y0019399D01*
X0170004Y0024497D02*
X0169012Y0024497D01*
X0169012Y0024890D02*
X0170004Y0024890D01*
X0170004Y0025282D02*
X0169012Y0025282D01*
X0169012Y0025674D02*
X0170004Y0025674D01*
X0170004Y0026066D02*
X0168887Y0026066D01*
X0168495Y0026458D02*
X0170004Y0026458D01*
X0170004Y0026851D02*
X0168103Y0026851D01*
X0167711Y0027243D02*
X0170004Y0027243D01*
X0170004Y0027635D02*
X0167319Y0027635D01*
X0166926Y0028027D02*
X0170004Y0028027D01*
X0165043Y0018222D02*
X0164650Y0018222D01*
X0164650Y0017830D02*
X0165043Y0017830D01*
X0165043Y0017438D02*
X0164650Y0017438D01*
X0164650Y0017045D02*
X0165043Y0017045D01*
X0165043Y0016653D02*
X0164650Y0016653D01*
X0164650Y0016261D02*
X0165043Y0016261D01*
X0165043Y0015869D02*
X0164650Y0015869D01*
X0164650Y0015477D02*
X0165043Y0015477D01*
X0165043Y0015084D02*
X0164650Y0015084D01*
X0164650Y0013908D02*
X0165043Y0013908D01*
X0165043Y0013515D02*
X0164650Y0013515D01*
X0164650Y0013123D02*
X0165043Y0013123D01*
X0165043Y0012731D02*
X0164650Y0012731D01*
X0164650Y0012339D02*
X0165043Y0012339D01*
X0165043Y0011947D02*
X0164650Y0011947D01*
X0164650Y0011554D02*
X0165043Y0011554D01*
X0165043Y0011162D02*
X0164650Y0011162D01*
X0164650Y0010770D02*
X0165043Y0010770D01*
X0165043Y0010378D02*
X0164650Y0010378D01*
X0166898Y0010378D02*
X0170004Y0010378D01*
X0170004Y0010770D02*
X0167291Y0010770D01*
X0167683Y0011162D02*
X0170004Y0011162D01*
X0170004Y0011554D02*
X0168075Y0011554D01*
X0168467Y0011947D02*
X0170004Y0011947D01*
X0170004Y0012339D02*
X0168859Y0012339D01*
X0169012Y0012731D02*
X0170004Y0012731D01*
X0170004Y0013123D02*
X0169012Y0013123D01*
X0169012Y0013515D02*
X0170004Y0013515D01*
X0170004Y0013908D02*
X0169012Y0013908D01*
X0170004Y0009986D02*
X0139295Y0009986D01*
X0108896Y0009986D01*
X0108896Y0010378D02*
X0132795Y0010378D01*
X0132402Y0010770D02*
X0108896Y0010770D01*
X0108896Y0011162D02*
X0132010Y0011162D01*
X0131618Y0011554D02*
X0108896Y0011554D01*
X0108896Y0011947D02*
X0131226Y0011947D01*
X0130833Y0012339D02*
X0108896Y0012339D01*
X0108896Y0012731D02*
X0130681Y0012731D01*
X0130681Y0013123D02*
X0108896Y0013123D01*
X0108896Y0013515D02*
X0130681Y0013515D01*
X0130681Y0013908D02*
X0108896Y0013908D01*
X0108896Y0009593D02*
X0139295Y0009593D01*
X0170004Y0009593D01*
X0170004Y0009201D02*
X0139295Y0009201D01*
X0108896Y0009201D01*
X0108896Y0024497D02*
X0130681Y0024497D01*
X0130681Y0024413D02*
X0134650Y0024413D01*
X0134650Y0028382D01*
X0133121Y0028382D01*
X0130681Y0025942D01*
X0130681Y0024413D01*
X0130681Y0024890D02*
X0108896Y0024890D01*
X0108896Y0025282D02*
X0130681Y0025282D01*
X0130681Y0025674D02*
X0108896Y0025674D01*
X0108896Y0026066D02*
X0130805Y0026066D01*
X0131198Y0026458D02*
X0108896Y0026458D01*
X0108896Y0026851D02*
X0131590Y0026851D01*
X0131982Y0027243D02*
X0108896Y0027243D01*
X0108896Y0027635D02*
X0132374Y0027635D01*
X0132767Y0028027D02*
X0108896Y0028027D01*
X0134650Y0028027D02*
X0135043Y0028027D01*
X0135043Y0027635D02*
X0134650Y0027635D01*
X0134650Y0027243D02*
X0135043Y0027243D01*
X0135043Y0026851D02*
X0134650Y0026851D01*
X0134650Y0026458D02*
X0135043Y0026458D01*
X0135043Y0026066D02*
X0134650Y0026066D01*
X0134650Y0025674D02*
X0135043Y0025674D01*
X0135043Y0025282D02*
X0134650Y0025282D01*
X0134650Y0024890D02*
X0135043Y0024890D01*
X0135043Y0024497D02*
X0134650Y0024497D01*
D17*
X0299925Y0075122D03*
X0331421Y0075122D03*
X0126697Y0101106D03*
M02*
