G75*
%MOIN*%
%OFA0B0*%
%FSLAX25Y25*%
%IPPOS*%
%LPD*%
%AMOC8*
5,1,8,0,0,1.08239X$1,22.5*
%
%ADD10C,0.01969*%
%ADD11C,0.09800*%
%ADD12C,0.09461*%
%ADD13C,0.06312*%
%ADD14C,0.06706*%
%ADD15OC8,0.06737*%
D10*
X0028507Y0121579D02*
X0028509Y0121713D01*
X0028515Y0121846D01*
X0028525Y0121979D01*
X0028539Y0122112D01*
X0028557Y0122245D01*
X0028578Y0122377D01*
X0028604Y0122508D01*
X0028634Y0122638D01*
X0028667Y0122768D01*
X0028705Y0122896D01*
X0028746Y0123023D01*
X0028791Y0123149D01*
X0028839Y0123274D01*
X0028891Y0123397D01*
X0028947Y0123518D01*
X0029007Y0123638D01*
X0029070Y0123756D01*
X0029137Y0123872D01*
X0029207Y0123985D01*
X0029280Y0124097D01*
X0029356Y0124207D01*
X0029436Y0124314D01*
X0029519Y0124419D01*
X0029605Y0124521D01*
X0029695Y0124621D01*
X0029787Y0124718D01*
X0029881Y0124812D01*
X0029979Y0124903D01*
X0030079Y0124991D01*
X0030182Y0125077D01*
X0030288Y0125159D01*
X0030395Y0125238D01*
X0030506Y0125314D01*
X0030618Y0125386D01*
X0030732Y0125455D01*
X0030849Y0125521D01*
X0030967Y0125583D01*
X0031087Y0125642D01*
X0031209Y0125697D01*
X0031332Y0125748D01*
X0031457Y0125796D01*
X0031583Y0125840D01*
X0031711Y0125880D01*
X0031840Y0125916D01*
X0031969Y0125949D01*
X0032100Y0125978D01*
X0032231Y0126002D01*
X0032363Y0126023D01*
X0032496Y0126040D01*
X0032629Y0126053D01*
X0032762Y0126062D01*
X0032896Y0126067D01*
X0033029Y0126068D01*
X0033163Y0126065D01*
X0033297Y0126058D01*
X0033430Y0126047D01*
X0033563Y0126032D01*
X0033695Y0126013D01*
X0033827Y0125990D01*
X0033958Y0125964D01*
X0034088Y0125933D01*
X0034217Y0125899D01*
X0034345Y0125861D01*
X0034472Y0125818D01*
X0034597Y0125773D01*
X0034722Y0125723D01*
X0034844Y0125670D01*
X0034965Y0125613D01*
X0035084Y0125553D01*
X0035202Y0125489D01*
X0035317Y0125421D01*
X0035431Y0125350D01*
X0035542Y0125276D01*
X0035651Y0125199D01*
X0035757Y0125118D01*
X0035862Y0125034D01*
X0035963Y0124948D01*
X0036062Y0124858D01*
X0036158Y0124765D01*
X0036252Y0124669D01*
X0036342Y0124571D01*
X0036430Y0124470D01*
X0036515Y0124367D01*
X0036596Y0124261D01*
X0036674Y0124152D01*
X0036749Y0124042D01*
X0036821Y0123929D01*
X0036889Y0123814D01*
X0036954Y0123697D01*
X0037015Y0123578D01*
X0037073Y0123458D01*
X0037127Y0123335D01*
X0037178Y0123212D01*
X0037224Y0123086D01*
X0037267Y0122960D01*
X0037307Y0122832D01*
X0037342Y0122703D01*
X0037374Y0122573D01*
X0037401Y0122442D01*
X0037425Y0122311D01*
X0037445Y0122179D01*
X0037461Y0122046D01*
X0037473Y0121913D01*
X0037481Y0121779D01*
X0037485Y0121646D01*
X0037485Y0121512D01*
X0037481Y0121379D01*
X0037473Y0121245D01*
X0037461Y0121112D01*
X0037445Y0120979D01*
X0037425Y0120847D01*
X0037401Y0120716D01*
X0037374Y0120585D01*
X0037342Y0120455D01*
X0037307Y0120326D01*
X0037267Y0120198D01*
X0037224Y0120072D01*
X0037178Y0119946D01*
X0037127Y0119823D01*
X0037073Y0119700D01*
X0037015Y0119580D01*
X0036954Y0119461D01*
X0036889Y0119344D01*
X0036821Y0119229D01*
X0036749Y0119116D01*
X0036674Y0119006D01*
X0036596Y0118897D01*
X0036515Y0118791D01*
X0036430Y0118688D01*
X0036342Y0118587D01*
X0036252Y0118489D01*
X0036158Y0118393D01*
X0036062Y0118300D01*
X0035963Y0118210D01*
X0035862Y0118124D01*
X0035757Y0118040D01*
X0035651Y0117959D01*
X0035542Y0117882D01*
X0035431Y0117808D01*
X0035317Y0117737D01*
X0035202Y0117669D01*
X0035084Y0117605D01*
X0034965Y0117545D01*
X0034844Y0117488D01*
X0034722Y0117435D01*
X0034597Y0117385D01*
X0034472Y0117340D01*
X0034345Y0117297D01*
X0034217Y0117259D01*
X0034088Y0117225D01*
X0033958Y0117194D01*
X0033827Y0117168D01*
X0033695Y0117145D01*
X0033563Y0117126D01*
X0033430Y0117111D01*
X0033297Y0117100D01*
X0033163Y0117093D01*
X0033029Y0117090D01*
X0032896Y0117091D01*
X0032762Y0117096D01*
X0032629Y0117105D01*
X0032496Y0117118D01*
X0032363Y0117135D01*
X0032231Y0117156D01*
X0032100Y0117180D01*
X0031969Y0117209D01*
X0031840Y0117242D01*
X0031711Y0117278D01*
X0031583Y0117318D01*
X0031457Y0117362D01*
X0031332Y0117410D01*
X0031209Y0117461D01*
X0031087Y0117516D01*
X0030967Y0117575D01*
X0030849Y0117637D01*
X0030732Y0117703D01*
X0030618Y0117772D01*
X0030506Y0117844D01*
X0030395Y0117920D01*
X0030288Y0117999D01*
X0030182Y0118081D01*
X0030079Y0118167D01*
X0029979Y0118255D01*
X0029881Y0118346D01*
X0029787Y0118440D01*
X0029695Y0118537D01*
X0029605Y0118637D01*
X0029519Y0118739D01*
X0029436Y0118844D01*
X0029356Y0118951D01*
X0029280Y0119061D01*
X0029207Y0119173D01*
X0029137Y0119286D01*
X0029070Y0119402D01*
X0029007Y0119520D01*
X0028947Y0119640D01*
X0028891Y0119761D01*
X0028839Y0119884D01*
X0028791Y0120009D01*
X0028746Y0120135D01*
X0028705Y0120262D01*
X0028667Y0120390D01*
X0028634Y0120520D01*
X0028604Y0120650D01*
X0028578Y0120781D01*
X0028557Y0120913D01*
X0028539Y0121046D01*
X0028525Y0121179D01*
X0028515Y0121312D01*
X0028509Y0121445D01*
X0028507Y0121579D01*
X0087562Y0121579D02*
X0087564Y0121713D01*
X0087570Y0121846D01*
X0087580Y0121979D01*
X0087594Y0122112D01*
X0087612Y0122245D01*
X0087633Y0122377D01*
X0087659Y0122508D01*
X0087689Y0122638D01*
X0087722Y0122768D01*
X0087760Y0122896D01*
X0087801Y0123023D01*
X0087846Y0123149D01*
X0087894Y0123274D01*
X0087946Y0123397D01*
X0088002Y0123518D01*
X0088062Y0123638D01*
X0088125Y0123756D01*
X0088192Y0123872D01*
X0088262Y0123985D01*
X0088335Y0124097D01*
X0088411Y0124207D01*
X0088491Y0124314D01*
X0088574Y0124419D01*
X0088660Y0124521D01*
X0088750Y0124621D01*
X0088842Y0124718D01*
X0088936Y0124812D01*
X0089034Y0124903D01*
X0089134Y0124991D01*
X0089237Y0125077D01*
X0089343Y0125159D01*
X0089450Y0125238D01*
X0089561Y0125314D01*
X0089673Y0125386D01*
X0089787Y0125455D01*
X0089904Y0125521D01*
X0090022Y0125583D01*
X0090142Y0125642D01*
X0090264Y0125697D01*
X0090387Y0125748D01*
X0090512Y0125796D01*
X0090638Y0125840D01*
X0090766Y0125880D01*
X0090895Y0125916D01*
X0091024Y0125949D01*
X0091155Y0125978D01*
X0091286Y0126002D01*
X0091418Y0126023D01*
X0091551Y0126040D01*
X0091684Y0126053D01*
X0091817Y0126062D01*
X0091951Y0126067D01*
X0092084Y0126068D01*
X0092218Y0126065D01*
X0092352Y0126058D01*
X0092485Y0126047D01*
X0092618Y0126032D01*
X0092750Y0126013D01*
X0092882Y0125990D01*
X0093013Y0125964D01*
X0093143Y0125933D01*
X0093272Y0125899D01*
X0093400Y0125861D01*
X0093527Y0125818D01*
X0093652Y0125773D01*
X0093777Y0125723D01*
X0093899Y0125670D01*
X0094020Y0125613D01*
X0094139Y0125553D01*
X0094257Y0125489D01*
X0094372Y0125421D01*
X0094486Y0125350D01*
X0094597Y0125276D01*
X0094706Y0125199D01*
X0094812Y0125118D01*
X0094917Y0125034D01*
X0095018Y0124948D01*
X0095117Y0124858D01*
X0095213Y0124765D01*
X0095307Y0124669D01*
X0095397Y0124571D01*
X0095485Y0124470D01*
X0095570Y0124367D01*
X0095651Y0124261D01*
X0095729Y0124152D01*
X0095804Y0124042D01*
X0095876Y0123929D01*
X0095944Y0123814D01*
X0096009Y0123697D01*
X0096070Y0123578D01*
X0096128Y0123458D01*
X0096182Y0123335D01*
X0096233Y0123212D01*
X0096279Y0123086D01*
X0096322Y0122960D01*
X0096362Y0122832D01*
X0096397Y0122703D01*
X0096429Y0122573D01*
X0096456Y0122442D01*
X0096480Y0122311D01*
X0096500Y0122179D01*
X0096516Y0122046D01*
X0096528Y0121913D01*
X0096536Y0121779D01*
X0096540Y0121646D01*
X0096540Y0121512D01*
X0096536Y0121379D01*
X0096528Y0121245D01*
X0096516Y0121112D01*
X0096500Y0120979D01*
X0096480Y0120847D01*
X0096456Y0120716D01*
X0096429Y0120585D01*
X0096397Y0120455D01*
X0096362Y0120326D01*
X0096322Y0120198D01*
X0096279Y0120072D01*
X0096233Y0119946D01*
X0096182Y0119823D01*
X0096128Y0119700D01*
X0096070Y0119580D01*
X0096009Y0119461D01*
X0095944Y0119344D01*
X0095876Y0119229D01*
X0095804Y0119116D01*
X0095729Y0119006D01*
X0095651Y0118897D01*
X0095570Y0118791D01*
X0095485Y0118688D01*
X0095397Y0118587D01*
X0095307Y0118489D01*
X0095213Y0118393D01*
X0095117Y0118300D01*
X0095018Y0118210D01*
X0094917Y0118124D01*
X0094812Y0118040D01*
X0094706Y0117959D01*
X0094597Y0117882D01*
X0094486Y0117808D01*
X0094372Y0117737D01*
X0094257Y0117669D01*
X0094139Y0117605D01*
X0094020Y0117545D01*
X0093899Y0117488D01*
X0093777Y0117435D01*
X0093652Y0117385D01*
X0093527Y0117340D01*
X0093400Y0117297D01*
X0093272Y0117259D01*
X0093143Y0117225D01*
X0093013Y0117194D01*
X0092882Y0117168D01*
X0092750Y0117145D01*
X0092618Y0117126D01*
X0092485Y0117111D01*
X0092352Y0117100D01*
X0092218Y0117093D01*
X0092084Y0117090D01*
X0091951Y0117091D01*
X0091817Y0117096D01*
X0091684Y0117105D01*
X0091551Y0117118D01*
X0091418Y0117135D01*
X0091286Y0117156D01*
X0091155Y0117180D01*
X0091024Y0117209D01*
X0090895Y0117242D01*
X0090766Y0117278D01*
X0090638Y0117318D01*
X0090512Y0117362D01*
X0090387Y0117410D01*
X0090264Y0117461D01*
X0090142Y0117516D01*
X0090022Y0117575D01*
X0089904Y0117637D01*
X0089787Y0117703D01*
X0089673Y0117772D01*
X0089561Y0117844D01*
X0089450Y0117920D01*
X0089343Y0117999D01*
X0089237Y0118081D01*
X0089134Y0118167D01*
X0089034Y0118255D01*
X0088936Y0118346D01*
X0088842Y0118440D01*
X0088750Y0118537D01*
X0088660Y0118637D01*
X0088574Y0118739D01*
X0088491Y0118844D01*
X0088411Y0118951D01*
X0088335Y0119061D01*
X0088262Y0119173D01*
X0088192Y0119286D01*
X0088125Y0119402D01*
X0088062Y0119520D01*
X0088002Y0119640D01*
X0087946Y0119761D01*
X0087894Y0119884D01*
X0087846Y0120009D01*
X0087801Y0120135D01*
X0087760Y0120262D01*
X0087722Y0120390D01*
X0087689Y0120520D01*
X0087659Y0120650D01*
X0087633Y0120781D01*
X0087612Y0120913D01*
X0087594Y0121046D01*
X0087580Y0121179D01*
X0087570Y0121312D01*
X0087564Y0121445D01*
X0087562Y0121579D01*
D11*
X0285201Y0113311D03*
X0294925Y0103350D03*
X0314650Y0113272D03*
X0334295Y0103390D03*
X0344295Y0113311D03*
X0379689Y0113311D03*
X0389413Y0103350D03*
X0409138Y0113272D03*
X0428783Y0103390D03*
X0438783Y0113311D03*
X0428783Y0152611D03*
X0389383Y0152611D03*
X0334295Y0152611D03*
X0294895Y0152611D03*
D12*
X0112917Y0120004D02*
X0112917Y0111343D01*
X0071251Y0111343D02*
X0071251Y0120004D01*
X0053862Y0120004D02*
X0053862Y0111343D01*
X0012196Y0111343D02*
X0012196Y0120004D01*
X0028665Y0147169D02*
X0037327Y0147169D01*
X0087720Y0147169D02*
X0096382Y0147169D01*
D13*
X0106815Y0147169D03*
X0077287Y0147169D03*
X0047760Y0147169D03*
X0018232Y0147169D03*
D14*
X0032996Y0121579D03*
X0092051Y0121579D03*
D15*
X0134846Y0014217D03*
X0144846Y0014217D03*
X0154846Y0014217D03*
X0164846Y0014217D03*
X0174846Y0014217D03*
X0184846Y0014217D03*
X0194846Y0014217D03*
X0204846Y0014217D03*
X0214846Y0014217D03*
X0224846Y0014217D03*
X0234846Y0014217D03*
X0244846Y0014217D03*
X0254846Y0014217D03*
X0264846Y0014217D03*
X0274846Y0014217D03*
X0284846Y0014217D03*
X0294846Y0014217D03*
X0304846Y0014217D03*
X0314846Y0014217D03*
X0324846Y0014217D03*
X0324846Y0024217D03*
X0314846Y0024217D03*
X0304846Y0024217D03*
X0294846Y0024217D03*
X0284846Y0024217D03*
X0274846Y0024217D03*
X0264846Y0024217D03*
X0254846Y0024217D03*
X0244846Y0024217D03*
X0234846Y0024217D03*
X0224846Y0024217D03*
X0214846Y0024217D03*
X0204846Y0024217D03*
X0194846Y0024217D03*
X0184846Y0024217D03*
X0174846Y0024217D03*
X0164846Y0024217D03*
X0154846Y0024217D03*
X0144846Y0024217D03*
X0134846Y0024217D03*
X0134846Y0055555D03*
X0144846Y0055555D03*
X0154846Y0055555D03*
X0164846Y0055555D03*
X0174846Y0055555D03*
X0184846Y0055555D03*
X0194846Y0055555D03*
X0204846Y0055555D03*
X0214846Y0055555D03*
X0224846Y0055555D03*
X0234846Y0055555D03*
X0244846Y0055555D03*
X0254846Y0055555D03*
X0264846Y0055555D03*
X0274846Y0055555D03*
X0284846Y0055555D03*
X0294846Y0055555D03*
X0304846Y0055555D03*
X0314846Y0055555D03*
X0324846Y0055555D03*
X0324846Y0065555D03*
X0314846Y0065555D03*
X0304846Y0065555D03*
X0294846Y0065555D03*
X0284846Y0065555D03*
X0274846Y0065555D03*
X0264846Y0065555D03*
X0254846Y0065555D03*
X0244846Y0065555D03*
X0234846Y0065555D03*
X0224846Y0065555D03*
X0214846Y0065555D03*
X0204846Y0065555D03*
X0194846Y0065555D03*
X0184846Y0065555D03*
X0174846Y0065555D03*
X0164846Y0065555D03*
X0154846Y0065555D03*
X0144846Y0065555D03*
X0134846Y0065555D03*
X0150122Y0115673D03*
X0159965Y0115673D03*
X0169807Y0115673D03*
X0179650Y0115673D03*
X0189492Y0115673D03*
X0199335Y0115673D03*
X0209177Y0115673D03*
X0219020Y0115673D03*
X0228862Y0115673D03*
X0238705Y0115673D03*
X0238705Y0125516D03*
X0228862Y0125516D03*
X0219020Y0125516D03*
X0209177Y0125516D03*
X0199335Y0125516D03*
X0189492Y0125516D03*
X0179650Y0125516D03*
X0169807Y0125516D03*
X0159965Y0125516D03*
X0150122Y0125516D03*
M02*
