%
M48
M72
T01C0.02362
T02C0.03937
T03C0.05512
T04C0.05906
%
T01
X126697Y101106
X299925Y75122
X331421Y75122
T02
X134846Y14217
X144846Y14217
X154846Y14217
X164846Y14217
X174846Y14217
X184846Y14217
X194846Y14217
X204846Y14217
X214846Y14217
X224846Y14217
X234846Y14217
X244846Y14217
X254846Y14217
X264846Y14217
X274846Y14217
X284846Y14217
X294846Y14217
X304846Y14217
X314846Y14217
X324846Y14217
X324846Y24217
X314846Y24217
X304846Y24217
X294846Y24217
X284846Y24217
X274846Y24217
X264846Y24217
X254846Y24217
X244846Y24217
X234846Y24217
X224846Y24217
X214846Y24217
X204846Y24217
X194846Y24217
X184846Y24217
X174846Y24217
X164846Y24217
X154846Y24217
X144846Y24217
X134846Y24217
X134846Y55555
X144846Y55555
X154846Y55555
X164846Y55555
X174846Y55555
X184846Y55555
X194846Y55555
X204846Y55555
X214846Y55555
X224846Y55555
X234846Y55555
X244846Y55555
X254846Y55555
X264846Y55555
X274846Y55555
X284846Y55555
X294846Y55555
X304846Y55555
X314846Y55555
X324846Y55555
X324846Y65555
X314846Y65555
X304846Y65555
X294846Y65555
X284846Y65555
X274846Y65555
X264846Y65555
X254846Y65555
X244846Y65555
X234846Y65555
X224846Y65555
X214846Y65555
X204846Y65555
X194846Y65555
X184846Y65555
X174846Y65555
X164846Y65555
X154846Y65555
X144846Y65555
X134846Y65555
X150122Y115673
X159965Y115673
X169807Y115673
X179650Y115673
X189492Y115673
X199335Y115673
X209177Y115673
X219020Y115673
X228862Y115673
X238705Y115673
X238705Y125516
X228862Y125516
X219020Y125516
X209177Y125516
X199335Y125516
X189492Y125516
X179650Y125516
X169807Y125516
X159965Y125516
X150122Y125516
X112917Y115673
X71251Y115673
X53862Y115673
X12196Y115673
T03
X18232Y147169
X32996Y147169
X47760Y147169
X77287Y147169
X92051Y147169
X106815Y147169
X285201Y113311
X294925Y103350
X314650Y113272
X334295Y103390
X344295Y113311
X379689Y113311
X389413Y103350
X409138Y113272
X428783Y103390
X438783Y113311
X428783Y152611
X389383Y152611
X334295Y152611
X294895Y152611
T04
X92051Y121579
X32996Y121579
M30
